STARTFONT 2.3
FONT -FontForge-STIX Two Math-Book-R-Normal--32-320-72-72-P-219-ISO10646-1
SIZE 32 72 72  2
FONTBOUNDINGBOX 130 137 -31 -53
COMMENT "Generated by fontforge, http://fontforge.sourceforge.net"
COMMENT "Copyright 2001-2021 The STIX Fonts Project Authors (https://github.com/stipub/stixfonts)"
STARTPROPERTIES 41
FOUNDRY "FontForge"
FAMILY_NAME "STIX Two Math"
WEIGHT_NAME "Book"
SLANT "R"
SETWIDTH_NAME "Normal"
ADD_STYLE_NAME ""
PIXEL_SIZE 32
POINT_SIZE 320
RESOLUTION_X 72
RESOLUTION_Y 72
SPACING "P"
AVERAGE_WIDTH 219
CHARSET_REGISTRY "ISO10646"
CHARSET_ENCODING "1"
FONTNAME_REGISTRY ""
CHARSET_COLLECTIONS "ASCII ISOLatin1Encoding ISO8859-2 ISO8859-5 ISO8859-7 ISO8859-9 ISO8859-4 ISO10646-1"
BITS_PER_PIXEL 2
FONT_NAME "STIXTwoMath-Regular"
FACE_NAME "STIX Two Math Regular"
COPYRIGHT "Copyright 2001-2021 The STIX Fonts Project Authors (https://github.com/stipub/stixfonts)"
FONT_VERSION "2.12 b168a"
FONT_ASCENT 24
FONT_DESCENT 8
UNDERLINE_POSITION -3
UNDERLINE_THICKNESS 2
X_HEIGHT 15
CAP_HEIGHT 21
RAW_ASCENT 762
RAW_DESCENT 238
NORM_SPACE 8
RELATIVE_WEIGHT 40
RELATIVE_SETWIDTH 50
SUPERSCRIPT_X 0
SUPERSCRIPT_Y 16
SUPERSCRIPT_SIZE 16
SUBSCRIPT_X 0
SUBSCRIPT_Y 8
SUBSCRIPT_SIZE 16
FIGURE_WIDTH 16
AVG_LOWERCASE_WIDTH 157
AVG_UPPERCASE_WIDTH 216
ENDPROPERTIES
CHARS 6611
STARTCHAR space
ENCODING 32
SWIDTH 235 0
DWIDTH 8 0
BBX 1 1 0 0
BITMAP
00
ENDCHAR
STARTCHAR exclam
ENCODING 33
SWIDTH 283 0
DWIDTH 9 0
BBX 5 22 2 0
BITMAP
2E00
3F00
7F40
3F00
3F00
3F00
3F00
2E00
2E00
2E00
2E00
1D00
1D00
1D00
1D00
0C00
0000
0000
2E00
7F40
7F40
2E00
ENDCHAR
STARTCHAR quotedbl
ENCODING 34
SWIDTH 334 0
DWIDTH 11 0
BBX 9 7 1 17
BITMAP
7D2F40
7D2F00
7C2E00
782D00
782D00
742C00
702800
ENDCHAR
STARTCHAR numbersign
ENCODING 35
SWIDTH 702 0
DWIDTH 22 0
BBX 20 23 1 -1
BITMAP
0003C00740
0003800740
0007800B40
0007400B00
000B400F00
000B000E00
000F001E00
1FFFFFFFFE
1AAFAABEA9
001E002C00
001D002C00
002D003C00
002C003800
003C007800
7FFFFFFFFC
157955B554
007400B000
00B400F000
00B000F000
00B000E000
00F001E000
00E001D000
0050015000
ENDCHAR
STARTCHAR dollar
ENCODING 36
SWIDTH 495 0
DWIDTH 16 0
BBX 14 27 1 -3
BITMAP
00050000
000A0000
005E5000
07FFFE00
2E4A1F80
7C0A0780
BC0A0280
BC0A0180
BD0A0040
7F4A0000
2FEE0000
0BFE0000
02FFE000
007FFD00
000FFF40
000A7FC0
000A0FD0
400A07E0
D00A03E0
E00A03E0
F00A07D0
F80A0B80
BF9EBE00
0AFFA400
000A0000
000A0000
000A0000
ENDCHAR
STARTCHAR percent
ENCODING 37
SWIDTH 692 0
DWIDTH 22 0
BBX 20 22 1 0
BITMAP
01BE0001D0
0782D01BC0
1E00EF9B40
3D00C01E00
7C00D02C00
7800C07800
B801C0F000
780282D000
7C07038000
3D1D0B4000
1FF41E0000
01002C0AE4
0000747D1C
0000E0F409
0001D1E006
000382D006
000B03D00A
001D03C009
002C03D01C
007402D028
00E001F5E0
01C0007F40
ENDCHAR
STARTCHAR ampersand
ENCODING 38
SWIDTH 736 0
DWIDTH 24 0
BBX 22 22 1 0
BITMAP
0006F9000000
002E5B800000
007802C00000
00B801D00000
00F802D00000
00B802C00000
00BD07800000
007E2E000000
002FF41FFF80
001F8007F900
00BFD001F000
02D7E002D000
1F42F4038000
3E00FC070000
BC007E0D0000
FC002FA80000
FC000FF40000
FC0007F40000
FE0007FD0020
7F956DBF95D0
2FFFF42FFF40
06FE4006F900
ENDCHAR
STARTCHAR quotesingle
ENCODING 39
SWIDTH 187 0
DWIDTH 6 0
BBX 4 7 1 17
BITMAP
7D
7D
7C
78
78
74
70
ENDCHAR
STARTCHAR parenleft
ENCODING 40
SWIDTH 357 0
DWIDTH 11 0
BBX 10 30 1 -6
BITMAP
000040
0002D0
000E00
003800
00F000
02D000
078000
0F4000
1F0000
2E0000
3E0000
7D0000
7D0000
7C0000
BC0000
BC0000
BC0000
7C0000
7D0000
3D0000
3E0000
2E0000
1F0000
0B4000
07C000
02E000
00B400
002D00
000B40
0001D0
ENDCHAR
STARTCHAR parenright
ENCODING 41
SWIDTH 357 0
DWIDTH 11 0
BBX 9 30 1 -6
BITMAP
400000
B40000
1D0000
074000
02D000
00F000
007800
003D00
002E00
001F00
000F40
000F80
000B80
000BC0
000BC0
000BC0
000BC0
000BC0
000B80
000F80
000F40
001F00
002E00
003D00
00B800
00F000
02D000
0B4000
2D0000
A00000
ENDCHAR
STARTCHAR asterisk
ENCODING 42
SWIDTH 410 0
DWIDTH 13 0
BBX 11 12 1 11
BITMAP
007400
00B800
747478
BD35FC
6F77F4
01BD00
01BD00
6F77E4
BD35FC
747478
00B800
007400
ENDCHAR
STARTCHAR plus
ENCODING 43
SWIDTH 720 0
DWIDTH 23 0
BBX 19 20 2 -2
BITMAP
0000B80000
0000B80000
0000B80000
0000B80000
0000B80000
0000B80000
0000B80000
0000B80000
0000B80000
FFFFFFFFFC
FFFFFFFFFC
0000B80000
0000B80000
0000B80000
0000B80000
0000B80000
0000B80000
0000B80000
0000B80000
0000540000
ENDCHAR
STARTCHAR comma
ENCODING 44
SWIDTH 245 0
DWIDTH 8 0
BBX 5 9 1 -5
BITMAP
2F40
3FC0
7FC0
2FC0
02C0
0280
0700
2D00
1000
ENDCHAR
STARTCHAR hyphen
ENCODING 45
SWIDTH 315 0
DWIDTH 10 0
BBX 8 2 1 7
BITMAP
BFFE
BFFE
ENDCHAR
STARTCHAR period
ENCODING 46
SWIDTH 245 0
DWIDTH 8 0
BBX 4 4 2 0
BITMAP
7D
FE
FE
7D
ENDCHAR
STARTCHAR slash
ENCODING 47
SWIDTH 386 0
DWIDTH 12 0
BBX 10 27 1 -3
BITMAP
000060
0000F0
0000E0
0001D0
0002C0
000380
000740
000B00
000E00
001D00
002C00
003800
007400
00B000
00F000
01E000
02D000
03C000
078000
0B4000
0B0000
0E0000
1D0000
2C0000
380000
740000
B00000
ENDCHAR
STARTCHAR zero
ENCODING 48
SWIDTH 495 0
DWIDTH 16 0
BBX 14 22 1 0
BITMAP
00BF9000
03E5B800
0F802E00
2F001F40
3E000FC0
7D000BD0
BD0007D0
FC0007E0
FC0007E0
FC0007F0
FC0003F0
FC0003F0
FC0003F0
FC0007E0
FC0007E0
BD0007D0
7D000BD0
3E000F80
2F001F40
0F802E00
07E5B800
006F9000
ENDCHAR
STARTCHAR one
ENCODING 49
SWIDTH 495 0
DWIDTH 16 0
BBX 12 21 2 0
BITMAP
006E00
1BFE00
AAFE00
007E00
007E00
007E00
007E00
007E00
007E00
007E00
007E00
007E00
007E00
007E00
007E00
007E00
007E00
007E00
00BE00
16FF94
7FFFFE
ENDCHAR
STARTCHAR two
ENCODING 50
SWIDTH 495 0
DWIDTH 16 0
BBX 14 22 1 0
BITMAP
00BF9000
07FFF800
1E55FE00
38003F40
60002F80
50001F80
00001F80
00001F80
00001F40
00002F00
00003D00
0000B800
0001E000
00078000
000F0000
002C0000
00B00010
02C000A0
0B0001D0
2FFFFFD0
BFFFFFC0
BFFFFFC0
ENDCHAR
STARTCHAR three
ENCODING 51
SWIDTH 495 0
DWIDTH 16 0
BBX 13 22 2 0
BITMAP
02FE4000
0FFFE000
3D57F400
A001F800
8000FC00
0000F800
0000F800
0001E000
00038000
001E0000
03FFD000
015BF800
0001FD00
00007F00
00002F00
00002F40
00001F00
00002E00
00002D00
B4007400
FF56D000
6FE90000
ENDCHAR
STARTCHAR four
ENCODING 52
SWIDTH 495 0
DWIDTH 16 0
BBX 16 22 0 0
BITMAP
00001F00
00002F00
00007F00
0000FF00
0002AF00
00076F00
000E2F00
002C2F00
00742F00
00E02F00
02C02F00
07402F00
0E002F00
2C002F00
78002F40
BFFFFFFD
BFFFFFFD
00002F00
00002F00
00002F00
00002F00
00002F00
ENDCHAR
STARTCHAR five
ENCODING 53
SWIDTH 495 0
DWIDTH 16 0
BBX 12 21 2 0
BITMAP
03FFFE
07FFFE
0BFFFD
0A0000
0D0000
1C0000
1FE900
2FFFD0
2FFFF4
001BFD
0000BE
00003F
00001F
00001F
00001F
00001F
00001E
10002C
F900B4
FFAB90
6FE900
ENDCHAR
STARTCHAR six
ENCODING 54
SWIDTH 495 0
DWIDTH 16 0
BBX 14 22 1 0
BITMAP
00006F40
000BF500
007F4000
01FC0000
03F00000
0BD00000
1F800000
2F400000
3F1BE400
7EBFFE00
7F907F40
7F000FC0
BD000BD0
BD0007E0
7D0007E0
7D0007E0
3E0007E0
2E0007D0
1F400BC0
0B800F40
02F57E00
006FE400
ENDCHAR
STARTCHAR seven
ENCODING 55
SWIDTH 495 0
DWIDTH 16 0
BBX 14 21 1 0
BITMAP
1FFFFFF0
2FFFFFE0
3FFFFFD0
740003C0
60000780
40000B40
00000E00
00002D00
00003C00
00007800
0000B400
0001F000
0002E000
0003D000
00078000
000F4000
001F0000
002E0000
003D0000
00BC0000
00F80000
ENDCHAR
STARTCHAR eight
ENCODING 56
SWIDTH 495 0
DWIDTH 16 0
BBX 14 22 1 0
BITMAP
01BF9000
0BD5BD00
1F001F00
3E000F40
3D000F80
3E000F40
3F000F40
2F801E00
0FF47800
03FED000
00BFD000
00BFF800
07C7FE00
1F00BF40
3D002FC0
7C000FD0
7C0007D0
7C0007D0
7D000BC0
2E000F80
0BD5BE00
01BFE400
ENDCHAR
STARTCHAR nine
ENCODING 57
SWIDTH 495 0
DWIDTH 16 0
BBX 14 22 1 0
BITMAP
01BF9000
0BD5F800
2F003E00
3E001F40
7D000F80
BC000BC0
BC000BD0
BC000BD0
BD000BD0
7D000BD0
3F000FD0
2F906FD0
0BFFEBC0
01BE4FC0
00001F80
00002F40
00003E00
0000BD00
0002F400
001FD000
01BE4000
1FA40000
ENDCHAR
STARTCHAR colon
ENCODING 58
SWIDTH 245 0
DWIDTH 8 0
BBX 4 16 2 0
BITMAP
7D
FE
FE
7D
00
00
00
00
00
00
00
00
7D
FE
FE
7D
ENDCHAR
STARTCHAR semicolon
ENCODING 59
SWIDTH 245 0
DWIDTH 8 0
BBX 5 21 1 -5
BITMAP
1F40
3F80
3F80
1F40
0000
0000
0000
0000
0000
0000
0000
0000
2F40
3FC0
7FC0
2FC0
02C0
0280
0700
2D00
1000
ENDCHAR
STARTCHAR less
ENCODING 60
SWIDTH 720 0
DWIDTH 23 0
BBX 19 19 2 -1
BITMAP
0000000004
0000000078
00000007F8
0000007F90
000007F900
00007F9000
000BF90000
00BF900000
0BF9000000
7FD0000000
1FF4000000
01FF400000
001FF40000
0001BF4000
00001BF400
000001BF40
0000001BF4
00000001B8
0000000014
ENDCHAR
STARTCHAR equal
ENCODING 61
SWIDTH 720 0
DWIDTH 23 0
BBX 19 9 2 4
BITMAP
FFFFFFFFFC
FFFFFFFFFC
0000000000
0000000000
0000000000
0000000000
0000000000
FFFFFFFFFC
FFFFFFFFFC
ENDCHAR
STARTCHAR greater
ENCODING 62
SWIDTH 720 0
DWIDTH 23 0
BBX 19 19 2 -1
BITMAP
4000000000
B400000000
BF40000000
1BF4000000
01BF400000
001BF80000
0001BF8000
00001BF800
000001BF80
0000001FF8
0000007FD0
000007FD00
00007FD000
0007FD0000
007F900000
07F9000000
7F90000000
B900000000
5000000000
ENDCHAR
STARTCHAR question
ENCODING 63
SWIDTH 411 0
DWIDTH 13 0
BBX 12 22 1 0
BITMAP
06FE40
2E5BE0
B801F8
F400BC
FC00BD
FC00BD
6400BC
0000F8
0001F0
0002E0
000780
000F00
002D00
003800
003400
003400
000000
000000
00B800
01FD00
01FD00
00B800
ENDCHAR
STARTCHAR at
ENCODING 64
SWIDTH 905 0
DWIDTH 29 0
BBX 25 27 2 -6
BITMAP
00006BFE900000
0007E555BD0000
007E00001B8000
01F4000001F000
07C00000007800
0F400000002D00
1E001BF4B01F00
3D00B95EF00B40
7C01F007F00780
B803D002F007C0
F407C002F003C0
F40B8002F003C0
F40F8002F003C0
F40F8002F003C0
F40F8002F007C0
F40F8002F00780
B80FC002F00B40
B80BD007F00F00
7C07F41DF47D00
2E02FFF4FFF800
1F406F906F9000
0BC00000000000
02E00000000000
00BD0000004000
001FE4005B8000
0001BFFFE40000
00000050000000
ENDCHAR
STARTCHAR A
ENCODING 65
SWIDTH 718 0
DWIDTH 23 0
BBX 23 22 0 0
BITMAP
00000B400000
00000F800000
00001FC00000
00002FD00000
00007BF00000
0000B3F40000
0000E2F80000
0001D1FC0000
0003C0BE0000
0007807F0000
000B403F4000
000F002FC000
001D001FD000
003C000FE000
007FFFFFF000
00B55557F800
00F00002FC00
02D00001FD00
03C00000FF00
0B800000BF40
6FD40005FFE4
FFF8000BFFFC
ENDCHAR
STARTCHAR B
ENCODING 66
SWIDTH 618 0
DWIDTH 20 0
BBX 18 22 1 0
BITMAP
FFFFFE9000
07F95BF800
03F400BE00
02F4003F40
02F4002F80
02F4002F80
02F4002F40
02F4002F00
02F4007D00
02F406E400
02FFFF9000
02F556F900
02F4007F40
02F4001FC0
02F4000FD0
02F4000BE0
02F4000BE0
02F4000FD0
02F4001FC0
03F4002F80
0BF556FE00
FFFFFFA000
ENDCHAR
STARTCHAR C
ENCODING 67
SWIDTH 670 0
DWIDTH 21 0
BBX 19 22 1 0
BITMAP
0001BFE924
002F956FF4
00FD0007F4
03F00001F4
0BD00000B4
1FC0000074
2F40000034
3F40000024
7F00000000
7F00000000
7F00000000
7F00000000
7F00000000
7F00000000
3F40000000
2F80000000
1FD0000000
0BF0000018
07F8000074
01FF941BE0
006FFFFF40
0006BFE400
ENDCHAR
STARTCHAR D
ENCODING 68
SWIDTH 730 0
DWIDTH 23 0
BBX 21 22 1 0
BITMAP
FFFFFE900000
0BF95BFE0000
03F4006FD000
02F40007F400
02F40001FC00
02F40000BE00
02F400007F00
02F400003F40
02F400003F80
02F400002F80
02F400002F80
02F400002F80
02F400002F80
02F400002F80
02F400003F40
02F400003F00
02F400007E00
02F40000FC00
02F40002F400
03F4001FD000
07F556FE4000
FFFFFF900000
ENDCHAR
STARTCHAR E
ENCODING 69
SWIDTH 626 0
DWIDTH 20 0
BBX 18 22 1 0
BITMAP
FFFFFFFFC0
0BFAAAAFC0
03F40003C0
02F40001C0
02F40000C0
02F4000080
02F4000000
02F4002800
02F4002800
02F4007800
02FFFFF800
02F555B800
02F4002800
02F4002800
02F4001800
02F4000000
02F4000020
02F4000070
02F40000E0
03F40002E0
07F955AFD0
BFFFFFFFD0
ENDCHAR
STARTCHAR F
ENCODING 70
SWIDTH 588 0
DWIDTH 19 0
BBX 18 22 1 0
BITMAP
FFFFFFFFD0
0BFAAAAFD0
03F40002D0
02F40001D0
02F40000D0
02F4000090
02F4000000
02F4002400
02F4002400
02F400B400
02FFFFF400
02F555B400
02F4003400
02F4002400
02F4002400
02F4000000
02F4000000
02F4000000
02F4000000
03F4000000
5BFD400000
FFFFE00000
ENDCHAR
STARTCHAR G
ENCODING 71
SWIDTH 720 0
DWIDTH 23 0
BBX 21 22 1 0
BITMAP
0001BFE92800
002F956FF800
00FD0007F800
03F00001F800
0BD00000B800
1FC000007800
2F8000003800
3F4000002800
7F0000000000
7F0000000000
7F0000000000
7F00003FFFC0
7F000017FE40
7F000001FC00
3F400001F800
2F800001F800
1FC00001F800
0FD00001F800
07F40001F800
01FD0002F800
007F956FE000
0006BFE90000
ENDCHAR
STARTCHAR H
ENCODING 72
SWIDTH 777 0
DWIDTH 25 0
BBX 24 22 1 0
BITMAP
7FFFE00FFFFD
1BFE5005BFD4
02FC00003F40
01F800003F00
01F800003F00
01F800003F00
01F800003F00
01F800003F00
01F800003F00
01F800003F00
01FFFFFFFF00
01F955557F00
01F800003F00
01F800003F00
01F800003F00
01F800003F00
01F800003F00
01F800003F00
01F800003F00
01FC00003F40
17FE5005BFD4
7FFFE00FFFFD
ENDCHAR
STARTCHAR I
ENCODING 73
SWIDTH 357 0
DWIDTH 11 0
BBX 10 22 1 0
BITMAP
FFFFD0
5BFD40
03F400
02F400
02F400
02F400
02F400
02F400
02F400
02F400
02F400
02F400
02F400
02F400
02F400
02F400
02F400
02F400
02F400
03F400
5BFD40
FFFFD0
ENDCHAR
STARTCHAR J
ENCODING 74
SWIDTH 396 0
DWIDTH 13 0
BBX 12 22 0 0
BITMAP
03FFFF
016FF5
000FD0
000FC0
000FC0
000FC0
000FC0
000FC0
000FC0
000FC0
000FC0
000FC0
000FC0
000FC0
000FC0
000FC0
000FC0
100FC0
B80FC0
FD0F80
BF6F00
2FE800
ENDCHAR
STARTCHAR K
ENCODING 75
SWIDTH 702 0
DWIDTH 22 0
BBX 22 22 1 0
BITMAP
FFFFD0FFFF00
5BFD406FF500
03F4001F8000
02F4002E0000
02F400780000
02F401E00000
02F407800000
02F41E000000
02F474000000
02F5D0000000
02FBD0000000
02FBF4000000
02F6FD000000
02F4BF400000
02F42FD00000
02F40BF40000
02F402FD0000
02F400BF4000
02F4002FD000
03F4001FF400
5BFD405FFE40
FFFFD0FFFFD0
ENDCHAR
STARTCHAR L
ENCODING 76
SWIDTH 585 0
DWIDTH 19 0
BBX 17 22 1 0
BITMAP
BFFFD00000
5BFE400000
03F4000000
02F4000000
02F4000000
02F4000000
02F4000000
02F4000000
02F4000000
02F4000000
02F4000000
02F4000000
02F4000000
02F4000000
02F4000000
02F4000040
02F40000C0
02F40002C0
02F4000380
03F4000B80
07F9556F40
BFFFFFFF40
ENDCHAR
STARTCHAR M
ENCODING 77
SWIDTH 895 0
DWIDTH 29 0
BBX 27 22 1 0
BITMAP
FFF8000000FFF4
5FFC000002FF90
07FD000003FE00
03FF000007FD00
03BF40000BBD00
03AF80000E7D00
039FC0002D7D00
038FE0003C7D00
0387F000747D00
0383F400B07D00
0382F800E07D00
0381FC02D07D00
0380BE03C07D00
03807F07407D00
03803F4B007D00
03802F8E007D00
03800FED007D00
03800BF8007D00
038007F4007D00
078003F000BE00
5FE401E006FF50
FFFD00C01FFFF4
ENDCHAR
STARTCHAR N
ENCODING 78
SWIDTH 742 0
DWIDTH 24 0
BBX 22 22 1 0
BITMAP
FFE0000BFFF0
6FF40005BF50
07FD00003D00
03FF00002C00
03FF80002C00
03AFD0002C00
038FF4002C00
0387FC002C00
0381FE002C00
0380BF402C00
03802FC02C00
03800FE02C00
038007F82C00
038002FD2C00
038000BF2C00
0380003FAC00
0380001FFC00
0380000BFC00
03800002FC00
07800000FC00
5FE400007C00
FFFD00001C00
ENDCHAR
STARTCHAR O
ENCODING 79
SWIDTH 738 0
DWIDTH 24 0
BBX 21 22 1 0
BITMAP
0006BFE40000
002F95BF8000
01FD000BE000
03F00002F800
0BD00000FD00
1FC000007F00
2F8000003F40
3F4000002F80
3F0000002FC0
7F0000001FC0
7F0000001FC0
7F0000001FC0
7F0000001FC0
7F4000002F80
3F4000002F80
2F8000003F40
1FC000007E00
0BD00000BD00
03F00001F800
01FD0007E000
002F956F4000
0006BFE40000
ENDCHAR
STARTCHAR P
ENCODING 80
SWIDTH 569 0
DWIDTH 18 0
BBX 17 22 1 0
BITMAP
7FFFFA4000
07F95BF800
02F401FE00
02F4007F00
02F4003F40
02F4002F40
02F4002F40
02F4003F00
02F4007E00
02F400BD00
02F417F400
02FFFE4000
02F5400000
02F4000000
02F4000000
02F4000000
02F4000000
02F4000000
02F4000000
03F4000000
1BFD400000
BFFFD00000
ENDCHAR
STARTCHAR Q
ENCODING 81
SWIDTH 737 0
DWIDTH 24 0
BBX 22 28 1 -6
BITMAP
0006BFE40000
002F95BF4000
01FD000BE000
03F00002F800
0BD00000FD00
1FC000007F00
2F8000003F40
3F4000002F80
7F0000002F80
7F0000001FC0
7F0000001FC0
7F0000001FC0
7F0000001FC0
7F0000002F80
3F4000002F40
2F8000003F40
1FC000007E00
0FD00000BD00
07F00001F800
01FD0007E000
007F956F4000
0006FFF40000
00000BF40000
000003FD0000
000001FF4000
0000007FF500
00000006FFF0
000000000150
ENDCHAR
STARTCHAR R
ENCODING 82
SWIDTH 659 0
DWIDTH 21 0
BBX 21 22 1 0
BITMAP
BFFFFE400000
07F95BF80000
03F400FE0000
02F4007F0000
02F4003F4000
02F4002F4000
02F4002F4000
02F4003F4000
02F4007E0000
02F401FC0000
02F41BE00000
02FFFE400000
02F5BE000000
02F42F800000
02F40FE00000
02F407F40000
02F402FC0000
02F400FE0000
02F4007F4000
03F4002FD000
1BFD400FF900
BFFFD007FF40
ENDCHAR
STARTCHAR S
ENCODING 83
SWIDTH 504 0
DWIDTH 16 0
BBX 14 22 1 0
BITMAP
01BFE5C0
0BD5BFC0
2F000BC0
3D0003C0
7D0002C0
7E0001C0
7F4000C0
3FD00000
1FF80000
0BFF4000
01FFF400
002FFE00
0006FF80
00007FD0
00001FE0
D00007F0
A00003F0
B00003F0
B40003E0
BD000BC0
BF956F40
A5BFE400
ENDCHAR
STARTCHAR T
ENCODING 84
SWIDTH 603 0
DWIDTH 19 0
BBX 19 22 0 0
BITMAP
7FFFFFFFF8
7E55FD56F8
7800FC0078
7000FC0028
6000FC0018
5000FC0018
0000FC0000
0000FC0000
0000FC0000
0000FC0000
0000FC0000
0000FC0000
0000FC0000
0000FC0000
0000FC0000
0000FC0000
0000FC0000
0000FC0000
0000FD0000
0000FD0000
0016FF5000
003FFFF400
ENDCHAR
STARTCHAR U
ENCODING 85
SWIDTH 752 0
DWIDTH 24 0
BBX 24 22 0 0
BITMAP
7FFFF001FFFD
1BFE50006FE4
01FC00000B80
01F800000780
01F800000780
01F800000740
01F800000740
01F800000740
01F800000740
01F800000740
01F800000740
01F800000740
01F800000740
01F800000740
00F800000740
00FC00000B40
00FC00000B00
00BE00000E00
007F40002D00
002FE405F800
000BFFFFE000
0000AFFA0000
ENDCHAR
STARTCHAR V
ENCODING 86
SWIDTH 680 0
DWIDTH 22 0
BBX 23 22 -1 0
BITMAP
7FFFD000BFFC
1BFE40005FE4
03FC00000B80
01FD00000B00
00FE00000E00
007F00002D00
003F40003C00
002F80007400
001FD000B000
000BE000E000
0007F001D000
0003F402C000
0002F8074000
0000FD0B0000
0000BE0E0000
00007F1D0000
00003F6C0000
00001FB40000
00000FF00000
00000BE00000
000007D00000
000002C00000
ENDCHAR
STARTCHAR W
ENCODING 87
SWIDTH 944 0
DWIDTH 30 0
BBX 32 22 -1 0
BITMAP
7FFFC2FFFF007FFD
1FFD406FF5001FE4
03FC000FD00007C0
01FC000BE0000740
00FD0003F0000B00
00BE0002F4000E00
003F4001F8001D00
002F8001FC002C00
001FC002FE003800
000FD007BF007400
000BE00B3F40B000
0007F00E2F80E000
0002F41D0FC1D000
0001FC2C0BD2C000
0000FD3407E38000
0000BE7003F74000
00007FE002FF0000
00003FD001FE0000
00001FC000FD0000
00000F8000BC0000
00000B4000380000
0000070000240000
ENDCHAR
STARTCHAR X
ENCODING 88
SWIDTH 664 0
DWIDTH 21 0
BBX 21 22 0 0
BITMAP
7FFFD02FFFC0
1BFE4007FD40
02FE0002E000
00BF0007C000
003F800B4000
001FC01D0000
000BE0780000
0003F4B00000
0001FAD00000
0000BF400000
00007F400000
00007FC00000
0000EBE00000
0002C7F40000
000742FC0000
001E00FE0000
003C007F4000
00B4002FC000
01E0001FE000
07D0000FF400
6FE4005FFE40
FFFC00FFFFC0
ENDCHAR
STARTCHAR Y
ENCODING 89
SWIDTH 647 0
DWIDTH 21 0
BBX 21 22 0 0
BITMAP
FFFF400FFFC0
6FF90006FD40
0BF40000F000
02F80002D000
00FD00038000
007F000B0000
002F801D0000
001FD02C0000
000BF0740000
0003F4E00000
0001FEC00000
0000BF800000
00007F000000
00003F000000
00003F000000
00003F000000
00003F000000
00003F000000
00003F000000
00007F400000
0005FFD40000
001FFFFD0000
ENDCHAR
STARTCHAR Z
ENCODING 90
SWIDTH 594 0
DWIDTH 19 0
BBX 17 22 1 0
BITMAP
2FFFFFFFC0
2F95557F40
3D0000FE00
380002FC00
340007F400
20000BE000
00001FD000
00003F8000
0000BF0000
0001FD0000
0003F80000
000BF00000
001FD00000
003F800000
00BF000000
01FD000000
03F80000C0
0BF00001C0
1FD0000280
3F80000780
BF55556F40
FFFFFFFF40
ENDCHAR
STARTCHAR bracketleft
ENCODING 91
SWIDTH 349 0
DWIDTH 11 0
BBX 7 32 3 -7
BITMAP
FFF8
F950
F400
F400
F400
F400
F400
F400
F400
F400
F400
F400
F400
F400
F400
F400
F400
F400
F400
F400
F400
F400
F400
F400
F400
F400
F400
F400
F400
F400
FFF8
5550
ENDCHAR
STARTCHAR backslash
ENCODING 92
SWIDTH 385 0
DWIDTH 12 0
BBX 10 27 1 -3
BITMAP
500000
B40000
780000
380000
2C0000
1D0000
0E0000
0B0000
074000
038000
02C000
01D000
00E000
00B000
007400
007800
003C00
002D00
001E00
000F00
000B00
000740
000380
0002C0
0001D0
0000E0
0000B0
ENDCHAR
STARTCHAR bracketright
ENCODING 93
SWIDTH 349 0
DWIDTH 11 0
BBX 8 32 1 -7
BITMAP
7FFD
157D
007D
007D
007D
007D
007D
007D
007D
007D
007D
007D
007D
007D
007D
007D
007D
007D
007D
007D
007D
007D
007D
007D
007D
007D
007D
007D
007D
007D
7FFD
1554
ENDCHAR
STARTCHAR asciicircum
ENCODING 94
SWIDTH 480 0
DWIDTH 15 0
BBX 13 12 1 10
BITMAP
001E0000
003F4000
00778000
00F2D000
01D0E000
03C0B400
07403800
0B002D00
1E001E00
2C000B40
78000780
B00002C0
ENDCHAR
STARTCHAR underscore
ENCODING 95
SWIDTH 512 0
DWIDTH 16 0
BBX 17 2 0 -5
BITMAP
FFFFFFFF40
5555555500
ENDCHAR
STARTCHAR grave
ENCODING 96
SWIDTH 222 0
DWIDTH 7 0
BBX 5 5 1 17
BITMAP
FC00
7E00
1F00
0740
02C0
ENDCHAR
STARTCHAR a
ENCODING 97
SWIDTH 480 0
DWIDTH 15 0
BBX 14 16 1 0
BITMAP
01BF9000
0F96F400
2E00FC00
3E00BC00
3D007D00
04007D00
0000BD00
001BFD00
06E47D00
1F407D00
7D007D00
BC007D00
BC007D00
BD00FD20
3F5A3FE0
1BE41F80
ENDCHAR
STARTCHAR b
ENCODING 98
SWIDTH 522 0
DWIDTH 17 0
BBX 16 24 0 0
BITMAP
01400000
6FD00000
6FD00000
0BD00000
07D00000
07D00000
07D00000
07D00000
07D1BE40
07D7FFE0
07ED5BF4
07E001FC
07D000FD
07D000BD
07D0007E
07D0007E
07D0007D
07D0007D
07D000BC
07D000B8
07D000F4
07E002E0
07F95F40
01AFE800
ENDCHAR
STARTCHAR c
ENCODING 99
SWIDTH 446 0
DWIDTH 14 0
BBX 13 16 1 0
BITMAP
00AFE400
07D5FD00
1F007F00
3D003F00
7C001E00
B8000000
B8000000
F8000000
F8000000
FC000000
BC000000
7E000140
3F400700
1FE56D00
0BFFF800
01BF9000
ENDCHAR
STARTCHAR d
ENCODING 100
SWIDTH 539 0
DWIDTH 17 0
BBX 16 24 1 0
BITMAP
00000140
00006FD0
00006FD0
00000BD0
000007D0
000007D0
000007D0
000007D0
006FEBD0
02E57FD0
0F400FD0
2E000BD0
3D0007D0
7C0007D0
BC0007D0
BC0007D0
FC0007D0
FC0007D0
BC0007D0
BD0007D0
7F000BD0
2FD56FD0
0FFFE7F9
02FE47A4
ENDCHAR
STARTCHAR e
ENCODING 101
SWIDTH 464 0
DWIDTH 15 0
BBX 13 16 1 0
BITMAP
00BF9000
0796F800
1E007D00
3D002F00
7C001F40
B8001F80
BFFFFF80
F9555540
F8000000
BC000000
BD000000
7E000040
3F800240
1FE55E00
07FFF800
00AF9000
ENDCHAR
STARTCHAR f
ENCODING 102
SWIDTH 307 0
DWIDTH 10 0
BBX 12 24 0 0
BITMAP
000BF9
0039BF
00B02F
01F009
01F000
02F000
02F000
02F000
7FFFE0
16F550
02F000
02F000
02F000
02F000
02F000
02F000
02F000
02F000
02F000
02F000
02F000
03F000
1BFD40
7FFFD0
ENDCHAR
STARTCHAR g
ENCODING 103
SWIDTH 484 0
DWIDTH 15 0
BBX 15 23 0 -7
BITMAP
006FFFFC
02F5BF54
0BC01F80
0F800FC0
1F800BD0
1F800BD0
1F800BC0
0FC00F80
07E46F00
01FFF800
02410000
0B000000
1F400000
1FFFAA40
0FFFFFF0
03FFFFF8
060001B8
1D000038
3D000028
7D000034
3E0000A0
2FE55B40
06FFA400
ENDCHAR
STARTCHAR h
ENCODING 104
SWIDTH 577 0
DWIDTH 18 0
BBX 17 24 1 0
BITMAP
0140000000
AFC0000000
AFC0000000
0FC0000000
0BC0000000
0BC0000000
0BC0000000
0BC0000000
0BC1BE4000
0BCBFFD000
0BED1BF000
0BE002F000
0BC001F400
0BC001F400
0BC001F400
0BC001F400
0BC001F400
0BC001F400
0BC001F400
0BC001F400
0BC001F400
0FC001F800
6FE406FD40
FFFD2FFF80
ENDCHAR
STARTCHAR i
ENCODING 105
SWIDTH 285 0
DWIDTH 9 0
BBX 8 22 1 0
BITMAP
0B80
0FD0
0FD0
0780
0000
0000
5BC0
BFC0
0FC0
0BC0
0BC0
0BC0
0BC0
0BC0
0BC0
0BC0
0BC0
0BC0
0BC0
0BC0
5FE4
FFFD
ENDCHAR
STARTCHAR j
ENCODING 106
SWIDTH 263 0
DWIDTH 8 0
BBX 10 29 -3 -7
BITMAP
000B80
001FD0
001FD0
000B80
000000
000000
005BC0
00BFC0
000FC0
000BC0
000BC0
000BC0
000BC0
000BC0
000BC0
000BC0
000BC0
000BC0
000BC0
000BC0
000BC0
000BC0
000B80
000B80
000F80
640F40
FC0F00
BF6D00
2FE000
ENDCHAR
STARTCHAR k
ENCODING 107
SWIDTH 542 0
DWIDTH 17 0
BBX 17 24 1 0
BITMAP
0140000000
AFC0000000
AFC0000000
0FC0000000
0BC0000000
0BC0000000
0BC0000000
0BC0000000
0BC0BFFC00
0BC06FD400
0BC02E0000
0BC0780000
0BC1D00000
0BC7400000
0BDD000000
0BFF400000
0BDFC00000
0BC7F00000
0BC2F80000
0BC0BE0000
0BC02F8000
0FC00FD000
6FE41BF900
FFFD2FFF40
ENDCHAR
STARTCHAR l
ENCODING 108
SWIDTH 283 0
DWIDTH 9 0
BBX 8 24 1 0
BITMAP
0140
AFC0
AFC0
0FC0
0BC0
0BC0
0BC0
0BC0
0BC0
0BC0
0BC0
0BC0
0BC0
0BC0
0BC0
0BC0
0BC0
0BC0
0BC0
0BC0
0BC0
0FC0
6FE4
FFFD
ENDCHAR
STARTCHAR m
ENCODING 109
SWIDTH 852 0
DWIDTH 27 0
BBX 26 16 1 0
BITMAP
6B81BE406F9000
5F8A5BD296F400
0BF403FD00F800
0BD002F400BC00
0BC002F0007D00
0BC002F0007D00
0BC002F0007D00
0BC002F0007D00
0BC002F0007D00
0BC002F0007D00
0BC002F0007D00
0BC002F0007D00
0BC002F0007D00
0FC002F400BD00
6FE417F905FF40
FFFD3FFF8BFFE0
ENDCHAR
STARTCHAR n
ENCODING 110
SWIDTH 576 0
DWIDTH 18 0
BBX 17 16 1 0
BITMAP
1BC1BE4000
FFC7FFD000
0FE90BF000
0BE002F000
0BC001F400
0BC001F400
0BC001F400
0BC001F400
0BC001F400
0BC001F400
0BC001F400
0BC001F400
0BC001F400
0BC001F400
5FE406FD40
FFFD2FFF80
ENDCHAR
STARTCHAR o
ENCODING 111
SWIDTH 514 0
DWIDTH 16 0
BBX 15 16 1 0
BITMAP
006FE400
07E5BE00
1F401F80
2E0007D0
7D0003F0
BD0002F0
BC0002F4
FC0002F4
FC0002F4
BD0002F4
BD0002F0
7E0003E0
3F0007D0
1F800B80
07E56E00
00AFE400
ENDCHAR
STARTCHAR p
ENCODING 112
SWIDTH 537 0
DWIDTH 17 0
BBX 16 23 0 -7
BITMAP
16E06F80
7FE2FFF0
03EA57F8
03F400FD
03E0007E
03E0003F
03E0003F
03E0003F
03E0003F
03E0003F
03E0003E
03E0007D
03E000B8
03F801F0
03FE5BD0
03E6FA00
03E00000
03E00000
03E00000
03E00000
03F00000
1BF94000
7FFF8000
ENDCHAR
STARTCHAR q
ENCODING 113
SWIDTH 521 0
DWIDTH 17 0
BBX 16 23 1 -7
BITMAP
006FE5C0
02E5BFC0
0F401FC0
2E000BC0
3D000BC0
7C000BC0
BC000BC0
F8000BC0
FC000BC0
FC000BC0
BC000BC0
BE000BC0
7F000BC0
2FD56FC0
0FFFDBC0
02FE4BC0
00000BC0
00000BC0
00000BC0
00000BC0
00000BD0
00006FE4
0002FFFD
ENDCHAR
STARTCHAR r
ENCODING 114
SWIDTH 380 0
DWIDTH 12 0
BBX 11 16 1 0
BITMAP
06C1F4
BFC7FC
5FCFFC
0BE4B4
0BE000
0BC000
0BC000
0BC000
0BC000
0BC000
0BC000
0BC000
0BC000
0BC000
5FE500
FFFF00
ENDCHAR
STARTCHAR s
ENCODING 115
SWIDTH 395 0
DWIDTH 13 0
BBX 11 16 1 0
BITMAP
06FE60
2E5BE0
7800E0
B800A0
BC0030
7F4000
3FE000
0BFE00
01FFC0
002FF0
9003F8
9000F8
A000F8
B400F4
BE57E0
96FE40
ENDCHAR
STARTCHAR t
ENCODING 116
SWIDTH 315 0
DWIDTH 10 0
BBX 9 21 1 0
BITMAP
004000
028000
078000
0B8000
2F8000
BFFF40
5F9500
0F8000
0F8000
0F8000
0F8000
0F8000
0F8000
0F8000
0F8000
0F8000
0F8000
0F8000
0FC180
0BFF00
02F800
ENDCHAR
STARTCHAR u
ENCODING 117
SWIDTH 570 0
DWIDTH 18 0
BBX 17 16 1 0
BITMAP
AB802AF000
AF801BF000
1F8002F000
0F8002F000
0F8002F000
0F8002F000
0F8002F000
0F8002F000
0F8002F000
0F8002F000
0F8002F000
0F8002F000
0FC007F000
0BE01EF400
03FFF5FE40
01BE41E900
ENDCHAR
STARTCHAR v
ENCODING 118
SWIDTH 481 0
DWIDTH 15 0
BBX 17 16 -1 0
BITMAP
7FFD02FFC0
1FF4017E40
07E0003C00
03F0007400
01F400B000
00F800E000
00BC01D000
007E02C000
003F034000
002F470000
001F8A0000
000BCD0000
0007EC0000
0003F40000
0002F00000
0001E00000
ENDCHAR
STARTCHAR w
ENCODING 119
SWIDTH 749 0
DWIDTH 24 0
BBX 26 16 -1 0
BITMAP
BFFD1FFF40FFD0
1FF407FD006F40
07E001F8001D00
03F000FC002C00
01F400BD003800
00F800BE007400
00BD00FF00B000
007E029F40D000
003F034F81C000
002F470BC28000
001F8A07D34000
000BCD03E70000
0007EC02FA0000
0003F401FD0000
0002F000B80000
0001E000740000
ENDCHAR
STARTCHAR x
ENCODING 120
SWIDTH 479 0
DWIDTH 15 0
BBX 16 16 0 0
BITMAP
BFFD1FFC
5FF407E4
07F00780
02F40A00
00FC1C00
007E3400
002FD000
000FC000
000BE000
002DF800
0074BD00
00E07F00
02C02F80
0B400FD0
6F401FF4
FFD07FFD
ENDCHAR
STARTCHAR y
ENCODING 121
SWIDTH 483 0
DWIDTH 15 0
BBX 17 23 -1 -7
BITMAP
7FFD02FF80
1FF4017E40
07E0003800
03F0007400
02F800B000
00FC00E000
00BD01D000
003F02C000
002F434000
001F870000
000BCA0000
0007DD0000
0003FC0000
0001F80000
0000F40000
0000E00000
0000D00000
0002C00000
0003800000
000B000000
1F5D000000
2FF8000000
1FD0000000
ENDCHAR
STARTCHAR z
ENCODING 122
SWIDTH 458 0
DWIDTH 15 0
BBX 13 16 1 0
BITMAP
7FFFFF40
7E55BF00
7400BD00
6001F800
6003F000
000BD000
001F8000
003F4000
00BD0000
01F80000
03F40140
0BE00280
1FC00340
3F400B40
BE556F40
FFFFFF40
ENDCHAR
STARTCHAR braceleft
ENCODING 123
SWIDTH 327 0
DWIDTH 10 0
BBX 9 32 0 -7
BITMAP
001BC0
00BD40
01F000
02E000
03D000
03D000
03E000
02E000
02E000
02F000
01F000
01F000
01E000
02D000
1B8000
7D0000
2F4000
02D000
01E000
01F000
01F000
02F000
02E000
02E000
02E000
03E000
03D000
02E000
02F000
00B900
002FC0
000040
ENDCHAR
STARTCHAR bar
ENCODING 124
SWIDTH 267 0
DWIDTH 9 0
BBX 3 31 3 -7
BITMAP
60
B4
B4
B4
B4
B4
B4
B4
B4
B4
B4
B4
B4
B4
B4
B4
B4
B4
B4
B4
B4
B4
B4
B4
B4
B4
B4
B4
B4
B4
B4
ENDCHAR
STARTCHAR braceright
ENCODING 125
SWIDTH 327 0
DWIDTH 10 0
BBX 9 31 1 -6
BITMAP
BA0000
1BD000
02F000
00F400
00F400
00F400
00F400
01F400
01F000
01F000
01F000
01E000
01E000
00F000
007900
000B80
002E40
00B400
01E000
01E000
01F000
01F000
01F000
01F400
00F400
00F400
00F400
00F400
01F000
17D000
BE4000
ENDCHAR
STARTCHAR asciitilde
ENCODING 126
SWIDTH 557 0
DWIDTH 18 0
BBX 16 6 1 6
BITMAP
00000004
07F9001E
2FFFD57D
7D5BFFF4
B4006F90
10000000
ENDCHAR
STARTCHAR uni00A0
ENCODING 160
SWIDTH 235 0
DWIDTH 8 0
BBX 1 1 0 0
BITMAP
00
ENDCHAR
STARTCHAR exclamdown
ENCODING 161
SWIDTH 282 0
DWIDTH 9 0
BBX 5 23 2 -7
BITMAP
2E00
7F40
7F40
2E00
0000
0000
0C00
0D00
1D00
1D00
1D00
1E00
2E00
2E00
2E00
3F00
3F00
3F00
3F00
3F40
3F40
3F00
0500
ENDCHAR
STARTCHAR cent
ENCODING 162
SWIDTH 495 0
DWIDTH 16 0
BBX 13 23 1 -1
BITMAP
00034000
00034000
00034000
001BE400
01E7BF00
07476F80
1E071F80
2D070B80
3C070000
7C070000
7C070000
BC070000
7D070000
7E070000
3F0B0040
2F8A01C0
1FEA1B40
07FFFE00
01BFF400
000A0000
000A0000
000A0000
00050000
ENDCHAR
STARTCHAR sterling
ENCODING 163
SWIDTH 495 0
DWIDTH 16 0
BBX 15 22 0 0
BITMAP
0001BF80
00075BF4
001D02F8
003C00B8
007C0010
007C0000
00BC0000
00BC0000
00BD0000
00BD0000
1FFFFF00
057E5500
003E0000
003E0000
003E0000
003E0000
002D0000
1FFC0008
75BE001C
A07FD5B4
75EBFFE0
2F80BE40
ENDCHAR
STARTCHAR currency
ENCODING 164
SWIDTH 617 0
DWIDTH 20 0
BBX 18 17 1 1
BITMAP
2000000180
7D000007D0
2F5BFA5F40
07FD5BFD00
02E000B800
0780003C00
0B40002D00
0B00001E00
0F00000E00
0F00001E00
0B40001D00
0780003C00
02D000B800
07F906FC00
1F6FFE6F00
7D004007D0
2400000180
ENDCHAR
STARTCHAR yen
ENCODING 165
SWIDTH 495 0
DWIDTH 16 0
BBX 16 21 0 0
BITMAP
FFFC0BFE
7FE401F9
1FD000E0
0BE001C0
07F40280
02F80740
00FD0A00
00BE0D00
003F5C00
001FB400
000FF000
0BFFFFE0
015BE540
0007E000
0007E000
0BFFFFE0
015BE540
0007E000
000BE000
005FF900
00FFFF40
ENDCHAR
STARTCHAR brokenbar
ENCODING 166
SWIDTH 267 0
DWIDTH 9 0
BBX 3 24 3 -1
BITMAP
B4
B4
B4
B4
B4
B4
B4
B4
B4
B4
00
00
00
00
B4
B4
B4
B4
B4
B4
B4
B4
B4
B4
ENDCHAR
STARTCHAR section
ENCODING 167
SWIDTH 491 0
DWIDTH 16 0
BBX 12 29 2 -7
BITMAP
01BF80
0795F0
1E0078
2D0078
2E00B8
2F0064
0F8000
0BF000
02FD00
02FF40
192FD0
340BF4
7402F8
7800BC
7C003D
3F001D
2FC01C
0BF034
02FE90
00BF40
002FC0
0007E0
2401F4
BC00F4
B800B4
7400F0
2D06D0
0BFE40
005000
ENDCHAR
STARTCHAR dieresis
ENCODING 168
SWIDTH 392 0
DWIDTH 13 0
BBX 11 4 1 18
BITMAP
7801E0
FD03F4
FD03F4
7801E0
ENDCHAR
STARTCHAR copyright
ENCODING 169
SWIDTH 781 0
DWIDTH 25 0
BBX 23 24 1 -1
BITMAP
0001BFF90000
001B955B9000
00780000B400
01D000001D00
074000000740
0A0000000280
1C006FE700D0
2802E56F00A0
340780070070
300F40030030
700F40000034
701F00000034
701F00000034
301F40000030
340F80000070
280BC00140A0
1C02F41700D0
0E00BFF802C0
074001000740
02D000001E00
00B400007800
001F5017D000
0001BFF90000
000001000000
ENDCHAR
STARTCHAR ordfeminine
ENCODING 170
SWIDTH 410 0
DWIDTH 13 0
BBX 12 13 1 8
BITMAP
06FE00
2D0B80
7C03D0
7C03D0
0003D0
001BD0
06E7D0
2D03D0
B803D0
B803D0
BC07E1
7FFAFE
2FD1F8
ENDCHAR
STARTCHAR guillemotleft
ENCODING 171
SWIDTH 517 0
DWIDTH 17 0
BBX 14 13 1 1
BITMAP
001C00A0
007402C0
01E00B40
07802E00
1F00B800
7D02F000
FC03E000
7E01F400
1F407C00
03D01E00
00F00780
003801D0
00080060
ENDCHAR
STARTCHAR logicalnot
ENCODING 172
SWIDTH 720 0
DWIDTH 23 0
BBX 19 11 2 2
BITMAP
FFFFFFFFF4
FFFFFFFFF4
00000000F4
00000000F4
00000000F4
00000000F4
00000000F4
00000000F4
00000000F4
00000000F4
0000000054
ENDCHAR
STARTCHAR uni00AD
ENCODING 173
SWIDTH 315 0
DWIDTH 10 0
BBX 8 2 1 7
BITMAP
BFFE
BFFE
ENDCHAR
STARTCHAR registered
ENCODING 174
SWIDTH 413 0
DWIDTH 13 0
BBX 11 13 1 11
BITMAP
02FE00
0E56D0
240070
629918
818708
818708
81E808
819D08
518B18
3692A4
1D01D0
06FF40
001000
ENDCHAR
STARTCHAR macron
ENCODING 175
SWIDTH 350 0
DWIDTH 11 0
BBX 10 2 1 18
BITMAP
FFFFD0
555540
ENDCHAR
STARTCHAR degree
ENCODING 176
SWIDTH 409 0
DWIDTH 13 0
BBX 11 11 1 12
BITMAP
02FE00
0F57C0
2D00E0
3800B4
780074
740074
7800B4
3C00F0
1F46D0
06FF40
001000
ENDCHAR
STARTCHAR plusminus
ENCODING 177
SWIDTH 720 0
DWIDTH 23 0
BBX 19 20 2 -1
BITMAP
0000B80000
0000B80000
0000B80000
0000B80000
0000B80000
0000B80000
0000B80000
FFFFFFFFFC
FFFFFFFFFC
0000B80000
0000B80000
0000B80000
0000B80000
0000B80000
0000B80000
0000B80000
0000000000
0000000000
FFFFFFFFFC
FFFFFFFFFC
ENDCHAR
STARTCHAR twosuperior
ENCODING 178
SWIDTH 373 0
DWIDTH 12 0
BBX 11 16 1 8
BITMAP
06F900
2FFF80
A00BD0
8007E0
0003E0
0003D0
0007C0
000B40
001E00
003800
00E000
038000
0E0024
380070
BFFFF0
FFFFE0
ENDCHAR
STARTCHAR threesuperior
ENCODING 179
SWIDTH 374 0
DWIDTH 12 0
BBX 10 16 1 8
BITMAP
07F900
2FFF40
601F80
400B80
000B80
000E00
007800
07FD00
006F80
0007D0
0002E0
0002E0
0002E0
5003C0
F80B40
7FE400
ENDCHAR
STARTCHAR acute
ENCODING 180
SWIDTH 222 0
DWIDTH 7 0
BBX 5 5 1 17
BITMAP
0FC0
1F40
3D00
7800
A000
ENDCHAR
STARTCHAR uni00B5
ENCODING 181
SWIDTH 556 0
DWIDTH 18 0
BBX 17 23 1 -7
BITMAP
2F4007E000
2F4007D000
2F0007D000
2F0007C000
2E0007C000
2E00078000
2E00078000
2D000B4000
2D000F4000
2D000F4000
2D002F4000
2E00374000
2F00A78040
3FD6D3E680
3DFF82FF00
7C7E01F800
7C00000000
7C00000000
7C00000000
7C00000000
BD00000000
BD00000000
6400000000
ENDCHAR
STARTCHAR paragraph
ENCODING 182
SWIDTH 605 0
DWIDTH 19 0
BBX 17 27 1 -5
BITMAP
00AFFFFF40
07E6E6F400
1F42D2E000
2E02D2E000
3E02D2E000
3D02D2E000
7D02D2E000
3D02D2E000
3E02D2E000
2E02D2E000
1F42D2E000
0BC2D2E000
01BBD2E000
0006D2E000
0002D2E000
0002D2E000
0002D2E000
0002D2E000
0002D2E000
0002D2E000
0002D2E000
0002D2E000
0002D2E000
0002D2E000
0003D2E000
001BD2F900
006A91AA40
ENDCHAR
STARTCHAR periodcentered
ENCODING 183
SWIDTH 282 0
DWIDTH 9 0
BBX 5 4 2 7
BITMAP
2E00
7F40
7F40
2E00
ENDCHAR
STARTCHAR cedilla
ENCODING 184
SWIDTH 247 0
DWIDTH 8 0
BBX 6 8 1 -8
BITMAP
0800
1800
2F80
05E0
00F0
41E0
7F80
0400
ENDCHAR
STARTCHAR onesuperior
ENCODING 185
SWIDTH 343 0
DWIDTH 11 0
BBX 9 16 1 8
BITMAP
06E000
BFE000
42E000
02E000
02E000
02E000
02E000
02E000
02E000
02E000
02E000
02E000
02E000
02E000
07F400
7FFF80
ENDCHAR
STARTCHAR ordmasculine
ENCODING 186
SWIDTH 432 0
DWIDTH 14 0
BBX 12 13 1 8
BITMAP
01BE40
1F41F0
3D00B8
7C003D
B8003E
F8002E
F4002F
F8002E
B8003E
BC003D
3D0078
1F41E0
02FE40
ENDCHAR
STARTCHAR guillemotright
ENCODING 187
SWIDTH 517 0
DWIDTH 17 0
BBX 14 13 2 1
BITMAP
D0060000
B4028000
2D00E000
0F407800
07D02E00
02F40B80
00F807D0
02F00F80
0B802E00
1E00B800
3801E000
A0038000
80050000
ENDCHAR
STARTCHAR onequarter
ENCODING 188
SWIDTH 861 0
DWIDTH 28 0
BBX 26 24 1 -1
BITMAP
00000000060000
015000000E0000
6FD000001D0000
03D00000380000
03D00000B00000
03D00001D00000
03D00002C00000
03D00007400000
03D0000E000000
03D0002C001900
03D00038003D00
03D000B000BD00
03D001D002FD00
07E00380076D00
7FFF07400E2D00
15550E00282D00
00002C00B02D00
00007401D02D00
0000B003FFFFE0
0001D003FFFFE0
00038000002D00
000B4000002D00
000E0000002D00
002C0000001400
ENDCHAR
STARTCHAR onehalf
ENCODING 189
SWIDTH 889 0
DWIDTH 28 0
BBX 27 24 1 -1
BITMAP
000000000B0000
06D000001D0000
BFD000002C0000
43D00000740000
03D00000E00000
03D00002D00000
03D00003800000
03D0000B000000
03D0001D000000
03D0002801A900
03D000740BFFC0
03D000E02907E0
03D002C05002F0
07E007800002F0
7FFF0B000002E0
15551D000003D0
00003800000B40
00007400002D00
0000E00000B400
0002C000028018
000740000E0074
000B00007FFFF4
001D0000BFFFF0
00140000000000
ENDCHAR
STARTCHAR threequarters
ENCODING 190
SWIDTH 861 0
DWIDTH 28 0
BBX 26 24 1 -1
BITMAP
00000000060000
0BF900000E0000
296F40001D0000
900B8000380000
000B8000B00000
000F0001D00000
00780002C00000
07F90007400000
016F800E000000
0007D02C001900
0003D038003D00
0003D0B000BD00
5003C1D002FD00
FD1B4380076D00
BFF907401E2D00
05000E00382D00
00002C00B02D00
00007401D02D00
0000B003FFFFE0
0001D003FFFFE0
00038000002D00
000B4000002D00
000E0000002D00
002C0000001400
ENDCHAR
STARTCHAR questiondown
ENCODING 191
SWIDTH 411 0
DWIDTH 13 0
BBX 12 23 1 -7
BITMAP
007800
00FE00
00FD00
007800
000000
000000
003400
003400
007000
00E000
02D000
078000
1F0000
2E0000
7D0000
BC0014
FC00BC
F800BD
FC007D
BD003C
2F41B4
07FF90
001400
ENDCHAR
STARTCHAR Agrave
ENCODING 192
SWIDTH 718 0
DWIDTH 23 0
BBX 23 27 0 0
BITMAP
0000FD000000
00002F400000
000007D00000
000000B00000
000000000000
00000B400000
00000F800000
00001FC00000
00002FD00000
00007BF00000
0000B3F40000
0000E2F80000
0001D1FC0000
0003C0BE0000
0007807F0000
000B403F4000
000F002FC000
001D001FD000
003C000FE000
007FFFFFF000
00B55557F800
00F00002FC00
02D00001FD00
03C00000FF00
0B800000BF40
6FD40005FFE4
FFF8000BFFFC
ENDCHAR
STARTCHAR Aacute
ENCODING 193
SWIDTH 718 0
DWIDTH 23 0
BBX 23 27 0 0
BITMAP
000002F80000
00000BE00000
00001E400000
000078000000
000000000000
00000B400000
00000F800000
00001FC00000
00002FD00000
00007BF00000
0000B3F40000
0000E2F80000
0001D1FC0000
0003C0BE0000
0007807F0000
000B403F4000
000F002FC000
001D001FD000
003C000FE000
007FFFFFF000
00B55557F800
00F00002FC00
02D00001FD00
03C00000FF00
0B800000BF40
6FD40005FFE4
FFF8000BFFFC
ENDCHAR
STARTCHAR Acircumflex
ENCODING 194
SWIDTH 718 0
DWIDTH 23 0
BBX 23 28 0 0
BITMAP
000006400000
00002FD00000
00007EF00000
0001E0780000
0003800A0000
000000000000
00000B400000
00000F800000
00001FC00000
00002FD00000
00007BF00000
0000B3F40000
0000E2F80000
0001D1FC0000
0003C0BE0000
0007807F0000
000B403F4000
000F002FC000
001D001FD000
003C000FE000
007FFFFFF000
00B55557F800
00F00002FC00
02D00001FD00
03C00000FF00
0B800000BF40
6FD40005FFE4
FFF8000BFFFC
ENDCHAR
STARTCHAR Atilde
ENCODING 195
SWIDTH 718 0
DWIDTH 23 0
BBX 23 27 0 0
BITMAP
0001FE424000
0007FFFF0000
000A06F90000
000000000000
000000000000
00000B400000
00000F800000
00001FC00000
00002FD00000
00007BF00000
0000B3F40000
0000E2F80000
0001D1FC0000
0003C0BE0000
0007807F0000
000B403F4000
000F002FC000
001D001FD000
003C000FE000
007FFFFFF000
00B55557F800
00F00002FC00
02D00001FD00
03C00000FF00
0B800000BF40
6FD40005FFE4
FFF8000BFFFC
ENDCHAR
STARTCHAR Adieresis
ENCODING 196
SWIDTH 718 0
DWIDTH 23 0
BBX 23 27 0 0
BITMAP
0007801E0000
000FD03F8000
000FD03F8000
0007801E0000
000000000000
00000B400000
00000F800000
00001FC00000
00002FD00000
00007BF00000
0000B3F40000
0000E2F80000
0001D1FC0000
0003C0BE0000
0007807F0000
000B403F4000
000F002FC000
001D001FD000
003C000FE000
007FFFFFF000
00B55557F800
00F00002FC00
02D00001FD00
03C00000FF00
0B800000BF40
6FD40005FFE4
FFF8000BFFFC
ENDCHAR
STARTCHAR Aring
ENCODING 197
SWIDTH 718 0
DWIDTH 23 0
BBX 23 29 0 0
BITMAP
00002F900000
0000B5B00000
0000E0340000
0000D0380000
0000B4740000
00002FD00000
000001000000
00000B400000
00000F800000
00001FC00000
00002FD00000
00007BF00000
0000B3F40000
0000E2F80000
0001D1FC0000
0003C0BE0000
0007807F0000
000B403F4000
000F002FC000
001D001FD000
003C000FE000
007FFFFFF000
00B55557F800
00F00002FC00
02D00001FD00
03C00000FF00
0B800000BF40
6FD40005FFE4
FFF8000BFFFC
ENDCHAR
STARTCHAR AE
ENCODING 198
SWIDTH 894 0
DWIDTH 29 0
BBX 29 22 -1 0
BITMAP
00000FFFFFFFFE00
000001FFEAAAFE00
000000DBC0001E00
000001CBC0000A00
0000034BC0000A00
00000B0BC0000100
00000D0BC0000000
00002C0BC000C000
0000780BC000C000
0000B00BC001C000
0001E00BD007C000
0002FFFFFFFFC000
0007955BD556C000
000F000BC000C000
001D000BC000C000
003C000BC0000000
0074000BC0000280
00E0000BC0000340
02D0000FC0000740
07C0000FC0001F00
5FE4016FE556BF00
BFFD03FFFFFFFE00
ENDCHAR
STARTCHAR Ccedilla
ENCODING 199
SWIDTH 670 0
DWIDTH 21 0
BBX 19 29 1 -7
BITMAP
0001BFE924
002F956FF4
00FD0007F4
03F00001F4
0BD00000B4
1FC0000074
2F40000034
3F40000024
7F00000000
7F00000000
7F00000000
7F00000000
7F00000000
7F00000000
3F40000000
2F80000000
1FD0000000
0BF0000018
07F8000074
01FF941BE0
006FFFFF40
0006BFE400
0000240000
0000300000
00003F4000
000016D000
000001D000
000142D000
0000BF4000
ENDCHAR
STARTCHAR Egrave
ENCODING 200
SWIDTH 626 0
DWIDTH 20 0
BBX 18 27 1 0
BITMAP
000FD00000
0006F40000
00007C0000
00000B0000
0000000000
FFFFFFFFC0
0BFAAAAFC0
03F40003C0
02F40001C0
02F40000C0
02F4000080
02F4000000
02F4002800
02F4002800
02F4007800
02FFFFF800
02F555B800
02F4002800
02F4002800
02F4001800
02F4000000
02F4000020
02F4000070
02F40000E0
03F40002E0
07F955AFD0
BFFFFFFFD0
ENDCHAR
STARTCHAR Eacute
ENCODING 201
SWIDTH 626 0
DWIDTH 20 0
BBX 18 27 1 0
BITMAP
00003F8000
0000BD0000
0002E00000
0007400000
0000000000
FFFFFFFFC0
0BFAAAAFC0
03F40003C0
02F40001C0
02F40000C0
02F4000080
02F4000000
02F4002800
02F4002800
02F4007800
02FFFFF800
02F555B800
02F4002800
02F4002800
02F4001800
02F4000000
02F4000020
02F4000070
02F40000E0
03F40002E0
07F955AFD0
BFFFFFFFD0
ENDCHAR
STARTCHAR Ecircumflex
ENCODING 202
SWIDTH 626 0
DWIDTH 20 0
BBX 18 28 1 0
BITMAP
0000640000
0002FD0000
0007EF0000
001E078000
003800E000
0000000000
FFFFFFFFC0
0BFAAAAFC0
03F40003C0
02F40001C0
02F40000C0
02F4000080
02F4000000
02F4002800
02F4002800
02F4007800
02FFFFF800
02F555B800
02F4002800
02F4002800
02F4001800
02F4000000
02F4000020
02F4000070
02F40000E0
03F40002E0
07F955AFD0
BFFFFFFFD0
ENDCHAR
STARTCHAR Edieresis
ENCODING 203
SWIDTH 626 0
DWIDTH 20 0
BBX 18 27 1 0
BITMAP
007801E000
00FD03F400
00FD03F400
007801E000
0000000000
FFFFFFFFC0
0BFAAAAFC0
03F40003C0
02F40001C0
02F40000C0
02F4000080
02F4000000
02F4002800
02F4002800
02F4007800
02FFFFF800
02F555B800
02F4002800
02F4002800
02F4001800
02F4000000
02F4000020
02F4000070
02F40000E0
03F40002E0
07F955AFD0
BFFFFFFFD0
ENDCHAR
STARTCHAR Igrave
ENCODING 204
SWIDTH 357 0
DWIDTH 11 0
BBX 10 27 1 0
BITMAP
2FC000
07E000
01B800
001D00
000000
FFFFD0
5BFD40
03F400
02F400
02F400
02F400
02F400
02F400
02F400
02F400
02F400
02F400
02F400
02F400
02F400
02F400
02F400
02F400
02F400
03F400
5BFD40
FFFFD0
ENDCHAR
STARTCHAR Iacute
ENCODING 205
SWIDTH 357 0
DWIDTH 11 0
BBX 10 27 1 0
BITMAP
007F00
01F900
03D000
0E0000
000000
FFFFD0
5BFD40
03F400
02F400
02F400
02F400
02F400
02F400
02F400
02F400
02F400
02F400
02F400
02F400
02F400
02F400
02F400
02F400
02F400
03F400
5BFD40
FFFFD0
ENDCHAR
STARTCHAR Icircumflex
ENCODING 206
SWIDTH 357 0
DWIDTH 11 0
BBX 10 28 1 0
BITMAP
019000
07F800
0FBD00
2D0B40
B402C0
000000
FFFFD0
5BFD40
03F400
02F400
02F400
02F400
02F400
02F400
02F400
02F400
02F400
02F400
02F400
02F400
02F400
02F400
02F400
02F400
02F400
03F400
5BFD40
FFFFD0
ENDCHAR
STARTCHAR Idieresis
ENCODING 207
SWIDTH 357 0
DWIDTH 11 0
BBX 11 27 0 0
BITMAP
2D00B4
BF01FC
BF01FC
2D00B4
000000
3FFFF4
16FF50
00FD00
00BD00
00BD00
00BD00
00BD00
00BD00
00BD00
00BD00
00BD00
00BD00
00BD00
00BD00
00BD00
00BD00
00BD00
00BD00
00BD00
00FD00
16FF50
3FFFF4
ENDCHAR
STARTCHAR Eth
ENCODING 208
SWIDTH 737 0
DWIDTH 24 0
BBX 21 22 1 0
BITMAP
BFFFFF900000
07F95AFE4000
02F4002FE000
02F40007F800
02F40001FD00
02F40000BF00
02F400007F40
02F400003F80
02F400002F80
02F400002F80
BFFFFE002FC0
16F555002FC0
02F400002FC0
02F400002F80
02F400003F80
02F400003F40
02F400007F00
02F40000FD00
02F40002F800
02F4001BE000
07F956FE4000
BFFFFFA40000
ENDCHAR
STARTCHAR Ntilde
ENCODING 209
SWIDTH 742 0
DWIDTH 24 0
BBX 22 27 1 0
BITMAP
0001FE424000
0007FFFE0000
000906F80000
000000000000
000000000000
FFE0000BFFF0
6FF40005BF50
07FD00003D00
03FF00002C00
03FF80002C00
03AFD0002C00
038FF4002C00
0387FC002C00
0381FE002C00
0380BF402C00
03802FC02C00
03800FE02C00
038007F82C00
038002FD2C00
038000BF2C00
0380003FAC00
0380001FFC00
0380000BFC00
03800002FC00
07800000FC00
5FE400007C00
FFFD00001C00
ENDCHAR
STARTCHAR Ograve
ENCODING 210
SWIDTH 738 0
DWIDTH 24 0
BBX 21 27 1 0
BITMAP
0002FC000000
00007E000000
00000B800000
000001E00000
000000000000
0006BFE40000
002F95BF8000
01FD000BE000
03F00002F800
0BD00000FD00
1FC000007F00
2F8000003F40
3F4000002F80
3F0000002FC0
7F0000001FC0
7F0000001FC0
7F0000001FC0
7F0000001FC0
7F4000002F80
3F4000002F80
2F8000003F40
1FC000007E00
0BD00000BD00
03F00001F800
01FD0007E000
002F956F4000
0006BFE40000
ENDCHAR
STARTCHAR Oacute
ENCODING 211
SWIDTH 738 0
DWIDTH 24 0
BBX 21 27 1 0
BITMAP
000007F40000
00001FD00000
00003E000000
0000A4000000
000000000000
0006BFE40000
002F95BF8000
01FD000BE000
03F00002F800
0BD00000FD00
1FC000007F00
2F8000003F40
3F4000002F80
3F0000002FC0
7F0000001FC0
7F0000001FC0
7F0000001FC0
7F0000001FC0
7F4000002F80
3F4000002F80
2F8000003F40
1FC000007E00
0BD00000BD00
03F00001F800
01FD0007E000
002F956F4000
0006BFE40000
ENDCHAR
STARTCHAR Ocircumflex
ENCODING 212
SWIDTH 738 0
DWIDTH 24 0
BBX 21 28 1 0
BITMAP
00001A000000
00003F800000
0000FBE00000
0002D0B40000
0007401D0000
000000000000
0006BFE40000
002F95BF8000
01FD000BE000
03F00002F800
0BD00000FD00
1FC000007F00
2F8000003F40
3F4000002F80
3F0000002FC0
7F0000001FC0
7F0000001FC0
7F0000001FC0
7F0000001FC0
7F4000002F80
3F4000002F80
2F8000003F40
1FC000007E00
0BD00000BD00
03F00001F800
01FD0007E000
002F956F4000
0006BFE40000
ENDCHAR
STARTCHAR Otilde
ENCODING 213
SWIDTH 738 0
DWIDTH 24 0
BBX 21 27 1 0
BITMAP
0002FE470000
000BFFFE0000
000D1AF80000
000000000000
000000000000
0006BFE40000
002F95BF8000
01FD000BE000
03F00002F800
0BD00000FD00
1FC000007F00
2F8000003F40
3F4000002F80
3F0000002FC0
7F0000001FC0
7F0000001FC0
7F0000001FC0
7F0000001FC0
7F4000002F80
3F4000002F80
2F8000003F40
1FC000007E00
0BD00000BD00
03F00001F800
01FD0007E000
002F956F4000
0006BFE40000
ENDCHAR
STARTCHAR Odieresis
ENCODING 214
SWIDTH 738 0
DWIDTH 24 0
BBX 21 27 1 0
BITMAP
000B402D0000
001FC07F0000
001FC07F0000
000B402D0000
000000000000
0006BFE40000
002F95BF8000
01FD000BE000
03F00002F800
0BD00000FD00
1FC000007F00
2F8000003F40
3F4000002F80
3F0000002FC0
7F0000001FC0
7F0000001FC0
7F0000001FC0
7F0000001FC0
7F4000002F80
3F4000002F80
2F8000003F40
1FC000007E00
0BD00000BD00
03F00001F800
01FD0007E000
002F956F4000
0006BFE40000
ENDCHAR
STARTCHAR multiply
ENCODING 215
SWIDTH 720 0
DWIDTH 23 0
BBX 19 18 2 -1
BITMAP
28000000B0
7E000002F4
1F80000BD0
07E0002F40
01F800BD00
007E02F400
001F8BD000
0007FF4000
0001FD0000
0002FE0000
000BEF8000
002F47E000
00BD01F800
02F4007E00
0BD0001F80
2F400007E0
7D000001F4
1400000050
ENDCHAR
STARTCHAR Oslash
ENCODING 216
SWIDTH 737 0
DWIDTH 24 0
BBX 21 22 1 0
BITMAP
0006BFE41C00
002F95BFB400
01FD000BF000
03F00003F800
0BD00007FD00
1FC0001D7F00
2F8000383F40
3F4000A02F80
7F0002C02F80
7F0007401FC0
7F000E001FC0
7F0028001FC0
7F00B0001FC0
7F01D0002F80
3F4340002F80
2F8A00003F40
1FEC00007E00
0FF40000BD00
07F00001F800
03FD0007E000
0A6F956F4000
1C06BFE40000
ENDCHAR
STARTCHAR Ugrave
ENCODING 217
SWIDTH 752 0
DWIDTH 24 0
BBX 24 27 0 0
BITMAP
00002FC00000
000007E00000
000000B80000
0000001D0000
000000000000
7FFFF001FFFD
1BFE50006FE4
01FC00000B80
01F800000780
01F800000780
01F800000740
01F800000740
01F800000740
01F800000740
01F800000740
01F800000740
01F800000740
01F800000740
01F800000740
00F800000740
00FC00000B40
00FC00000B00
00BE00000E00
007F40002D00
002FE405F800
000BFFFFE000
0000AFFA0000
ENDCHAR
STARTCHAR Uacute
ENCODING 218
SWIDTH 752 0
DWIDTH 24 0
BBX 24 27 0 0
BITMAP
0000007F4000
000001F90000
000003D00000
00000E000000
000000000000
7FFFF001FFFD
1BFE50006FE4
01FC00000B80
01F800000780
01F800000780
01F800000740
01F800000740
01F800000740
01F800000740
01F800000740
01F800000740
01F800000740
01F800000740
01F800000740
00F800000740
00FC00000B40
00FC00000B00
00BE00000E00
007F40002D00
002FE405F800
000BFFFFE000
0000AFFA0000
ENDCHAR
STARTCHAR Ucircumflex
ENCODING 219
SWIDTH 752 0
DWIDTH 24 0
BBX 24 28 0 0
BITMAP
000001900000
000007F80000
00000FBE0000
00002D0B4000
0000B401C000
000000000000
7FFFF001FFFD
1BFE50006FE4
01FC00000B80
01F800000780
01F800000780
01F800000740
01F800000740
01F800000740
01F800000740
01F800000740
01F800000740
01F800000740
01F800000740
01F800000740
00F800000740
00FC00000B40
00FC00000B00
00BE00000E00
007F40002D00
002FE405F800
000BFFFFE000
0000AFFA0000
ENDCHAR
STARTCHAR Udieresis
ENCODING 220
SWIDTH 752 0
DWIDTH 24 0
BBX 24 27 0 0
BITMAP
0000B402D000
0001FC07F000
0001FC07F000
0000B402D000
000000000000
7FFFF001FFFD
1BFE50006FE4
01FC00000B80
01F800000780
01F800000780
01F800000740
01F800000740
01F800000740
01F800000740
01F800000740
01F800000740
01F800000740
01F800000740
01F800000740
00F800000740
00FC00000B40
00FC00000B00
00BE00000E00
007F40002D00
002FE405F800
000BFFFFE000
0000AFFA0000
ENDCHAR
STARTCHAR Yacute
ENCODING 221
SWIDTH 647 0
DWIDTH 21 0
BBX 21 27 0 0
BITMAP
000007F40000
00000FD00000
00003E000000
0000A4000000
000000000000
FFFF400FFFC0
6FF90006FD40
0BF40000F000
02F80002D000
00FD00038000
007F000B0000
002F801D0000
001FD02C0000
000BF0740000
0003F4E00000
0001FEC00000
0000BF800000
00007F000000
00003F000000
00003F000000
00003F000000
00003F000000
00003F000000
00003F000000
00007F400000
0005FFD40000
001FFFFD0000
ENDCHAR
STARTCHAR Thorn
ENCODING 222
SWIDTH 572 0
DWIDTH 18 0
BBX 17 22 1 0
BITMAP
FFFFE00000
5BFE400000
03F8000000
02F4000000
02F4000000
02FFFE9000
02F55BF800
02F400FE00
02F4007F00
02F4003F40
02F4003F40
02F4003F40
02F4007F00
02F400BD00
02F417F400
02FFFE4000
02F5400000
02F4000000
02F4000000
03F4000000
5BFE400000
FFFFE00000
ENDCHAR
STARTCHAR germandbls
ENCODING 223
SWIDTH 563 0
DWIDTH 18 0
BBX 17 24 0 0
BITMAP
0006FE4000
002D47E000
00B400F800
00F000BC00
01F000BC00
02F000BC00
02F000B800
02F001F400
3FF007D000
16F0790000
02F07E4000
02F00BE000
02F001FD00
02F0007F00
02F0002F40
02F0001F80
02F0000FC0
02F0000FC0
02F0000FC0
02F0400F80
02F1F01F40
02F1F81F00
07F0FC7D00
7FF06F9000
ENDCHAR
STARTCHAR agrave
ENCODING 224
SWIDTH 480 0
DWIDTH 15 0
BBX 14 22 1 0
BITMAP
03F00000
01F80000
007C0000
001D0000
000B0000
00000000
01BF9000
0F96F400
2E00FC00
3E00BC00
3D007D00
04007D00
0000BD00
001BFD00
06E47D00
1F407D00
7D007D00
BC007D00
BC007D00
BD00FD20
3F5A3FE0
1BE41F80
ENDCHAR
STARTCHAR aacute
ENCODING 225
SWIDTH 480 0
DWIDTH 15 0
BBX 14 22 1 0
BITMAP
0007E000
000BC000
001F4000
002D0000
00340000
00000000
01BF9000
0F96F400
2E00FC00
3E00BC00
3D007D00
04007D00
0000BD00
001BFD00
06E47D00
1F407D00
7D007D00
BC007D00
BC007D00
BD00FD20
3F5A3FE0
1BE41F80
ENDCHAR
STARTCHAR acircumflex
ENCODING 226
SWIDTH 480 0
DWIDTH 15 0
BBX 14 22 1 0
BITMAP
003E0000
00BF4000
01E2D000
0380B000
0A002800
00000000
01BF9000
0F96F400
2E00FC00
3E00BC00
3D007D00
04007D00
0000BD00
001BFD00
06E47D00
1F407D00
7D007D00
BC007D00
BC007D00
BD00FD20
3F5A3FE0
1BE41F80
ENDCHAR
STARTCHAR atilde
ENCODING 227
SWIDTH 480 0
DWIDTH 15 0
BBX 14 21 1 0
BITMAP
06F90900
0FFFFC00
181BE400
00000000
00000000
01BF9000
0F96F400
2E00FC00
3E00BC00
3D007D00
04007D00
0000BD00
001BFD00
06E47D00
1F407D00
7D007D00
BC007D00
BC007D00
BD00FD20
3F5A3FE0
1BE41F80
ENDCHAR
STARTCHAR adieresis
ENCODING 228
SWIDTH 480 0
DWIDTH 15 0
BBX 14 22 1 0
BITMAP
1E007C00
2F80BE00
2F80BE00
1E007800
00000000
00000000
01BF9000
0F96F400
2E00FC00
3E00BC00
3D007D00
04007D00
0000BD00
001BFD00
06E47D00
1F407D00
7D007D00
BC007D00
BC007D00
BD00FD20
3F5A3FE0
1BE41F80
ENDCHAR
STARTCHAR aring
ENCODING 229
SWIDTH 480 0
DWIDTH 15 0
BBX 14 24 1 0
BITMAP
007E4000
01D6D000
0280E000
0380A000
02D1D000
00BF8000
00040000
00000000
01BF9000
0F96F400
2E00FC00
3E00BC00
3D007D00
04007D00
0000BD00
001BFD00
06E47D00
1F407D00
7D007D00
BC007D00
BC007D00
BD00FD20
3F5A3FE0
1BE41F80
ENDCHAR
STARTCHAR ae
ENCODING 230
SWIDTH 709 0
DWIDTH 23 0
BBX 21 16 1 0
BITMAP
02BF80BF9000
1F57E796F400
3E00FE007D00
7E00BD003E00
3D00BC002F40
0000BC001F40
0001FFFFFF80
006FFD555500
07E4BC000000
2F00BC000000
7D00BD000000
BC007E000040
BC007F400340
BE02EFE55E00
3FFF0BFFF800
1BE401BF9000
ENDCHAR
STARTCHAR ccedilla
ENCODING 231
SWIDTH 446 0
DWIDTH 14 0
BBX 13 23 1 -7
BITMAP
006FE400
07D5FD00
1F007F00
2D003F00
7C001E00
B8000000
B8000000
F8000000
F8000000
FC000000
BC000000
BE000140
3F400700
2FE56E00
0BFFF800
01BF9000
00180000
00180000
002F9000
0005F000
0000F000
0096E000
006F8000
ENDCHAR
STARTCHAR egrave
ENCODING 232
SWIDTH 464 0
DWIDTH 15 0
BBX 13 22 1 0
BITMAP
02F40000
00FC0000
003D0000
001E0000
00074000
00000000
00BF9000
0796F800
1E007D00
3D002F00
7C001F40
B8001F80
BFFFFF80
F9555540
F8000000
BC000000
BD000000
7E000040
3F800240
1FE55E00
07FFF800
00AF9000
ENDCHAR
STARTCHAR eacute
ENCODING 233
SWIDTH 464 0
DWIDTH 15 0
BBX 13 22 1 0
BITMAP
0003F400
0007D000
000F8000
001E0000
00280000
00000000
00BF9000
0796F800
1E007D00
3D002F00
7C001F40
B8001F80
BFFFFF80
F9555540
F8000000
BC000000
BD000000
7E000040
3F800240
1FE55E00
07FFF800
00AF9000
ENDCHAR
STARTCHAR ecircumflex
ENCODING 234
SWIDTH 464 0
DWIDTH 15 0
BBX 13 22 1 0
BITMAP
002F4000
007F8000
00F2E000
02C0B400
07001C00
00000000
00BF9000
0796F800
1E007D00
3D002F00
7C001F40
B8001F80
BFFFFF80
F9555540
F8000000
BC000000
BD000000
7E000040
3F800240
1FE55E00
07FFF800
00AF9000
ENDCHAR
STARTCHAR edieresis
ENCODING 235
SWIDTH 464 0
DWIDTH 15 0
BBX 13 22 1 0
BITMAP
0B402D00
1FC07F00
1FC07F00
0B402D00
00000000
00000000
00BF9000
0796F800
1E007D00
3D002F00
7C001F40
B8001F80
BFFFFF80
F9555540
F8000000
BC000000
BD000000
7E000040
3F800240
1FE55E00
07FFF800
00AF9000
ENDCHAR
STARTCHAR igrave
ENCODING 236
SWIDTH 285 0
DWIDTH 9 0
BBX 9 22 0 0
BITMAP
7E0000
2F0000
0B8000
02C000
00E000
000000
16F000
2FF000
03F000
02F000
02F000
02F000
02F000
02F000
02F000
02F000
02F000
02F000
02F000
02F000
17F900
3FFF40
ENDCHAR
STARTCHAR iacute
ENCODING 237
SWIDTH 285 0
DWIDTH 9 0
BBX 8 22 1 0
BITMAP
02F4
03E0
0B80
0E00
2C00
0000
5BC0
BFC0
0FC0
0BC0
0BC0
0BC0
0BC0
0BC0
0BC0
0BC0
0BC0
0BC0
0BC0
0BC0
5FE4
FFFD
ENDCHAR
STARTCHAR icircumflex
ENCODING 238
SWIDTH 285 0
DWIDTH 9 0
BBX 9 22 0 0
BITMAP
07D000
0FF000
2D7800
741D00
D00700
000000
16F000
2FF000
03F000
02F000
02F000
02F000
02F000
02F000
02F000
02F000
02F000
02F000
02F000
02F000
17F900
3FFF40
ENDCHAR
STARTCHAR idieresis
ENCODING 239
SWIDTH 285 0
DWIDTH 9 0
BBX 10 22 -1 0
BITMAP
7802D0
BE0BF0
BE0BF0
7802D0
000000
000000
05BC00
0BFC00
00FC00
00BC00
00BC00
00BC00
00BC00
00BC00
00BC00
00BC00
00BC00
00BC00
00BC00
00BC00
05FE40
0FFFD0
ENDCHAR
STARTCHAR eth
ENCODING 240
SWIDTH 532 0
DWIDTH 17 0
BBX 15 24 1 0
BITMAP
06FE4010
095BF5B4
0000FF80
0001FE00
001B5F40
00240FC0
000007D0
000003E0
006F93F0
07E57BF0
1F400FF4
3E0007F4
7D0003F4
BD0002F4
BC0002F4
FC0002F4
FC0002F4
BC0002F0
BD0003F0
7E0003E0
3F000BC0
1F801F40
07E57D00
00BFE000
ENDCHAR
STARTCHAR ntilde
ENCODING 241
SWIDTH 576 0
DWIDTH 18 0
BBX 17 21 1 0
BITMAP
002F906000
00BFFFD000
0181BF4000
0000000000
0000000000
1BC1BE4000
FFC7FFD000
0FE90BF000
0BE002F000
0BC001F400
0BC001F400
0BC001F400
0BC001F400
0BC001F400
0BC001F400
0BC001F400
0BC001F400
0BC001F400
0BC001F400
5FE406FD40
FFFD2FFF80
ENDCHAR
STARTCHAR ograve
ENCODING 242
SWIDTH 514 0
DWIDTH 16 0
BBX 15 22 1 0
BITMAP
00FC0000
007E0000
001F0000
000B4000
0002C000
00000000
006FE400
07E5BE00
1F401F80
2E0007D0
7D0003F0
BD0002F0
BC0002F4
FC0002F4
FC0002F4
BD0002F4
BD0002F0
7E0003E0
3F0007D0
1F800B80
07E56E00
00AFE400
ENDCHAR
STARTCHAR oacute
ENCODING 243
SWIDTH 514 0
DWIDTH 16 0
BBX 15 22 1 0
BITMAP
0001F800
0002F000
0007D000
000B4000
000D0000
00000000
006FE400
07E5BE00
1F401F80
2E0007D0
7D0003F0
BD0002F0
BC0002F4
FC0002F4
FC0002F4
BD0002F4
BD0002F0
7E0003E0
3F0007D0
1F800B80
07E56E00
00AFE400
ENDCHAR
STARTCHAR ocircumflex
ENCODING 244
SWIDTH 514 0
DWIDTH 16 0
BBX 15 22 1 0
BITMAP
000F8000
002FD000
0078F400
00E02800
02800A00
00000000
006FE400
07E5BE00
1F401F80
2E0007D0
7D0003F0
BD0002F0
BC0002F4
FC0002F4
FC0002F4
BD0002F4
BD0002F0
7E0003E0
3F0007D0
1F800B80
07E56E00
00AFE400
ENDCHAR
STARTCHAR otilde
ENCODING 245
SWIDTH 514 0
DWIDTH 16 0
BBX 15 21 1 0
BITMAP
01BE4240
03FFFF00
0606F900
00000000
00000000
006FE400
07E5BE00
1F401F80
2E0007D0
7D0003F0
BD0002F0
BC0002F4
FC0002F4
FC0002F4
BD0002F4
BD0002F0
7E0003E0
3F0007D0
1F800B80
07E56E00
00AFE400
ENDCHAR
STARTCHAR odieresis
ENCODING 246
SWIDTH 514 0
DWIDTH 16 0
BBX 15 22 1 0
BITMAP
07801E00
0FE03F80
0FE03F80
07801E00
00000000
00000000
006FE400
07E5BE00
1F401F80
2E0007D0
7D0003F0
BD0002F0
BC0002F4
FC0002F4
FC0002F4
BD0002F4
BD0002F0
7E0003E0
3F0007D0
1F800B80
07E56E00
00AFE400
ENDCHAR
STARTCHAR divide
ENCODING 247
SWIDTH 720 0
DWIDTH 23 0
BBX 19 18 2 0
BITMAP
0000B80000
0001FD0000
0001FD0000
0000B80000
0000000000
0000000000
0000000000
0000000000
FFFFFFFFFC
FFFFFFFFFC
0000000000
0000000000
0000000000
0000000000
0000B80000
0001FD0000
0001FD0000
0000B80000
ENDCHAR
STARTCHAR oslash
ENCODING 248
SWIDTH 514 0
DWIDTH 16 0
BBX 15 16 1 0
BITMAP
006FE5C0
07E5BF40
1F401F80
2E002FD0
7D0077E0
BD00D3F0
BC0282F4
FC0A02F4
FC1C02F4
BD7402F4
BDD002F0
7F8003E0
3F0007D0
1F800B80
3BE56E00
A0AFE400
ENDCHAR
STARTCHAR ugrave
ENCODING 249
SWIDTH 570 0
DWIDTH 18 0
BBX 17 22 1 0
BITMAP
00BE000000
002F000000
000F400000
0003C00000
0001D00000
0000000000
AB802AF000
AF801BF000
1F8002F000
0F8002F000
0F8002F000
0F8002F000
0F8002F000
0F8002F000
0F8002F000
0F8002F000
0F8002F000
0F8002F000
0FC007F000
0BE01EF400
03FFF5FE40
01BE41E900
ENDCHAR
STARTCHAR uacute
ENCODING 250
SWIDTH 570 0
DWIDTH 18 0
BBX 17 22 1 0
BITMAP
0000FD0000
0001F40000
0002E00000
0007800000
000A000000
0000000000
AB802AF000
AF801BF000
1F8002F000
0F8002F000
0F8002F000
0F8002F000
0F8002F000
0F8002F000
0F8002F000
0F8002F000
0F8002F000
0F8002F000
0FC007F000
0BE01EF400
03FFF5FE40
01BE41E900
ENDCHAR
STARTCHAR ucircumflex
ENCODING 251
SWIDTH 570 0
DWIDTH 18 0
BBX 17 22 1 0
BITMAP
000BD00000
001FF00000
003D780000
00B01D0000
01C0070000
0000000000
AB802AF000
AF801BF000
1F8002F000
0F8002F000
0F8002F000
0F8002F000
0F8002F000
0F8002F000
0F8002F000
0F8002F000
0F8002F000
0F8002F000
0FC007F000
0BE01EF400
03FFF5FE40
01BE41E900
ENDCHAR
STARTCHAR udieresis
ENCODING 252
SWIDTH 570 0
DWIDTH 18 0
BBX 17 22 1 0
BITMAP
02D00B4000
07F01FC000
07F01FC000
02D00B4000
0000000000
0000000000
AB802AF000
AF801BF000
1F8002F000
0F8002F000
0F8002F000
0F8002F000
0F8002F000
0F8002F000
0F8002F000
0F8002F000
0F8002F000
0F8002F000
0FC007F000
0BE01EF400
03FFF5FE40
01BE41E900
ENDCHAR
STARTCHAR yacute
ENCODING 253
SWIDTH 483 0
DWIDTH 15 0
BBX 17 29 -1 -7
BITMAP
00001F8000
00002F0000
00007D0000
0000B40000
0000D00000
0000000000
7FFD02FF80
1FF4017E40
07E0003800
03F0007400
02F800B000
00FC00E000
00BD01D000
003F02C000
002F434000
001F870000
000BCA0000
0007DD0000
0003FC0000
0001F80000
0000F40000
0000E00000
0000D00000
0002C00000
0003800000
000B000000
1F5D000000
2FF8000000
1FD0000000
ENDCHAR
STARTCHAR thorn
ENCODING 254
SWIDTH 524 0
DWIDTH 17 0
BBX 16 31 0 -7
BITMAP
01400000
6FD00000
6FD00000
0BD00000
07D00000
07D00000
07D00000
07D00000
07D0BE40
07D7FFE0
07ED5BF4
07F001FC
07D000FD
07D000BD
07D0007E
07D0007E
07D0007E
07D0007D
07D0007C
07D000BC
07D000F4
07F402E0
07FE5B80
07DBF900
07D00000
07D00000
07D00000
07D00000
0BD00000
5FF50000
BFFF4000
ENDCHAR
STARTCHAR ydieresis
ENCODING 255
SWIDTH 483 0
DWIDTH 15 0
BBX 17 29 -1 -7
BITMAP
007801E000
00FE03F800
00FE03F800
007801E000
0000000000
0000000000
7FFD02FF80
1FF4017E40
07E0003800
03F0007400
02F800B000
00FC00E000
00BD01D000
003F02C000
002F434000
001F870000
000BCA0000
0007DD0000
0003FC0000
0001F80000
0000F40000
0000E00000
0000D00000
0002C00000
0003800000
000B000000
1F5D000000
2FF8000000
1FD0000000
ENDCHAR
STARTCHAR Amacron
ENCODING 256
SWIDTH 718 0
DWIDTH 23 0
BBX 23 25 0 0
BITMAP
0007FFFF0000
000155550000
000000000000
00000B400000
00000F800000
00001FC00000
00002FD00000
00007BF00000
0000B3F40000
0000E2F80000
0001D1FC0000
0003C0BE0000
0007807F0000
000B403F4000
000F002FC000
001D001FD000
003C000FE000
007FFFFFF000
00B55557F800
00F00002FC00
02D00001FD00
03C00000FF00
0B800000BF40
6FD40005FFE4
FFF8000BFFFC
ENDCHAR
STARTCHAR amacron
ENCODING 257
SWIDTH 480 0
DWIDTH 15 0
BBX 14 20 1 0
BITMAP
1FFFFC00
05555400
00000000
00000000
01BF9000
0F96F400
2E00FC00
3E00BC00
3D007D00
04007D00
0000BD00
001BFD00
06E47D00
1F407D00
7D007D00
BC007D00
BC007D00
BD00FD20
3F5A3FE0
1BE41F80
ENDCHAR
STARTCHAR Abreve
ENCODING 258
SWIDTH 718 0
DWIDTH 23 0
BBX 23 28 0 0
BITMAP
000600030000
0007400A0000
0003D46D0000
0001FFFC0000
00006FE00000
000000000000
00000B400000
00000F800000
00001FC00000
00002FD00000
00007BF00000
0000B3F40000
0000E2F80000
0001D1FC0000
0003C0BE0000
0007807F0000
000B403F4000
000F002FC000
001D001FD000
003C000FE000
007FFFFFF000
00B55557F800
00F00002FC00
02D00001FD00
03C00000FF00
0B800000BF40
6FD40005FFE4
FFF8000BFFFC
ENDCHAR
STARTCHAR abreve
ENCODING 259
SWIDTH 480 0
DWIDTH 15 0
BBX 14 22 1 0
BITMAP
18000C00
0D002800
0B407400
07FFF000
01BF8000
00000000
01BF9000
0F96F400
2E00FC00
3E00BC00
3D007D00
04007D00
0000BD00
001BFD00
06E47D00
1F407D00
7D007D00
BC007D00
BC007D00
BD00FD20
3F5A3FE0
1BE41F80
ENDCHAR
STARTCHAR Aogonek
ENCODING 260
SWIDTH 719 0
DWIDTH 23 0
BBX 23 29 0 -7
BITMAP
00000B400000
00000F800000
00001FC00000
00002FD00000
00007BF00000
0000B2F40000
0000E1F80000
0001D0FD0000
000280BE0000
0007403F0000
000B002F4000
000E001FC000
001D000FD000
003FFFFFE000
00755557F000
00B00002F800
00E00001FC00
02D00000FD00
03C00000BF00
0B800000BF40
6FD40001FFE4
FFFC001FFFFC
0000007D0000
000001F00000
000002E00000
000002D00000
000002D00000
000001F5A000
000000BE4000
ENDCHAR
STARTCHAR aogonek
ENCODING 261
SWIDTH 480 0
DWIDTH 15 0
BBX 15 23 1 -7
BITMAP
01BF9000
0B96F400
2E00FC00
3E00BC00
3E007D00
14007D00
00007D00
001BFD00
02F97D00
1F407D00
7E007D00
BC007D00
BC007D00
BD00BD00
7F563EB0
1BE41FD0
00001E00
00007800
0000F000
0001E000
0001E000
0001F564
00007F80
ENDCHAR
STARTCHAR Cacute
ENCODING 262
SWIDTH 670 0
DWIDTH 21 0
BBX 19 27 1 0
BITMAP
000003F400
00000FD000
00002E0000
0000B40000
0000000000
0001BFE924
002F956FF4
00FD0007F4
03F00001F4
0BD00000B4
1FC0000074
2F40000034
3F40000024
7F00000000
7F00000000
7F00000000
7F00000000
7F00000000
7F00000000
3F40000000
2F80000000
1FD0000000
0BF0000018
07F8000074
01FF941BE0
006FFFFF40
0006BFE400
ENDCHAR
STARTCHAR cacute
ENCODING 263
SWIDTH 446 0
DWIDTH 14 0
BBX 13 22 1 0
BITMAP
0003F000
0007D000
000F8000
001E0000
00280000
00000000
00AFE400
07D5FD00
1F007F00
3D003F00
7C001E00
B8000000
B8000000
F8000000
F8000000
FC000000
BC000000
7E000140
3F400700
1FE56D00
0BFFF800
01BF9000
ENDCHAR
STARTCHAR Ccircumflex
ENCODING 264
SWIDTH 670 0
DWIDTH 21 0
BBX 19 28 1 0
BITMAP
00000A4000
00002FC000
0000BAE000
0001E07800
0007401D00
0000000000
0001BFE924
002F956FF4
00FD0007F4
03F00001F4
0BD00000B4
1FC0000074
2F40000034
3F40000024
7F00000000
7F00000000
7F00000000
7F00000000
7F00000000
7F00000000
3F40000000
2F80000000
1FD0000000
0BF0000018
07F8000074
01FF941BE0
006FFFFF40
0006BFE400
ENDCHAR
STARTCHAR ccircumflex
ENCODING 265
SWIDTH 446 0
DWIDTH 14 0
BBX 13 22 1 0
BITMAP
002F0000
007F8000
00F2E000
02C0B400
07002C00
00000000
00AFE400
07D5FD00
1F007F00
3D003F00
7C001E00
B8000000
B8000000
F8000000
F8000000
FC000000
BC000000
7E000140
3F400700
1FE56D00
0BFFF800
01BF9000
ENDCHAR
STARTCHAR Cdotaccent
ENCODING 266
SWIDTH 670 0
DWIDTH 21 0
BBX 19 27 1 0
BITMAP
00000F4000
00002F8000
00002F8000
00000F4000
0000000000
0001BFE924
002F956FF4
00FD0007F4
03F00001F4
0BD00000B4
1FC0000074
2F40000034
3F40000024
7F00000000
7F00000000
7F00000000
7F00000000
7F00000000
7F00000000
3F40000000
2F80000000
1FD0000000
0BF0000018
07F8000074
01FF941BE0
006FFFFF40
0006BFE400
ENDCHAR
STARTCHAR cdotaccent
ENCODING 267
SWIDTH 446 0
DWIDTH 14 0
BBX 13 22 1 0
BITMAP
001E0000
003F4000
003F4000
001E0000
00000000
00000000
00AFE400
07D5FD00
1F007F00
3D003F00
7C001E00
B8000000
B8000000
F8000000
F8000000
FC000000
BC000000
7E000140
3F400700
1FE56D00
0BFFF800
01BF9000
ENDCHAR
STARTCHAR Ccaron
ENCODING 268
SWIDTH 670 0
DWIDTH 21 0
BBX 19 28 1 0
BITMAP
0005000500
0002802C00
0000F5F400
00007FD000
00001F8000
0000000000
0001BFE924
002F956FF4
00FD0007F4
03F00001F4
0BD00000B4
1FC0000074
2F40000034
3F40000024
7F00000000
7F00000000
7F00000000
7F00000000
7F00000000
7F00000000
3F40000000
2F80000000
1FD0000000
0BF0000018
07F8000074
01FF941BE0
006FFFFF40
0006BFE400
ENDCHAR
STARTCHAR ccaron
ENCODING 269
SWIDTH 446 0
DWIDTH 14 0
BBX 13 22 1 0
BITMAP
07001C00
02C0B400
00F2E000
007F8000
002F0000
00000000
00AFE400
07D5FD00
1F007F00
3D003F00
7C001E00
B8000000
B8000000
F8000000
F8000000
FC000000
BC000000
7E000140
3F400700
1FE56D00
0BFFF800
01BF9000
ENDCHAR
STARTCHAR Dcaron
ENCODING 270
SWIDTH 730 0
DWIDTH 23 0
BBX 21 28 1 0
BITMAP
001400140000
000E00B00000
0007D7C00000
0001FF400000
0000BE000000
000000000000
FFFFFE900000
0BF95BFE0000
03F4006FD000
02F40007F400
02F40001FC00
02F40000BE00
02F400007F00
02F400003F40
02F400003F80
02F400002F80
02F400002F80
02F400002F80
02F400002F80
02F400002F80
02F400003F40
02F400003F00
02F400007E00
02F40000FC00
02F40002F400
03F4001FD000
07F556FE4000
FFFFFF900000
ENDCHAR
STARTCHAR dcaron
ENCODING 271
SWIDTH 626 0
DWIDTH 20 0
BBX 19 24 1 0
BITMAP
0000014000
00006FD1F4
00006FD1F4
00000BD1F0
000007D1E0
000007D2D0
000007D2C0
000007D140
006FEBD000
02E57FD000
0F400FD000
2E000BD000
3D0007D000
7C0007D000
BC0007D000
BC0007D000
FC0007D000
FC0007D000
BC0007D000
BD0007D000
7F000BD000
2FD56FD000
0FFFE7F900
02FE47A400
ENDCHAR
STARTCHAR Dcroat
ENCODING 272
SWIDTH 733 0
DWIDTH 23 0
BBX 21 22 1 0
BITMAP
FFFFFE900000
0BF95BFE0000
03F4006FD000
02F40007F400
02F40002FC00
02F40000FE00
02F400007F00
02F400007F40
02F400003F80
02F400003F80
FFFFFE002F80
56F554002F80
02F400002F80
02F400003F80
02F400003F40
02F400007F00
02F40000BE00
02F40000FD00
02F40002F400
03F4001FD000
07F556FE4000
FFFFFF900000
ENDCHAR
STARTCHAR dcroat
ENCODING 273
SWIDTH 540 0
DWIDTH 17 0
BBX 16 24 1 0
BITMAP
00000140
00006FD0
00006FD0
00000BD0
00000BD0
001FFFFD
00055BD4
00000BD0
006FEBD0
02E57FD0
0F400FD0
2E000BD0
3D000BD0
7C000BD0
BC000BD0
BC000BD0
FC000BD0
FC000BD0
BC000BD0
BD000BD0
7F000BD0
2FD56FD0
0FFFE7F9
02FE47A4
ENDCHAR
STARTCHAR Emacron
ENCODING 274
SWIDTH 626 0
DWIDTH 20 0
BBX 18 25 1 0
BITMAP
007FFFF000
0015555000
0000000000
FFFFFFFFC0
0BFAAAAFC0
03F40003C0
02F40001C0
02F40000C0
02F4000080
02F4000000
02F4002800
02F4002800
02F4007800
02FFFFF800
02F555B800
02F4002800
02F4002800
02F4001800
02F4000000
02F4000020
02F4000070
02F40000E0
03F40002E0
07F955AFD0
BFFFFFFFD0
ENDCHAR
STARTCHAR emacron
ENCODING 275
SWIDTH 464 0
DWIDTH 15 0
BBX 13 20 1 0
BITMAP
0FFFFD00
05555400
00000000
00000000
00BF9000
0796F800
1E007D00
3D002F00
7C001F40
B8001F80
BFFFFF80
F9555540
F8000000
BC000000
BD000000
7E000040
3F800240
1FE55E00
07FFF800
00AF9000
ENDCHAR
STARTCHAR Ebreve
ENCODING 276
SWIDTH 626 0
DWIDTH 20 0
BBX 18 28 1 0
BITMAP
0060003000
007000A000
003D46D000
001FFF8000
0006FE0000
0000000000
FFFFFFFFC0
0BFAAAAFC0
03F40003C0
02F40001C0
02F40000C0
02F4000080
02F4000000
02F4002800
02F4002800
02F4007800
02FFFFF800
02F555B800
02F4002800
02F4002800
02F4001800
02F4000000
02F4000020
02F4000070
02F40000E0
03F40002E0
07F955AFD0
BFFFFFFFD0
ENDCHAR
STARTCHAR ebreve
ENCODING 277
SWIDTH 464 0
DWIDTH 15 0
BBX 13 22 1 0
BITMAP
0C000900
0A001C00
07907800
02FFF400
00BF9000
00000000
00BF9000
0796F800
1E007D00
3D002F00
7C001F40
B8001F80
BFFFFF80
F9555540
F8000000
BC000000
BD000000
7E000040
3F800240
1FE55E00
07FFF800
00AF9000
ENDCHAR
STARTCHAR Edotaccent
ENCODING 278
SWIDTH 626 0
DWIDTH 20 0
BBX 18 27 1 0
BITMAP
0000B40000
0001FC0000
0001FC0000
0000B40000
0000000000
FFFFFFFFC0
0BFAAAAFC0
03F40003C0
02F40001C0
02F40000C0
02F4000080
02F4000000
02F4002800
02F4002800
02F4007800
02FFFFF800
02F555B800
02F4002800
02F4002800
02F4001800
02F4000000
02F4000020
02F4000070
02F40000E0
03F40002E0
07F955AFD0
BFFFFFFFD0
ENDCHAR
STARTCHAR edotaccent
ENCODING 279
SWIDTH 464 0
DWIDTH 15 0
BBX 13 22 1 0
BITMAP
001E0000
003F4000
003F4000
001E0000
00000000
00000000
00BF9000
0796F800
1E007D00
3D002F00
7C001F40
B8001F80
BFFFFF80
F9555540
F8000000
BC000000
BD000000
7E000040
3F800240
1FE55E00
07FFF800
00AF9000
ENDCHAR
STARTCHAR Eogonek
ENCODING 280
SWIDTH 625 0
DWIDTH 20 0
BBX 18 29 1 -7
BITMAP
BFFFFFFFC0
07F5556FC0
03F40003C0
02F40001C0
02F40000C0
02F4000080
02F4000000
02F4002800
02F4002800
02F4007800
02FFFFF800
02F555B800
02F4003800
02F4002800
02F4002800
02F4000000
02F4000030
02F4000070
02F40000E0
03F40002E0
07F5555BD0
BFFFFFFFD0
0000001D00
0000007400
000001E000
000002D000
000003D000
000002F5A0
000000BE40
ENDCHAR
STARTCHAR eogonek
ENCODING 281
SWIDTH 464 0
DWIDTH 15 0
BBX 13 23 1 -7
BITMAP
00BF9000
0796F800
1E007D00
3D002F00
7C001F40
B8001F80
BFFFFF80
F9555540
F8000000
BC000000
BD000000
7E000040
3F800280
1FE55F00
07FFFD00
00AFF400
00078000
000E0000
003C0000
00780000
00780000
003D5900
001FE000
ENDCHAR
STARTCHAR Ecaron
ENCODING 282
SWIDTH 626 0
DWIDTH 20 0
BBX 18 28 1 0
BITMAP
0010005000
002D02D000
000F4B4000
0003FE0000
0001F80000
0000000000
FFFFFFFFC0
0BFAAAAFC0
03F40003C0
02F40001C0
02F40000C0
02F4000080
02F4000000
02F4002800
02F4002800
02F4007800
02FFFFF800
02F555B800
02F4002800
02F4002800
02F4001800
02F4000000
02F4000020
02F4000070
02F40000E0
03F40002E0
07F955AFD0
BFFFFFFFD0
ENDCHAR
STARTCHAR ecaron
ENCODING 283
SWIDTH 464 0
DWIDTH 15 0
BBX 13 22 1 0
BITMAP
07001C00
02C07400
00F2E000
007F8000
002F4000
00000000
00BF9000
0796F800
1E007D00
3D002F00
7C001F40
B8001F80
BFFFFF80
F9555540
F8000000
BC000000
BD000000
7E000040
3F800240
1FE55E00
07FFF800
00AF9000
ENDCHAR
STARTCHAR Gcircumflex
ENCODING 284
SWIDTH 720 0
DWIDTH 23 0
BBX 21 28 1 0
BITMAP
00000A400000
00003FC00000
0000BAE00000
0001E0B80000
0007401D0000
000000000000
0001BFE92800
002F956FF800
00FD0007F800
03F00001F800
0BD00000B800
1FC000007800
2F8000003800
3F4000002800
7F0000000000
7F0000000000
7F0000000000
7F00003FFFC0
7F000017FE40
7F000001FC00
3F400001F800
2F800001F800
1FC00001F800
0FD00001F800
07F40001F800
01FD0002F800
007F956FE000
0006BFE90000
ENDCHAR
STARTCHAR gcircumflex
ENCODING 285
SWIDTH 484 0
DWIDTH 15 0
BBX 15 29 0 -7
BITMAP
000BD000
001FE000
003CB800
00B02D00
01C00700
00000000
006FFFFC
02F5BF54
0BC01F80
0F800FC0
1F800BD0
1F800BD0
1F800BC0
0FC00F80
07E46F00
01FFF800
02410000
0B000000
1F400000
1FFFAA40
0FFFFFF0
03FFFFF8
060001B8
1D000038
3D000028
7D000034
3E0000A0
2FE55B40
06FFA400
ENDCHAR
STARTCHAR Gbreve
ENCODING 286
SWIDTH 720 0
DWIDTH 23 0
BBX 21 28 1 0
BITMAP
000900060000
000B000D0000
0007906C0000
0002FFF80000
00006F900000
000000000000
0001BFE92800
002F956FF800
00FD0007F800
03F00001F800
0BD00000B800
1FC000007800
2F8000003800
3F4000002800
7F0000000000
7F0000000000
7F0000000000
7F00003FFFC0
7F000017FE40
7F000001FC00
3F400001F800
2F800001F800
1FC00001F800
0FD00001F800
07F40001F800
01FD0002F800
007F956FE000
0006BFE90000
ENDCHAR
STARTCHAR gbreve
ENCODING 287
SWIDTH 484 0
DWIDTH 15 0
BBX 15 29 0 -7
BITMAP
03000240
02800700
01E41E00
00BFFD00
002FE400
00000000
006FFFFC
02F5BF54
0BC01F80
0F800FC0
1F800BD0
1F800BD0
1F800BC0
0FC00F80
07E46F00
01FFF800
02410000
0B000000
1F400000
1FFFAA40
0FFFFFF0
03FFFFF8
060001B8
1D000038
3D000028
7D000034
3E0000A0
2FE55B40
06FFA400
ENDCHAR
STARTCHAR Gdotaccent
ENCODING 288
SWIDTH 720 0
DWIDTH 23 0
BBX 21 27 1 0
BITMAP
00001F400000
00002F800000
00002F800000
00001F400000
000000000000
0001BFE92800
002F956FF800
00FD0007F800
03F00001F800
0BD00000B800
1FC000007800
2F8000003800
3F4000002800
7F0000000000
7F0000000000
7F0000000000
7F00003FFFC0
7F000017FE40
7F000001FC00
3F400001F800
2F800001F800
1FC00001F800
0FD00001F800
07F40001F800
01FD0002F800
007F956FE000
0006BFE90000
ENDCHAR
STARTCHAR gdotaccent
ENCODING 289
SWIDTH 484 0
DWIDTH 15 0
BBX 15 29 0 -7
BITMAP
00078000
000FD000
000FD000
00078000
00000000
00000000
006FFFFC
02F5BF54
0BC01F80
0F800FC0
1F800BD0
1F800BD0
1F800BC0
0FC00F80
07E46F00
01FFF800
02410000
0B000000
1F400000
1FFFAA40
0FFFFFF0
03FFFFF8
060001B8
1D000038
3D000028
7D000034
3E0000A0
2FE55B40
06FFA400
ENDCHAR
STARTCHAR Gcommaaccent
ENCODING 290
SWIDTH 720 0
DWIDTH 23 0
BBX 21 31 1 -9
BITMAP
0001BFE92800
002F956FF800
00FD0007F800
03F00001F800
0BD00000B800
1FC000007800
2F8000003800
3F4000002800
7F0000000000
7F0000000000
7F0000000000
7F00003FFFC0
7F000017FE40
7F000001FC00
3F400001F800
2F800001F800
1FC00001F800
0FD00001F800
07F40001F800
01FD0002F800
007F956FE000
0006BFE90000
000000000000
00002E000000
00007F400000
00007F800000
00003F800000
000003400000
000007000000
00002D000000
000060000000
ENDCHAR
STARTCHAR gcommaaccent
ENCODING 291
SWIDTH 484 0
DWIDTH 15 0
BBX 15 32 0 -7
BITMAP
00005000
00038000
000E0000
001D0000
001FD000
001FE000
001FE000
000B8000
00000000
006FFFFC
02F5BF54
0BC01F80
0F800FC0
1F800BD0
1F800BD0
1F800BC0
0FC00F80
07E46F00
01FFF800
02410000
0B000000
1F400000
1FFFAA40
0FFFFFF0
03FFFFF8
060001B8
1D000038
3D000028
7D000034
3E0000A0
2FE55B40
06FFA400
ENDCHAR
STARTCHAR Hcircumflex
ENCODING 292
SWIDTH 777 0
DWIDTH 25 0
BBX 23 28 1 0
BITMAP
000006400000
00001FD00000
00007EF40000
0000F47C0000
0002800A0000
000000000000
FFFFD01FFFF8
5BFD4006FF94
03F40000BE00
02F400007E00
02F400007E00
02F400007E00
02F400007E00
02F400007E00
02F400007E00
02F400007E00
02FFFFFFFE00
02F555557E00
02F400007E00
02F400007E00
02F400007E00
02F400007E00
02F400007E00
02F400007E00
02F400007E00
03F40000BE00
5BFD4005FF94
FFFFD01FFFF8
ENDCHAR
STARTCHAR hcircumflex
ENCODING 293
SWIDTH 577 0
DWIDTH 18 0
BBX 17 29 1 0
BITMAP
0006400000
001FE00000
003EF40000
00B42D0000
02800B0000
0140000000
AFC0000000
AFC0000000
0FC0000000
0BC0000000
0BC0000000
0BC0000000
0BC0000000
0BC1BE4000
0BCBFFD000
0BED1BF000
0BE002F000
0BC001F400
0BC001F400
0BC001F400
0BC001F400
0BC001F400
0BC001F400
0BC001F400
0BC001F400
0BC001F400
0FC001F800
6FE406FD40
FFFD2FFF80
ENDCHAR
STARTCHAR Hbar
ENCODING 294
SWIDTH 788 0
DWIDTH 25 0
BBX 23 22 1 0
BITMAP
BFFFE01FFFFC
5BFE4005FF94
03F800007F00
02F400007F00
02F400003E00
02F400003E00
BFFFFFFFFFFC
16F555557F54
02F400003E00
02F400003E00
02FFFFFFFE00
02F555557E00
02F400003E00
02F400003E00
02F400003E00
02F400003E00
02F400003E00
02F400003E00
02F400007F00
02F800007F00
5BFD4005FF94
BFFFE01FFFFC
ENDCHAR
STARTCHAR hbar
ENCODING 295
SWIDTH 579 0
DWIDTH 19 0
BBX 18 24 0 0
BITMAP
0050000000
2BF0000000
2BF0000000
02F0000000
02F0000000
7FFFFC0000
16F5540000
02F0000000
02F06F9000
02F1FFF400
02FB56FC00
02F800BD00
02F0007D00
02F0007D00
02F0007D00
02F0007D00
02F0007D00
02F0007D00
02F0007D00
02F0007D00
02F0007E00
02F0007E00
1BF901BF50
3FFF4BFFF0
ENDCHAR
STARTCHAR Itilde
ENCODING 296
SWIDTH 357 0
DWIDTH 11 0
BBX 10 27 1 0
BITMAP
2FE070
BFFFD0
91AF40
000000
000000
FFFFD0
5BFD40
03F400
02F400
02F400
02F400
02F400
02F400
02F400
02F400
02F400
02F400
02F400
02F400
02F400
02F400
02F400
02F400
02F400
03F400
5BFD40
FFFFD0
ENDCHAR
STARTCHAR itilde
ENCODING 297
SWIDTH 285 0
DWIDTH 9 0
BBX 10 21 -1 0
BITMAP
1FE060
3FFFD0
606F40
000000
000000
05BC00
0BFC00
00FC00
00BC00
00BC00
00BC00
00BC00
00BC00
00BC00
00BC00
00BC00
00BC00
00BC00
00BC00
05FE40
0FFFD0
ENDCHAR
STARTCHAR Imacron
ENCODING 298
SWIDTH 357 0
DWIDTH 11 0
BBX 10 25 1 0
BITMAP
FFFFD0
555540
000000
FFFFD0
5BFD40
03F400
02F400
02F400
02F400
02F400
02F400
02F400
02F400
02F400
02F400
02F400
02F400
02F400
02F400
02F400
02F400
02F400
03F400
5BFD40
FFFFD0
ENDCHAR
STARTCHAR imacron
ENCODING 299
SWIDTH 285 0
DWIDTH 9 0
BBX 9 20 0 0
BITMAP
FFFF00
555500
000000
000000
16F000
2FF000
03F000
02F000
02F000
02F000
02F000
02F000
02F000
02F000
02F000
02F000
02F000
02F000
17F900
3FFF40
ENDCHAR
STARTCHAR Ibreve
ENCODING 300
SWIDTH 357 0
DWIDTH 11 0
BBX 10 28 1 0
BITMAP
C00090
A001D0
7917C0
3FFF40
0BF900
000000
FFFFD0
5BFD40
03F400
02F400
02F400
02F400
02F400
02F400
02F400
02F400
02F400
02F400
02F400
02F400
02F400
02F400
02F400
02F400
02F400
03F400
5BFD40
FFFFD0
ENDCHAR
STARTCHAR ibreve
ENCODING 301
SWIDTH 285 0
DWIDTH 9 0
BBX 10 23 -1 0
BITMAP
6000C0
3000C0
340280
2D0740
0FFE00
02F800
000000
05BC00
0BFC00
00FC00
00BC00
00BC00
00BC00
00BC00
00BC00
00BC00
00BC00
00BC00
00BC00
00BC00
00BC00
05FE40
0FFFD0
ENDCHAR
STARTCHAR Iogonek
ENCODING 302
SWIDTH 357 0
DWIDTH 11 0
BBX 10 29 1 -7
BITMAP
FFFFD0
5BFD40
03F400
02F400
02F400
02F400
02F400
02F400
02F400
02F400
02F400
02F400
02F400
02F400
02F400
02F400
02F400
02F400
02F400
03F400
5BFD40
FFFFD0
00A000
028000
0B4000
0F0000
1F0000
0F9640
06F800
ENDCHAR
STARTCHAR iogonek
ENCODING 303
SWIDTH 285 0
DWIDTH 9 0
BBX 8 30 1 -7
BITMAP
0B80
0FD0
0FD0
0780
0000
0000
0000
5BC0
BFC0
0FC0
0BC0
0BC0
0BC0
0BC0
0BC0
0BC0
0BC0
0BC0
0BC0
0BC0
0BC0
5FE4
FFFD
0740
1D00
3800
7800
B800
7D58
1FE0
ENDCHAR
STARTCHAR Idotaccent
ENCODING 304
SWIDTH 357 0
DWIDTH 11 0
BBX 10 27 1 0
BITMAP
01E000
03F400
03F400
01E000
000000
FFFFD0
5BFD40
03F400
02F400
02F400
02F400
02F400
02F400
02F400
02F400
02F400
02F400
02F400
02F400
02F400
02F400
02F400
02F400
02F400
03F400
5BFD40
FFFFD0
ENDCHAR
STARTCHAR dotlessi
ENCODING 305
SWIDTH 285 0
DWIDTH 9 0
BBX 8 16 1 0
BITMAP
5BC0
BFC0
0FC0
0BC0
0BC0
0BC0
0BC0
0BC0
0BC0
0BC0
0BC0
0BC0
0BC0
0BC0
5FE4
FFFD
ENDCHAR
STARTCHAR IJ
ENCODING 306
SWIDTH 753 0
DWIDTH 24 0
BBX 23 22 1 0
BITMAP
FFFFD02FFFF4
5BFD4006FF90
03F40000BE00
02F40000BE00
02F400007D00
02F400007D00
02F400007D00
02F400007D00
02F400007D00
02F400007D00
02F400007D00
02F400007D00
02F400007D00
02F400007D00
02F400007D00
02F400007D00
02F400007D00
02F401007D00
02F407C0BD00
03F40BE0BC00
5BFD47F5F400
FFFFD1BF9000
ENDCHAR
STARTCHAR ij
ENCODING 307
SWIDTH 548 0
DWIDTH 18 0
BBX 15 29 1 -7
BITMAP
0B8002E0
0FD007F4
0FD007F4
078002E0
00000000
00000000
5BC016F0
BFC02FF0
0FC002F0
0BC002F0
0BC002F0
0BC002F0
0BC002F0
0BC002F0
0BC002F0
0BC002F0
0BC002F0
0BC002F0
0BC002F0
0BC002F0
5FE402F0
FFFD02F0
000002F0
000002F0
000002E0
001902D0
003F43C0
002FDB40
000BF900
ENDCHAR
STARTCHAR Jcircumflex
ENCODING 308
SWIDTH 396 0
DWIDTH 13 0
BBX 12 28 0 0
BITMAP
000640
001FE0
003EF4
00F42D
02800B
000000
03FFFF
016FF5
000FD0
000FC0
000FC0
000FC0
000FC0
000FC0
000FC0
000FC0
000FC0
000FC0
000FC0
000FC0
000FC0
000FC0
000FC0
100FC0
B80FC0
FD0F80
BF6F00
2FE800
ENDCHAR
STARTCHAR jcircumflex
ENCODING 309
SWIDTH 263 0
DWIDTH 8 0
BBX 12 29 -3 -7
BITMAP
001F80
003FD0
00B5F0
01D078
03401D
000000
005BC0
00BFC0
000FC0
000BC0
000BC0
000BC0
000BC0
000BC0
000BC0
000BC0
000BC0
000BC0
000BC0
000BC0
000BC0
000BC0
000B80
000B80
000F80
640F40
FC0F00
BF6D00
2FE000
ENDCHAR
STARTCHAR Kcommaaccent
ENCODING 310
SWIDTH 702 0
DWIDTH 22 0
BBX 22 31 1 -9
BITMAP
FFFFD0FFFF00
5BFD406FF500
03F4001F8000
02F4002E0000
02F400780000
02F401E00000
02F407800000
02F41E000000
02F474000000
02F5D0000000
02FBD0000000
02FBF4000000
02F6FD000000
02F4BF400000
02F42FD00000
02F40BF40000
02F402FD0000
02F400BF4000
02F4002FD000
03F4001FF400
5BFD405FFE40
FFFFD0FFFFD0
000000000000
00003E000000
0000BF400000
0000BF400000
00007F400000
000007400000
00000A000000
00002C000000
000050000000
ENDCHAR
STARTCHAR kcommaaccent
ENCODING 311
SWIDTH 542 0
DWIDTH 17 0
BBX 17 33 1 -9
BITMAP
0140000000
AFC0000000
AFC0000000
0FC0000000
0BC0000000
0BC0000000
0BC0000000
0BC0000000
0BC0BFFC00
0BC06FD400
0BC02E0000
0BC0780000
0BC1D00000
0BC7400000
0BDD000000
0BFF400000
0BDFC00000
0BC7F00000
0BC2F80000
0BC0BE0000
0BC02F8000
0FC00FD000
6FE41BF900
FFFD2FFF40
0000000000
000B800000
001FE00000
001FF00000
000BF00000
0000A00000
0001D00000
0007400000
0009000000
ENDCHAR
STARTCHAR kgreenlandic
ENCODING 312
SWIDTH 542 0
DWIDTH 17 0
BBX 17 16 1 0
BITMAP
1BC07FFC00
FFC01FE400
0FC01F4000
0BC03C0000
0BC0E00000
0BC3800000
0BCE000000
0BFF000000
0BEF800000
0BCBE00000
0BC2F80000
0BC0BE0000
0BC02F8000
0FC00FE000
5FE41BF900
FFFD2FFF40
ENDCHAR
STARTCHAR Lacute
ENCODING 313
SWIDTH 585 0
DWIDTH 19 0
BBX 17 27 1 0
BITMAP
000FD00000
003F400000
00B8000000
02D0000000
0000000000
BFFFD00000
5BFE400000
03F4000000
02F4000000
02F4000000
02F4000000
02F4000000
02F4000000
02F4000000
02F4000000
02F4000000
02F4000000
02F4000000
02F4000000
02F4000000
02F4000040
02F40000C0
02F40002C0
02F4000380
03F4000B80
07F9556F40
BFFFFFFF40
ENDCHAR
STARTCHAR lacute
ENCODING 314
SWIDTH 283 0
DWIDTH 9 0
BBX 8 28 1 0
BITMAP
01FD
03F4
0F80
2D00
0140
AFC0
AFC0
0FC0
0BC0
0BC0
0BC0
0BC0
0BC0
0BC0
0BC0
0BC0
0BC0
0BC0
0BC0
0BC0
0BC0
0BC0
0BC0
0BC0
0BC0
0FC0
6FE4
FFFD
ENDCHAR
STARTCHAR Lcommaaccent
ENCODING 315
SWIDTH 585 0
DWIDTH 19 0
BBX 17 31 1 -9
BITMAP
BFFFD00000
5BFE400000
03F4000000
02F4000000
02F4000000
02F4000000
02F4000000
02F4000000
02F4000000
02F4000000
02F4000000
02F4000000
02F4000000
02F4000000
02F4000000
02F4000040
02F40000C0
02F40002C0
02F4000380
03F4000B80
07F9556F40
BFFFFFFF40
0000000000
0002E00000
000BF40000
000BF40000
0007F40000
0000740000
0000B00000
0002C00000
0005000000
ENDCHAR
STARTCHAR lcommaaccent
ENCODING 316
SWIDTH 283 0
DWIDTH 9 0
BBX 8 33 1 -9
BITMAP
0140
AFC0
AFC0
0FC0
0BC0
0BC0
0BC0
0BC0
0BC0
0BC0
0BC0
0BC0
0BC0
0BC0
0BC0
0BC0
0BC0
0BC0
0BC0
0BC0
0BC0
0FC0
6FE4
FFFD
0000
0B80
1FD0
1FE0
0FE0
00D0
01C0
0B40
1800
ENDCHAR
STARTCHAR Lcaron
ENCODING 317
SWIDTH 585 0
DWIDTH 19 0
BBX 17 22 1 0
BITMAP
BFFFD07D00
5BFE407C00
03F4007C00
02F400B800
02F400B400
02F400A000
02F4005000
02F4000000
02F4000000
02F4000000
02F4000000
02F4000000
02F4000000
02F4000000
02F4000000
02F4000040
02F40000C0
02F40002C0
02F4000380
03F4000B80
07F9556F40
BFFFFFFF40
ENDCHAR
STARTCHAR lcaron
ENCODING 318
SWIDTH 366 0
DWIDTH 12 0
BBX 10 24 1 0
BITMAP
014000
AFC2F0
AFC2F0
0FC2E0
0BC2D0
0BC2C0
0BC380
0BC100
0BC000
0BC000
0BC000
0BC000
0BC000
0BC000
0BC000
0BC000
0BC000
0BC000
0BC000
0BC000
0BC000
0FC000
6FE400
FFFD00
ENDCHAR
STARTCHAR Ldot
ENCODING 319
SWIDTH 605 0
DWIDTH 19 0
BBX 17 22 1 0
BITMAP
BFFFD00000
5BFE400000
03F4000000
02F4000000
02F4000000
02F4000000
02F4000000
02F4000000
02F4002E00
02F4007F00
02F4007F00
02F4002E00
02F4000000
02F4000000
02F4000000
02F4000040
02F40000C0
02F40002C0
02F4000380
03F4000B80
07F9556F40
BFFFFFFF40
ENDCHAR
STARTCHAR ldot
ENCODING 320
SWIDTH 357 0
DWIDTH 11 0
BBX 11 24 1 0
BITMAP
014000
AFC000
AFC000
0FC000
0BC000
0BC000
0BC000
0BC000
0BC000
0BC000
0BC0B4
0BC2FC
0BC1FC
0BC0B4
0BC000
0BC000
0BC000
0BC000
0BC000
0BC000
0BC000
0FC000
6FE400
FFFD00
ENDCHAR
STARTCHAR Lslash
ENCODING 321
SWIDTH 590 0
DWIDTH 19 0
BBX 18 22 1 0
BITMAP
7FFFE00000
1BFE400000
02F8000000
02F4000000
02F4000000
02F4000000
02F4010000
02F41E0000
02F5B40000
02FB800000
02FD000000
02F4000000
1FF4000000
B6F4000000
42F4000000
02F4000040
02F40000D0
02F40001C0
02F40002C0
02F4000780
07FD556F80
7FFFFFFF40
ENDCHAR
STARTCHAR lslash
ENCODING 322
SWIDTH 290 0
DWIDTH 9 0
BBX 9 24 0 0
BITMAP
005000
1BF000
2BF000
02F000
02F000
02F000
02F000
02F000
02F140
02FB40
02FD00
02F000
0BF000
7EF000
62F000
02F000
02F000
02F000
02F000
02F000
02F000
02F000
17F900
3FFF40
ENDCHAR
STARTCHAR Nacute
ENCODING 323
SWIDTH 742 0
DWIDTH 24 0
BBX 22 27 1 0
BITMAP
000003F80000
00000BD00000
00002E000000
0000B4000000
000000000000
FFE0000BFFF0
6FF40005BF50
07FD00003D00
03FF00002C00
03FF80002C00
03AFD0002C00
038FF4002C00
0387FC002C00
0381FE002C00
0380BF402C00
03802FC02C00
03800FE02C00
038007F82C00
038002FD2C00
038000BF2C00
0380003FAC00
0380001FFC00
0380000BFC00
03800002FC00
07800000FC00
5FE400007C00
FFFD00001C00
ENDCHAR
STARTCHAR nacute
ENCODING 324
SWIDTH 576 0
DWIDTH 18 0
BBX 17 22 1 0
BITMAP
00003F0000
0000BD0000
0000F40000
0001E00000
0003800000
0000000000
1BC1BE4000
FFC7FFD000
0FE90BF000
0BE002F000
0BC001F400
0BC001F400
0BC001F400
0BC001F400
0BC001F400
0BC001F400
0BC001F400
0BC001F400
0BC001F400
0BC001F400
5FE406FD40
FFFD2FFF80
ENDCHAR
STARTCHAR Ncommaaccent
ENCODING 325
SWIDTH 742 0
DWIDTH 24 0
BBX 22 31 1 -9
BITMAP
FFE0000BFFF0
6FF40005BF50
07FD00003D00
03FF00002C00
03FF80002C00
03AFD0002C00
038FF4002C00
0387FC002C00
0381FE002C00
0380BF402C00
03802FC02C00
03800FE02C00
038007F82C00
038002FD2C00
038000BF2C00
0380003FAC00
0380001FFC00
0380000BFC00
03800002FC00
07800000FC00
5FE400007C00
FFFD00001C00
000000000000
00002E000000
00007F400000
00007F800000
00003F800000
000003400000
000007000000
00002D000000
000060000000
ENDCHAR
STARTCHAR ncommaaccent
ENCODING 326
SWIDTH 576 0
DWIDTH 18 0
BBX 17 25 1 -9
BITMAP
1BC1BE4000
FFC7FFD000
0FE90BF000
0BE002F000
0BC001F400
0BC001F400
0BC001F400
0BC001F400
0BC001F400
0BC001F400
0BC001F400
0BC001F400
0BC001F400
0BC001F400
5FE406FD40
FFFD2FFF80
0000000000
0007D00000
000FF00000
000FF00000
0007F00000
0000B00000
0000E00000
0007800000
0009000000
ENDCHAR
STARTCHAR Ncaron
ENCODING 327
SWIDTH 742 0
DWIDTH 24 0
BBX 22 28 1 0
BITMAP
000500050000
0002D02C0000
0000F4F40000
00007FD00000
00001F800000
000000000000
FFE0000BFFF0
6FF40005BF50
07FD00003D00
03FF00002C00
03FF80002C00
03AFD0002C00
038FF4002C00
0387FC002C00
0381FE002C00
0380BF402C00
03802FC02C00
03800FE02C00
038007F82C00
038002FD2C00
038000BF2C00
0380003FAC00
0380001FFC00
0380000BFC00
03800002FC00
07800000FC00
5FE400007C00
FFFD00001C00
ENDCHAR
STARTCHAR ncaron
ENCODING 328
SWIDTH 576 0
DWIDTH 18 0
BBX 17 22 1 0
BITMAP
00A0028000
00280B0000
001E2D0000
0007F80000
0002F00000
0000000000
1BC1BE4000
FFC7FFD000
0FE90BF000
0BE002F000
0BC001F400
0BC001F400
0BC001F400
0BC001F400
0BC001F400
0BC001F400
0BC001F400
0BC001F400
0BC001F400
0BC001F400
5FE406FD40
FFFD2FFF80
ENDCHAR
STARTCHAR napostrophe
ENCODING 329
SWIDTH 576 0
DWIDTH 18 0
BBX 23 24 -5 0
BITMAP
7E0000000000
BF4000000000
BF8000000000
7F8000000000
034000000000
070000000000
1D0000000000
740000000000
0001BC1BE400
000FFC7FFD00
0000FE90BF00
0000BE002F00
0000BC001F40
0000BC001F40
0000BC001F40
0000BC001F40
0000BC001F40
0000BC001F40
0000BC001F40
0000BC001F40
0000BC001F40
0000BC001F40
0005FE406FD4
000FFFD2FFF8
ENDCHAR
STARTCHAR Eng
ENCODING 330
SWIDTH 742 0
DWIDTH 24 0
BBX 22 29 1 -7
BITMAP
FFE0000BFFF0
6FF40005BF50
07FD00003D00
03FF00002C00
03FF80002C00
03AFD0002C00
038FF0002C00
0387F8002C00
0381FE002C00
0380BF402C00
03803FC02C00
03801FE02C00
03800BF42C00
038002FD2C00
038000FE2C00
0380007FAC00
0380002FFC00
0380000FFC00
03800007FC00
07800001FC00
5FE40000BC00
FFFD00003C00
000000002C00
000000002C00
000000002800
000006403800
00000FD0B400
00000FFAE000
000006FE4000
ENDCHAR
STARTCHAR eng
ENCODING 331
SWIDTH 559 0
DWIDTH 18 0
BBX 15 23 1 -7
BITMAP
1BC1BE40
FFC7FFD0
0FE90BF0
0BE002F0
0BC001F4
0BC001F4
0BC001F4
0BC001F4
0BC001F4
0BC001F4
0BC001F4
0BC001F4
0BC001F4
0BC001F4
5FE401F4
FFFD01F4
000001F4
000001F4
000001F0
000501F0
001F42D0
001FEB80
0006F900
ENDCHAR
STARTCHAR Omacron
ENCODING 332
SWIDTH 738 0
DWIDTH 24 0
BBX 21 25 1 0
BITMAP
000FFFFE0000
000555540000
000000000000
0006BFE40000
002F95BF8000
01FD000BE000
03F00002F800
0BD00000FD00
1FC000007F00
2F8000003F40
3F4000002F80
3F0000002FC0
7F0000001FC0
7F0000001FC0
7F0000001FC0
7F0000001FC0
7F4000002F80
3F4000002F80
2F8000003F40
1FC000007E00
0BD00000BD00
03F00001F800
01FD0007E000
002F956F4000
0006BFE40000
ENDCHAR
STARTCHAR omacron
ENCODING 333
SWIDTH 514 0
DWIDTH 16 0
BBX 15 20 1 0
BITMAP
07FFFF00
01555500
00000000
00000000
006FE400
07E5BE00
1F401F80
2E0007D0
7D0003F0
BD0002F0
BC0002F4
FC0002F4
FC0002F4
BD0002F4
BD0002F0
7E0003E0
3F0007D0
1F800B80
07E56E00
00AFE400
ENDCHAR
STARTCHAR Obreve
ENCODING 334
SWIDTH 738 0
DWIDTH 24 0
BBX 21 28 1 0
BITMAP
000D00090000
000A000D0000
0007917C0000
0002FFF40000
0000BF900000
000000000000
0006BFE40000
002F95BF8000
01FD000BE000
03F00002F800
0BD00000FD00
1FC000007F00
2F8000003F40
3F4000002F80
3F0000002FC0
7F0000001FC0
7F0000001FC0
7F0000001FC0
7F0000001FC0
7F4000002F80
3F4000002F80
2F8000003F40
1FC000007E00
0BD00000BD00
03F00001F800
01FD0007E000
002F956F4000
0006BFE40000
ENDCHAR
STARTCHAR obreve
ENCODING 335
SWIDTH 514 0
DWIDTH 16 0
BBX 15 22 1 0
BITMAP
06000300
03400A00
03D02D00
01FFF800
006FE000
00000000
006FE400
07E5BE00
1F401F80
2E0007D0
7D0003F0
BD0002F0
BC0002F4
FC0002F4
FC0002F4
BD0002F4
BD0002F0
7E0003E0
3F0007D0
1F800B80
07E56E00
00AFE400
ENDCHAR
STARTCHAR Ohungarumlaut
ENCODING 336
SWIDTH 738 0
DWIDTH 24 0
BBX 21 27 1 0
BITMAP
00001FCBE000
00002E1F8000
0000783D0000
0001D0A00000
000000000000
0006BFE40000
002F95BF8000
01FD000BE000
03F00002F800
0BD00000FD00
1FC000007F00
2F8000003F40
3F4000002F80
3F0000002FC0
7F0000001FC0
7F0000001FC0
7F0000001FC0
7F0000001FC0
7F4000002F80
3F4000002F80
2F8000003F40
1FC000007E00
0BD00000BD00
03F00001F800
01FD0007E000
002F956F4000
0006BFE40000
ENDCHAR
STARTCHAR ohungarumlaut
ENCODING 337
SWIDTH 514 0
DWIDTH 16 0
BBX 15 22 1 0
BITMAP
000BDBE0
001F8F80
002E1F00
00382C00
00707400
00000000
006FE400
07E5BE00
1F401F80
2E0007D0
7D0003F0
BD0002F0
BC0002F4
FC0002F4
FC0002F4
BD0002F4
BD0002F0
7E0003E0
3F0007D0
1F800B80
07E56E00
00AFE400
ENDCHAR
STARTCHAR OE
ENCODING 338
SWIDTH 945 0
DWIDTH 30 0
BBX 29 22 1 0
BITMAP
0006BFFFFFFFFD00
002F95BF9555BD00
01FD002F80001D00
03F4001F80000D00
0BD0001F80000900
1FC0001F80000000
2F80001F80018000
3F40001F80018000
7F00001F80028000
7F00001F80078000
7F00001FFFFF8000
7F00001F95578000
7F00001F80018000
7F00001F80018000
3F40001F80000000
2F80001F80000100
1FC0001F80000340
0BD0001F80000700
07F0001F80000B00
01FC002F80002E00
002F95BFD55AFE00
0006BFFFFFFFFD00
ENDCHAR
STARTCHAR oe
ENCODING 339
SWIDTH 807 0
DWIDTH 26 0
BBX 24 16 1 0
BITMAP
006FA001BE40
07E5BD0F5BE0
1F401F7C01F4
3E000BF400BC
7D0007F0007D
BD0003F0007E
BC0003FFFFFE
FC0003F55554
FC0002F00000
BC0003F00000
BD0003F40000
7E0003FC0001
3F0007FE0009
1F800FBF9578
07E57D1FFFE0
00AFE002FE40
ENDCHAR
STARTCHAR Racute
ENCODING 340
SWIDTH 659 0
DWIDTH 21 0
BBX 21 27 1 0
BITMAP
00007F400000
0000FD000000
0002E0000000
000B40000000
000000000000
BFFFFE400000
07F95BF80000
03F400FE0000
02F4007F0000
02F4003F4000
02F4002F4000
02F4002F4000
02F4003F4000
02F4007E0000
02F401FC0000
02F41BE00000
02FFFE400000
02F5BE000000
02F42F800000
02F40FE00000
02F407F40000
02F402FC0000
02F400FE0000
02F4007F4000
03F4002FD000
1BFD400FF900
BFFFD007FF40
ENDCHAR
STARTCHAR racute
ENCODING 341
SWIDTH 380 0
DWIDTH 12 0
BBX 11 22 1 0
BITMAP
001F80
003F00
007C00
00B400
01D000
000000
06C1F4
BFC7FC
5FCFFC
0BE4B4
0BE000
0BC000
0BC000
0BC000
0BC000
0BC000
0BC000
0BC000
0BC000
0BC000
5FE500
FFFF00
ENDCHAR
STARTCHAR Rcommaaccent
ENCODING 342
SWIDTH 659 0
DWIDTH 21 0
BBX 21 31 1 -9
BITMAP
BFFFFE400000
07F95BF80000
03F400FE0000
02F4007F0000
02F4003F4000
02F4002F4000
02F4002F4000
02F4003F4000
02F4007E0000
02F401FC0000
02F41BE00000
02FFFE400000
02F5BE000000
02F42F800000
02F40FE00000
02F407F40000
02F402FC0000
02F400FE0000
02F4007F4000
03F4002FD000
1BFD400FF900
BFFFD007FF40
000000000000
0000B8000000
0001FE000000
0001FE000000
0000BE000000
00000E000000
00001D000000
000074000000
000080000000
ENDCHAR
STARTCHAR rcommaaccent
ENCODING 343
SWIDTH 380 0
DWIDTH 12 0
BBX 11 25 1 -9
BITMAP
06C1F4
BFC7FC
5FCFFC
0BE4B4
0BE000
0BC000
0BC000
0BC000
0BC000
0BC000
0BC000
0BC000
0BC000
0BC000
5FE500
FFFF00
000000
07D000
0FF000
0FF000
07F000
00B000
00E000
068000
050000
ENDCHAR
STARTCHAR Rcaron
ENCODING 344
SWIDTH 659 0
DWIDTH 21 0
BBX 21 28 1 0
BITMAP
005000500000
003802C00000
001F5F000000
0007FD000000
0002F8000000
000000000000
BFFFFE400000
07F95BF80000
03F400FE0000
02F4007F0000
02F4003F4000
02F4002F4000
02F4002F4000
02F4003F4000
02F4007E0000
02F401FC0000
02F41BE00000
02FFFE400000
02F5BE000000
02F42F800000
02F40FE00000
02F407F40000
02F402FC0000
02F400FE0000
02F4007F4000
03F4002FD000
1BFD400FF900
BFFFD007FF40
ENDCHAR
STARTCHAR rcaron
ENCODING 345
SWIDTH 380 0
DWIDTH 12 0
BBX 11 22 1 0
BITMAP
380090
1E0380
078F00
02FD00
00F800
000000
06C1F4
BFC7FC
5FCFFC
0BE4B4
0BE000
0BC000
0BC000
0BC000
0BC000
0BC000
0BC000
0BC000
0BC000
0BC000
5FE500
FFFF00
ENDCHAR
STARTCHAR Sacute
ENCODING 346
SWIDTH 504 0
DWIDTH 16 0
BBX 14 27 1 0
BITMAP
0007F400
000FD000
002E0000
00B40000
00000000
01BFE5C0
0BD5BFC0
2F000BC0
3D0003C0
7D0002C0
7E0001C0
7F4000C0
3FD00000
1FF80000
0BFF4000
01FFF400
002FFE00
0006FF80
00007FD0
00001FE0
D00007F0
A00003F0
B00003F0
B40003E0
BD000BC0
BF956F40
A5BFE400
ENDCHAR
STARTCHAR sacute
ENCODING 347
SWIDTH 394 0
DWIDTH 13 0
BBX 11 22 1 0
BITMAP
001FC0
002F40
007D00
00B400
00D000
000000
06FE60
2E5BE0
7800E0
B800A0
BC0030
7F4000
3FE000
0BFE00
01FFC0
002FF0
9003F8
9000F8
A000F8
B400F4
BE57E0
96FE40
ENDCHAR
STARTCHAR Scircumflex
ENCODING 348
SWIDTH 504 0
DWIDTH 16 0
BBX 14 28 1 0
BITMAP
000A4000
003FC000
00BAE000
02E0B800
07401D00
00000000
01BFE5C0
0BD5BFC0
2F000BC0
3D0003C0
7D0002C0
7E0001C0
7F4000C0
3FD00000
1FF80000
0BFF4000
01FFF400
002FFE00
0006FF80
00007FD0
00001FE0
D00007F0
A00003F0
B00003F0
B40003E0
BD000BC0
BF956F40
A5BFE400
ENDCHAR
STARTCHAR scircumflex
ENCODING 349
SWIDTH 394 0
DWIDTH 13 0
BBX 11 22 1 0
BITMAP
00F800
02FE00
078B40
0E02C0
2800A0
000000
06FE60
2E5BE0
7800E0
B800A0
BC0030
7F4000
3FE000
0BFE00
01FFC0
002FF0
9003F8
9000F8
A000F8
B400F4
BE57E0
96FE40
ENDCHAR
STARTCHAR uni015E
ENCODING 350
SWIDTH 504 0
DWIDTH 16 0
BBX 14 30 1 -8
BITMAP
01BFE5C0
0BD5BFC0
2F000BC0
3D0003C0
7D0002C0
7E0001C0
7F4000C0
3FD00000
1FF80000
0BFF4000
01FFF400
002FFE00
0006FF80
00007FD0
00001FE0
D00007F0
A00003F0
B00003F0
B40003E0
BD000BC0
BF956F40
A5BFE400
00080000
00180000
002F9000
0005F000
0000F000
0051E000
007F8000
00040000
ENDCHAR
STARTCHAR uni015F
ENCODING 351
SWIDTH 394 0
DWIDTH 13 0
BBX 11 23 1 -7
BITMAP
06FE60
2E5BE0
7800E0
B800A0
BC0030
7F4000
3FE000
0BFE00
01FFC0
002FF0
9003F8
9000F8
A000F8
B400F4
BE57E0
96FE40
008000
00C000
01FD00
005F40
000B40
050B00
06FD00
ENDCHAR
STARTCHAR Scaron
ENCODING 352
SWIDTH 504 0
DWIDTH 16 0
BBX 14 28 1 0
BITMAP
05000500
02D02C00
00F4F400
007FD000
001F8000
00000000
01BFE5C0
0BD5BFC0
2F000BC0
3D0003C0
7D0002C0
7E0001C0
7F4000C0
3FD00000
1FF80000
0BFF4000
01FFF400
002FFE00
0006FF80
00007FD0
00001FE0
D00007F0
A00003F0
B00003F0
B40003E0
BD000BC0
BF956F40
A5BFE400
ENDCHAR
STARTCHAR scaron
ENCODING 353
SWIDTH 394 0
DWIDTH 13 0
BBX 11 22 1 0
BITMAP
2800A0
0E0280
078B40
02FD00
00F800
000000
06FE60
2E5BE0
7800E0
B800A0
BC0030
7F4000
3FE000
0BFE00
01FFC0
002FF0
9003F8
9000F8
A000F8
B400F4
BE57E0
96FE40
ENDCHAR
STARTCHAR uni0162
ENCODING 354
SWIDTH 603 0
DWIDTH 19 0
BBX 19 30 0 -8
BITMAP
7FFFFFFFF8
7E55FD56F8
7800FC0078
7000FC0028
6000FC0018
5000FC0018
0000FC0000
0000FC0000
0000FC0000
0000FC0000
0000FC0000
0000FC0000
0000FC0000
0000FC0000
0000FC0000
0000FC0000
0000FC0000
0000FC0000
0000FD0000
0000FD0000
0016FF5000
003FFFF400
0000600000
0000500000
0000BE0000
0000178000
0000038000
0001078000
0002FE0000
0000100000
ENDCHAR
STARTCHAR uni0163
ENCODING 355
SWIDTH 315 0
DWIDTH 10 0
BBX 9 29 1 -8
BITMAP
004000
028000
078000
0B8000
2F8000
BFFF40
5F9500
0F8000
0F8000
0F8000
0F8000
0F8000
0F8000
0F8000
0F8000
0F8000
0F8000
0F8000
0FC180
0BFF00
02F800
008000
008000
01F900
005F00
000B00
051F00
07FD00
004000
ENDCHAR
STARTCHAR Tcaron
ENCODING 356
SWIDTH 603 0
DWIDTH 19 0
BBX 19 28 0 0
BITMAP
0014001000
001E01E000
0007878000
0002FF0000
0000BD0000
0000000000
7FFFFFFFF8
7E55FD56F8
7800FC0078
7000FC0028
6000FC0018
5000FC0018
0000FC0000
0000FC0000
0000FC0000
0000FC0000
0000FC0000
0000FC0000
0000FC0000
0000FC0000
0000FC0000
0000FC0000
0000FC0000
0000FC0000
0000FD0000
0000FD0000
0016FF5000
003FFFF400
ENDCHAR
STARTCHAR tcaron
ENCODING 357
SWIDTH 353 0
DWIDTH 11 0
BBX 10 23 1 0
BITMAP
0002F0
0002F0
0042E0
0283D0
0783C0
0B8340
2F8100
BFFF40
5F9500
0F8000
0F8000
0F8000
0F8000
0F8000
0F8000
0F8000
0F8000
0F8000
0F8000
0F8000
0FC180
0BFF00
02F800
ENDCHAR
STARTCHAR Tbar
ENCODING 358
SWIDTH 603 0
DWIDTH 19 0
BBX 19 22 0 0
BITMAP
7FFFFFFFF8
7E55FD56F8
7800FC0078
7000FC0028
6000FC0028
6000FC0018
0000FC0000
0000FC0000
0000FC0000
0000FC0000
00FFFFFD00
0055FD5400
0000FC0000
0000FC0000
0000FC0000
0000FC0000
0000FC0000
0000FC0000
0000FD0000
0000FD0000
0016FF5000
003FFFF400
ENDCHAR
STARTCHAR tbar
ENCODING 359
SWIDTH 328 0
DWIDTH 11 0
BBX 9 21 1 0
BITMAP
004000
028000
038000
0B8000
1F8000
BFFF40
5F9500
0F8000
0F8000
0F8000
BFFF40
1F9500
0F8000
0F8000
0F8000
0F8000
0F8000
0F8000
0BD180
07FF40
02F900
ENDCHAR
STARTCHAR Utilde
ENCODING 360
SWIDTH 752 0
DWIDTH 24 0
BBX 24 27 0 0
BITMAP
00002FE07000
0000BFFFD000
0000D1AF8000
000000000000
000000000000
7FFFF001FFFD
1BFE50006FE4
01FC00000B80
01F800000780
01F800000780
01F800000740
01F800000740
01F800000740
01F800000740
01F800000740
01F800000740
01F800000740
01F800000740
01F800000740
00F800000740
00FC00000B40
00FC00000B00
00BE00000E00
007F40002D00
002FE405F800
000BFFFFE000
0000AFFA0000
ENDCHAR
STARTCHAR utilde
ENCODING 361
SWIDTH 570 0
DWIDTH 18 0
BBX 17 21 1 0
BITMAP
00BE41C000
02FFFF4000
0346BE0000
0000000000
0000000000
AB802AF000
AF801BF000
1F8002F000
0F8002F000
0F8002F000
0F8002F000
0F8002F000
0F8002F000
0F8002F000
0F8002F000
0F8002F000
0F8002F000
0FC007F000
0BE01EF400
03FFF5FE40
01BE41E900
ENDCHAR
STARTCHAR Umacron
ENCODING 362
SWIDTH 752 0
DWIDTH 24 0
BBX 24 25 0 0
BITMAP
0000FFFFD000
000055554000
000000000000
7FFFF001FFFD
1BFE50006FE4
01FC00000B80
01F800000780
01F800000780
01F800000740
01F800000740
01F800000740
01F800000740
01F800000740
01F800000740
01F800000740
01F800000740
01F800000740
00F800000740
00FC00000B40
00FC00000B00
00BE00000E00
007F40002D00
002FE405F800
000BFFFFE000
0000AFFA0000
ENDCHAR
STARTCHAR umacron
ENCODING 363
SWIDTH 570 0
DWIDTH 18 0
BBX 17 20 1 0
BITMAP
03FFFF4000
0155550000
0000000000
0000000000
AB802AF000
AF801BF000
1F8002F000
0F8002F000
0F8002F000
0F8002F000
0F8002F000
0F8002F000
0F8002F000
0F8002F000
0F8002F000
0F8002F000
0FC007F000
0BE01EF400
03FFF5FE40
01BE41E900
ENDCHAR
STARTCHAR Ubreve
ENCODING 364
SWIDTH 752 0
DWIDTH 24 0
BBX 24 28 0 0
BITMAP
0000C0009000
0000A000D000
00007917C000
00002FFF4000
00000BF90000
000000000000
7FFFF001FFFD
1BFE50006FE4
01FC00000B80
01F800000780
01F800000780
01F800000740
01F800000740
01F800000740
01F800000740
01F800000740
01F800000740
01F800000740
01F800000740
01F800000740
00F800000740
00FC00000B40
00FC00000B00
00BE00000E00
007F40002D00
002FE405F800
000BFFFFE000
0000AFFA0000
ENDCHAR
STARTCHAR ubreve
ENCODING 365
SWIDTH 570 0
DWIDTH 18 0
BBX 17 22 1 0
BITMAP
0340024000
0280034000
01E41F0000
00BFFD0000
002FE40000
0000000000
AB802AF000
AF801BF000
1F8002F000
0F8002F000
0F8002F000
0F8002F000
0F8002F000
0F8002F000
0F8002F000
0F8002F000
0F8002F000
0F8002F000
0FC007F000
0BE01EF400
03FFF5FE40
01BE41E900
ENDCHAR
STARTCHAR Uring
ENCODING 366
SWIDTH 752 0
DWIDTH 24 0
BBX 24 29 0 0
BITMAP
000006F80000
00000E5E0000
00001C070000
00001C070000
00001D1E0000
000007F80000
000000400000
7FFFF001FFFD
1BFE50006FE4
01FC00000B80
01F800000780
01F800000780
01F800000740
01F800000740
01F800000740
01F800000740
01F800000740
01F800000740
01F800000740
01F800000740
01F800000740
00F800000740
00FC00000B40
00FC00000B00
00BE00000E00
007F40002D00
002FE405F800
000BFFFFE000
0000AFFA0000
ENDCHAR
STARTCHAR uring
ENCODING 367
SWIDTH 570 0
DWIDTH 18 0
BBX 17 24 1 0
BITMAP
001BE00000
0039780000
00701C0000
00701C0000
0078780000
001FE00000
0001000000
0000000000
AB802AF000
AF801BF000
1F8002F000
0F8002F000
0F8002F000
0F8002F000
0F8002F000
0F8002F000
0F8002F000
0F8002F000
0F8002F000
0F8002F000
0FC007F000
0BE01EF400
03FFF5FE40
01BE41E900
ENDCHAR
STARTCHAR Uhungarumlaut
ENCODING 368
SWIDTH 752 0
DWIDTH 24 0
BBX 24 27 0 0
BITMAP
000001FCBE00
000003E1F800
00000B83D000
00001D0A0000
000000000000
7FFFF001FFFD
1BFE50006FE4
01FC00000B80
01F800000780
01F800000780
01F800000740
01F800000740
01F800000740
01F800000740
01F800000740
01F800000740
01F800000740
01F800000740
01F800000740
00F800000740
00FC00000B40
00FC00000B00
00BE00000E00
007F40002D00
002FE405F800
000BFFFFE000
0000AFFA0000
ENDCHAR
STARTCHAR uhungarumlaut
ENCODING 369
SWIDTH 570 0
DWIDTH 18 0
BBX 17 22 1 0
BITMAP
0007E3F000
000BCBD000
001F4F4000
002D1E0000
0034280000
0000000000
AB802AF000
AF801BF000
1F8002F000
0F8002F000
0F8002F000
0F8002F000
0F8002F000
0F8002F000
0F8002F000
0F8002F000
0F8002F000
0F8002F000
0FC007F000
0BE01EF400
03FFF5FE40
01BE41E900
ENDCHAR
STARTCHAR Uogonek
ENCODING 370
SWIDTH 753 0
DWIDTH 24 0
BBX 24 29 0 -7
BITMAP
7FFFF001FFFD
1BFE50006FE4
01FC00000B80
01F800000780
01F800000780
01F800000740
01F800000740
01F800000740
01F800000740
01F800000740
01F800000740
01F800000740
01F800000740
01F800000740
00F800000740
00FC00000B40
00FC00000B40
00BE00000F00
007F40002E00
002FE405FC00
000BFFFFF400
0000AFFF9000
000000780000
000000E00000
000003C00000
000007800000
000007C00000
000003E59000
000001BE0000
ENDCHAR
STARTCHAR uogonek
ENCODING 371
SWIDTH 570 0
DWIDTH 18 0
BBX 17 23 1 -7
BITMAP
AF802AF000
6F801BF000
1F8002F000
0F8002F000
0F8002F000
0F8002F000
0F8002F000
0F8002F000
0F8002F000
0F8002F000
0F8002F000
0F8002F000
0FC007F000
0BF46EF400
03FFF5FE40
01BE42E500
0000074000
00001D0000
00003C0000
0000780000
0000B80000
00007D5800
00001FE000
ENDCHAR
STARTCHAR Wcircumflex
ENCODING 372
SWIDTH 944 0
DWIDTH 30 0
BBX 32 28 -1 0
BITMAP
0000000640000000
0000001FE0000000
0000003EF4000000
000000B42D000000
000002C00B000000
0000000000000000
7FFFC2FFFF007FFD
1FFD406FF5001FE4
03FC000FD00007C0
01FC000BE0000740
00FD0003F0000B00
00BE0002F4000E00
003F4001F8001D00
002F8001FC002C00
001FC002FE003800
000FD007BF007400
000BE00B3F40B000
0007F00E2F80E000
0002F41D0FC1D000
0001FC2C0BD2C000
0000FD3407E38000
0000BE7003F74000
00007FE002FF0000
00003FD001FE0000
00001FC000FD0000
00000F8000BC0000
00000B4000380000
0000070000240000
ENDCHAR
STARTCHAR wcircumflex
ENCODING 373
SWIDTH 749 0
DWIDTH 24 0
BBX 26 22 -1 0
BITMAP
000001F4000000
000003FC000000
00000B5E000000
00002D07400000
00007401D00000
00000000000000
BFFD1FFF40FFD0
1FF407FD006F40
07E001F8001D00
03F000FC002C00
01F400BD003800
00F800BE007400
00BD00FF00B000
007E029F40D000
003F034F81C000
002F470BC28000
001F8A07D34000
000BCD03E70000
0007EC02FA0000
0003F401FD0000
0002F000B80000
0001E000740000
ENDCHAR
STARTCHAR Ycircumflex
ENCODING 374
SWIDTH 647 0
DWIDTH 21 0
BBX 21 28 0 0
BITMAP
00001A000000
00003F800000
0000BAE00000
0002D0B40000
0007401D0000
000000000000
FFFF400FFFC0
6FF90006FD40
0BF40000F000
02F80002D000
00FD00038000
007F000B0000
002F801D0000
001FD02C0000
000BF0740000
0003F4E00000
0001FEC00000
0000BF800000
00007F000000
00003F000000
00003F000000
00003F000000
00003F000000
00003F000000
00003F000000
00007F400000
0005FFD40000
001FFFFD0000
ENDCHAR
STARTCHAR ycircumflex
ENCODING 375
SWIDTH 483 0
DWIDTH 15 0
BBX 17 29 -1 -7
BITMAP
0000F80000
0002FD0000
00078F4000
000E028000
002800A000
0000000000
7FFD02FF80
1FF4017E40
07E0003800
03F0007400
02F800B000
00FC00E000
00BD01D000
003F02C000
002F434000
001F870000
000BCA0000
0007DD0000
0003FC0000
0001F80000
0000F40000
0000E00000
0000D00000
0002C00000
0003800000
000B000000
1F5D000000
2FF8000000
1FD0000000
ENDCHAR
STARTCHAR Ydieresis
ENCODING 376
SWIDTH 647 0
DWIDTH 21 0
BBX 21 27 0 0
BITMAP
000B402E0000
001FC07F0000
001FC07F0000
000B402E0000
000000000000
FFFF400FFFC0
6FF90006FD40
0BF40000F000
02F80002D000
00FD00038000
007F000B0000
002F801D0000
001FD02C0000
000BF0740000
0003F4E00000
0001FEC00000
0000BF800000
00007F000000
00003F000000
00003F000000
00003F000000
00003F000000
00003F000000
00003F000000
00007F400000
0005FFD40000
001FFFFD0000
ENDCHAR
STARTCHAR Zacute
ENCODING 377
SWIDTH 594 0
DWIDTH 19 0
BBX 17 27 1 0
BITMAP
00003F4000
0000FD0000
0002E00000
000B400000
0000000000
2FFFFFFFC0
2F95557F40
3D0000FE00
380002FC00
340007F400
20000BE000
00001FD000
00003F8000
0000BF0000
0001FD0000
0003F80000
000BF00000
001FD00000
003F800000
00BF000000
01FD000000
03F80000C0
0BF00001C0
1FD0000280
3F80000780
BF55556F40
FFFFFFFF40
ENDCHAR
STARTCHAR zacute
ENCODING 378
SWIDTH 458 0
DWIDTH 15 0
BBX 13 22 1 0
BITMAP
0003F000
0007D000
000F4000
001E0000
00280000
00000000
7FFFFF40
7E55BF00
7400BD00
6001F800
6003F000
000BD000
001F8000
003F4000
00BD0000
01F80000
03F40140
0BE00280
1FC00340
3F400B40
BE556F40
FFFFFF40
ENDCHAR
STARTCHAR Zdotaccent
ENCODING 379
SWIDTH 594 0
DWIDTH 19 0
BBX 17 27 1 0
BITMAP
0001F40000
0002F80000
0002F80000
0000F40000
0000000000
2FFFFFFFC0
2F95557F40
3D0000FE00
380002FC00
340007F400
20000BE000
00001FD000
00003F8000
0000BF0000
0001FD0000
0003F80000
000BF00000
001FD00000
003F800000
00BF000000
01FD000000
03F80000C0
0BF00001C0
1FD0000280
3F80000780
BF55556F40
FFFFFFFF40
ENDCHAR
STARTCHAR zdotaccent
ENCODING 380
SWIDTH 458 0
DWIDTH 15 0
BBX 13 22 1 0
BITMAP
001E0000
003F4000
003F4000
001E0000
00000000
00000000
7FFFFF40
7E55BF00
7400BD00
6001F800
6003F000
000BD000
001F8000
003F4000
00BD0000
01F80000
03F40140
0BE00280
1FC00340
3F400B40
BE556F40
FFFFFF40
ENDCHAR
STARTCHAR Zcaron
ENCODING 381
SWIDTH 594 0
DWIDTH 19 0
BBX 17 28 1 0
BITMAP
0050005000
002802C000
000F5F4000
0007FD0000
0001F80000
0000000000
2FFFFFFFC0
2F95557F40
3D0000FE00
380002FC00
340007F400
20000BE000
00001FD000
00003F8000
0000BF0000
0001FD0000
0003F80000
000BF00000
001FD00000
003F800000
00BF000000
01FD000000
03F80000C0
0BF00001C0
1FD0000280
3F80000780
BF55556F40
FFFFFFFF40
ENDCHAR
STARTCHAR zcaron
ENCODING 382
SWIDTH 458 0
DWIDTH 15 0
BBX 13 22 1 0
BITMAP
07002800
02C0B400
00F2D000
007F8000
002F0000
00000000
7FFFFF40
7E55BF00
7400BD00
6001F800
6003F000
000BD000
001F8000
003F4000
00BD0000
01F80000
03F40140
0BE00280
1FC00340
3F400B40
BE556F40
FFFFFF40
ENDCHAR
STARTCHAR longs
ENCODING 383
SWIDTH 285 0
DWIDTH 9 0
BBX 12 24 0 0
BITMAP
000BF9
0039BF
00B02F
01F009
01F000
02F000
02F000
02F000
7FF000
16F000
02F000
02F000
02F000
02F000
02F000
02F000
02F000
02F000
02F000
02F000
02F000
03F000
1BFD40
7FFFD0
ENDCHAR
STARTCHAR uni0180
ENCODING 384
SWIDTH 522 0
DWIDTH 17 0
BBX 16 24 0 0
BITMAP
01400000
6FD00000
6FD00000
0BD00000
07D00000
BFFFFE00
1BD55400
07D00000
07D1BE40
07D7FFE0
07ED5BF4
07E001FC
07D000FD
07D000BD
07D0007E
07D0007E
07D0007D
07D0007D
07D000BC
07D000B8
07D000F4
07E002E0
07F95F40
01AFE800
ENDCHAR
STARTCHAR uni0188
ENCODING 392
SWIDTH 446 0
DWIDTH 14 0
BBX 16 22 1 0
BITMAP
000001F9
00000B6F
00000D0F
00001C05
00001800
00002800
00AFF800
07D5FD00
1F007F00
3D003F00
7C001E00
B8000000
B8000000
F8000000
F8000000
FC000000
BC000000
7E000140
3F400700
1FE56D00
0BFFF800
01BF9000
ENDCHAR
STARTCHAR uni0190
ENCODING 400
SWIDTH 518 0
DWIDTH 17 0
BBX 15 22 1 0
BITMAP
006FF900
07E56FD0
1F800FF0
3F0007F0
7E0002F0
7E000040
7E000000
2F000000
0F800000
02E40000
007FF800
06F95000
1F800000
3F000000
7E000000
BD000000
BE000000
BE000014
7F400074
2FE557D0
0BFFFF40
01BFE400
ENDCHAR
STARTCHAR uni0192
ENCODING 402
SWIDTH 301 0
DWIDTH 10 0
BBX 15 31 -3 -7
BITMAP
00006FE0
0001E6FC
0003C0FC
0007C024
000BC000
000B8000
000B8000
000B8000
01FFFF80
005FD540
000B8000
000B8000
000B8000
000B8000
000B8000
000B8000
000B8000
000B8000
000B8000
000B8000
000B8000
000B8000
000B8000
000B8000
000B8000
000B8000
000F8000
600F4000
F80F0000
BE6D0000
2FE40000
ENDCHAR
STARTCHAR uni0195
ENCODING 405
SWIDTH 798 0
DWIDTH 26 0
BBX 23 24 1 0
BITMAP
014000000000
AFC000000000
AFC000000000
0FC000000000
0BC000000000
0BC000000000
0BC000000000
0BC000000000
0BC1BE0003D0
0BCBFFC007F0
0BE91BE002F4
0BE003F000F8
0BC002F0007C
0BC002F0003C
0BC002F0002C
0BC002F0001C
0BC002F0001C
0BC002F00018
0BC002F00028
0BC001F40034
0BC001F40070
0FC000FC01D0
6FE400BFFF40
FFFD001BF900
ENDCHAR
STARTCHAR uni0199
ENCODING 409
SWIDTH 538 0
DWIDTH 17 0
BBX 17 24 0 0
BITMAP
000BFE0000
00397FC000
00B01FC000
01E0064000
02E0000000
02E0000000
03E0000000
03E0000000
03E03FFF00
03E01BF500
03E00B8000
03E02D0000
03E0B40000
03E2D00000
03EB400000
03FFC00000
03E7F00000
03E2F80000
03E0BE0000
03E02F8000
03E00FD000
03E007F400
1BF507FE40
7FFF0FFFC0
ENDCHAR
STARTCHAR uni019A
ENCODING 410
SWIDTH 287 0
DWIDTH 9 0
BBX 8 24 1 0
BITMAP
0140
6FC0
AFC0
0BC0
0BC0
0BC0
0BC0
0BC0
0BC0
0BC0
0BC0
FFFD
5BD4
0BC0
0BC0
0BC0
0BC0
0BC0
0BC0
0BC0
0BC0
0BC0
5FE4
FFFD
ENDCHAR
STARTCHAR uni019B
ENCODING 411
SWIDTH 495 0
DWIDTH 16 0
BBX 17 23 -1 0
BITMAP
07F4000000
0FFE014000
0B975F4000
0002F40000
001BD00000
00B8B00000
0040740000
0000380000
00007C0000
0000FD0000
0001FA0000
0003E70000
0007D34000
000FC28000
001F81C000
003F00D000
007E00A000
00FC007000
01F8003400
02F4002C00
07F0002D00
1FF4006F40
7FFE01FFC0
ENDCHAR
STARTCHAR uni019E
ENCODING 414
SWIDTH 559 0
DWIDTH 18 0
BBX 17 23 1 -7
BITMAP
1BC1BE4000
FFC7FFD000
0FE90BF000
0BE002F000
0BC001F400
0BC001F400
0BC001F400
0BC001F400
0BC001F400
0BC001F400
0BC001F400
0BC001F400
0BC001F400
0BC001F400
5FE401F400
FFFD01F400
000001F400
000001F400
000001F400
000001F400
000001F800
000001FD40
000001FFC0
ENDCHAR
STARTCHAR Ohorn
ENCODING 416
SWIDTH 737 0
DWIDTH 24 0
BBX 22 27 1 0
BITMAP
000000000140
0000000007D0
0000000007E0
0000000002E0
0000000002D0
0006BFFFFF40
002F95BFD400
01FD000BE000
03F00002F800
0BD00000FD00
1FC000007F00
2F8000003F40
3F4000002F80
7F0000002FC0
7F0000001FC0
7F0000001FC0
7F0000001FC0
7F0000001FC0
7F0000002F80
3F4000002F40
2F8000003F00
1FC000007E00
0BD00000BD00
07F00001F400
01FD0007E000
002F956F4000
0006BFE40000
ENDCHAR
STARTCHAR ohorn
ENCODING 417
SWIDTH 516 0
DWIDTH 17 0
BBX 16 21 1 0
BITMAP
00000078
000000BC
0000007D
0000002C
00000078
006FFFE0
07E5BF40
1F401F80
3E0007D0
7D0003E0
BD0002F0
BC0002F4
FC0002F4
FC0002F4
BD0002F4
BD0002F0
7E0003E0
3F0007D0
1F800B80
07E56E00
00AFE400
ENDCHAR
STARTCHAR uni01A5
ENCODING 421
SWIDTH 522 0
DWIDTH 17 0
BBX 16 31 0 -7
BITMAP
001BF900
0075BF40
01E02F80
02D00B40
03D00000
07D00000
07D00000
07D00000
07D1BE40
07D7FFE0
07ED5BF4
07F001FC
07D000FD
07D000BD
07D0007E
07D0007E
07D0007D
07D0007D
07D000BC
07D000B8
07D000F4
07F402E0
07FE5B80
07DBF900
07D00000
07D00000
07D00000
07D00000
0BD00000
5FF50000
BFFF4000
ENDCHAR
STARTCHAR uni01AA
ENCODING 426
SWIDTH 298 0
DWIDTH 10 0
BBX 15 31 -2 -7
BITMAP
1BE40000
797D0000
A01E0000
D00F4000
C00F4000
D00F8000
741F8000
2FFF8000
010F8000
000F8000
000F8000
000F8000
000F8000
000F8000
000F8000
000F8000
000F8000
000F8000
000F8000
000F8000
000F8000
000F8000
000F8000
000F8000
000B8000
000B8000
000B8000
0007C024
0003C0F8
0001E6F8
00006FE0
ENDCHAR
STARTCHAR uni01AB
ENCODING 427
SWIDTH 321 0
DWIDTH 10 0
BBX 9 28 1 -7
BITMAP
018000
038000
078000
0F8000
2F8000
BFFF40
5F9500
0F8000
0F8000
0F8000
0F8000
0F8000
0F8000
0F8000
0F8000
0F8000
0F8000
0F8000
0FC1C0
0BFFC0
02F9C0
0001C0
0001C0
0001C0
010280
0B4280
0BDB00
02F900
ENDCHAR
STARTCHAR uni01AD
ENCODING 429
SWIDTH 315 0
DWIDTH 10 0
BBX 12 24 1 0
BITMAP
002FF8
01E5FE
03C07F
078019
0B8000
0F8000
0F8000
2F8000
BFFF40
5F9500
0F8000
0F8000
0F8000
0F8000
0F8000
0F8000
0F8000
0F8000
0F8000
0F8000
0F8000
0FC180
0BFF00
02F800
ENDCHAR
STARTCHAR Uhorn
ENCODING 431
SWIDTH 762 0
DWIDTH 24 0
BBX 27 28 0 0
BITMAP
000000000002E0
000000000003F4
000000000002F4
000000000001F4
000000000000E0
000000000001D0
7FFFF001FFFE00
1BFE50006FD000
01FC00000B8000
01F80000078000
01F80000078000
01F80000074000
01F80000074000
01F80000074000
01F80000074000
01F80000074000
01F80000074000
01F80000074000
01F80000074000
01F80000074000
00F80000074000
00FC00000B4000
00FC00000B0000
00BE00000E0000
007F40002D0000
002FE405F80000
000BFFFFE00000
0000AFFA000000
ENDCHAR
STARTCHAR uhorn
ENCODING 432
SWIDTH 574 0
DWIDTH 18 0
BBX 19 21 0 0
BITMAP
00000000E0
00000001F4
00000000B8
0000000074
00000000B0
1AE006BFD0
7FE01FFD00
07E000FC00
03E000BC00
03E000BC00
03E000BC00
03E000BC00
03E000BC00
03E000BC00
03E000BC00
03E000BC00
03E000BC00
03F000FC00
02F807BD00
00FFFD7F90
006F907A40
ENDCHAR
STARTCHAR uni01B5
ENCODING 437
SWIDTH 594 0
DWIDTH 19 0
BBX 17 22 1 0
BITMAP
2FFFFFFFC0
2F95557F40
3D0000BE00
380001FD00
340003F800
20000BF000
00001FD000
00003F8000
0000BF0000
0001FD0000
07FFFFF800
015BF55000
001FD00000
002F800000
00BF000000
01FD000000
03F80000C0
0BF00001C0
1FD0000280
3F80000780
BF55556F40
FFFFFFFF40
ENDCHAR
STARTCHAR uni01BA
ENCODING 442
SWIDTH 430 0
DWIDTH 14 0
BBX 12 23 1 -7
BITMAP
FFFFFC
F956F4
D007E0
C01F80
803E00
00BC00
02F400
07E940
0ABFE0
0006FC
0000BD
00007D
00007D
0000BD
0002F8
001FD0
06F900
2D0000
700010
A000F4
B003F4
3D5BE0
1BFE40
ENDCHAR
STARTCHAR uni01BB
ENCODING 443
SWIDTH 508 0
DWIDTH 16 0
BBX 14 23 1 0
BITMAP
00BF9000
07FFFD00
1E55FF00
38003F80
60001FC0
40000FC0
00000FC0
00000F80
00001F80
00002F00
00003D00
7FFFFFF0
1556E550
0007C000
000F4000
002D0000
00B40000
01E00030
07800060
0F0001E0
3FFFFFD0
BFFFFFD0
FFFFFFC0
ENDCHAR
STARTCHAR uni01BE
ENCODING 446
SWIDTH 406 0
DWIDTH 13 0
BBX 11 21 1 0
BITMAP
004000
01C000
03C000
0BC000
2FC000
BFFF80
5BD540
0BC000
0BD000
01BE40
000BE0
0002F4
0001F8
0000FC
0000BC
8000BC
9000BC
A000F8
B401F4
BE57D0
96FE40
ENDCHAR
STARTCHAR uni01C0
ENCODING 448
SWIDTH 250 0
DWIDTH 8 0
BBX 4 24 2 0
BITMAP
28
7D
7D
7D
7D
7D
7D
7D
7D
7D
7D
7D
7D
7D
7D
7D
7D
7D
7D
7D
7D
7D
7D
7D
ENDCHAR
STARTCHAR uni01C1
ENCODING 449
SWIDTH 423 0
DWIDTH 14 0
BBX 9 24 2 0
BITMAP
280640
7D0B80
7D0B80
7D0B80
7D0B80
7D0B80
7D0B80
7D0B80
7D0B80
7D0B80
7D0B80
7D0B80
7D0B80
7D0B80
7D0B80
7D0B80
7D0B80
7D0B80
7D0B80
7D0B80
7D0B80
7D0B80
7D0B80
7D0B80
ENDCHAR
STARTCHAR uni01C2
ENCODING 450
SWIDTH 422 0
DWIDTH 14 0
BBX 12 24 1 0
BITMAP
006800
00BC00
00BC00
00BC00
00BC00
00BC00
00BC00
00BC00
BFFFFD
55BD54
00BC00
00BC00
00BC00
BFFFFD
15BD54
00BC00
00BC00
00BC00
00BC00
00BC00
00BC00
00BC00
00BC00
00BC00
ENDCHAR
STARTCHAR uni01C3
ENCODING 451
SWIDTH 245 0
DWIDTH 8 0
BBX 4 24 2 0
BITMAP
14
7D
BD
BD
BD
7D
7D
7D
7C
7C
3C
3C
3C
38
38
28
28
28
00
00
7D
BE
BE
7D
ENDCHAR
STARTCHAR uni01DE
ENCODING 478
SWIDTH 718 0
DWIDTH 23 0
BBX 23 29 0 0
BITMAP
0007FFFF0000
000155550000
0007801E0000
000FD03F8000
000FD03F8000
0007801E0000
000000000000
00000B400000
00000F800000
00001FC00000
00002FD00000
00007BF00000
0000B3F40000
0000E2F80000
0001D1FC0000
0003C0BE0000
0007807F0000
000B403F4000
000F002FC000
001D001FD000
003C000FE000
007FFFFFF000
00B55557F800
00F00002FC00
02D00001FD00
03C00000FF00
0B800000BF40
6FD40005FFE4
FFF8000BFFFC
ENDCHAR
STARTCHAR uni01DF
ENCODING 479
SWIDTH 480 0
DWIDTH 15 0
BBX 14 25 1 0
BITMAP
1FFFFC00
05555400
00000000
1E007C00
2F80BE00
2F80BE00
1E007800
00000000
00000000
01BF9000
0F96F400
2E00FC00
3E00BC00
3D007D00
04007D00
0000BD00
001BFD00
06E47D00
1F407D00
7D007D00
BC007D00
BC007D00
BD00FD20
3F5A3FE0
1BE41F80
ENDCHAR
STARTCHAR uni01F0
ENCODING 496
SWIDTH 263 0
DWIDTH 8 0
BBX 12 29 -3 -7
BITMAP
03401D
01D078
00B5F0
003FD0
001F80
000000
005BC0
00BFC0
000FC0
000BC0
000BC0
000BC0
000BC0
000BC0
000BC0
000BC0
000BC0
000BC0
000BC0
000BC0
000BC0
000BC0
000B80
000B80
000F80
640F40
FC0F00
BF6D00
2FE000
ENDCHAR
STARTCHAR Aringacute
ENCODING 506
SWIDTH 718 0
DWIDTH 23 0
BBX 23 33 0 0
BITMAP
000002F80000
00000BE00000
00001E400000
000078000000
00002F900000
0000B5B00000
0000E0340000
0000D0380000
0000B4740000
00002FD00000
000001000000
00000B400000
00000F800000
00001FC00000
00002FD00000
00007BF00000
0000B3F40000
0000E2F80000
0001D1FC0000
0003C0BE0000
0007807F0000
000B403F4000
000F002FC000
001D001FD000
003C000FE000
007FFFFFF000
00B55557F800
00F00002FC00
02D00001FD00
03C00000FF00
0B800000BF40
6FD40005FFE4
FFF8000BFFFC
ENDCHAR
STARTCHAR aringacute
ENCODING 507
SWIDTH 480 0
DWIDTH 15 0
BBX 14 28 1 0
BITMAP
000BE000
002F8000
007D0000
01E00000
007E4000
01D6D000
0280E000
0380A000
02D1D000
00BF8000
00040000
00000000
01BF9000
0F96F400
2E00FC00
3E00BC00
3D007D00
04007D00
0000BD00
001BFD00
06E47D00
1F407D00
7D007D00
BC007D00
BC007D00
BD00FD20
3F5A3FE0
1BE41F80
ENDCHAR
STARTCHAR AEacute
ENCODING 508
SWIDTH 894 0
DWIDTH 29 0
BBX 29 27 -1 0
BITMAP
0000000007F40000
000000000FD00000
000000002E000000
00000000B4000000
0000000000000000
00000FFFFFFFFE00
000001FFEAAAFE00
000000DBC0001E00
000001CBC0000A00
0000034BC0000A00
00000B0BC0000100
00000D0BC0000000
00002C0BC000C000
0000780BC000C000
0000B00BC001C000
0001E00BD007C000
0002FFFFFFFFC000
0007955BD556C000
000F000BC000C000
001D000BC000C000
003C000BC0000000
0074000BC0000280
00E0000BC0000340
02D0000FC0000740
07C0000FC0001F00
5FE4016FE556BF00
BFFD03FFFFFFFE00
ENDCHAR
STARTCHAR aeacute
ENCODING 509
SWIDTH 709 0
DWIDTH 23 0
BBX 21 22 1 0
BITMAP
00001F800000
00003F000000
00007C000000
0000B4000000
0001D0000000
000000000000
02BF80BF9000
1F57E796F400
3E00FE007D00
7E00BD003E00
3D00BC002F40
0000BC001F40
0001FFFFFF80
006FFD555500
07E4BC000000
2F00BC000000
7D00BD000000
BC007E000040
BC007F400340
BE02EFE55E00
3FFF0BFFF800
1BE401BF9000
ENDCHAR
STARTCHAR Oslashacute
ENCODING 510
SWIDTH 737 0
DWIDTH 24 0
BBX 21 27 1 0
BITMAP
000007F40000
00001F900000
00003D000000
0000E0000000
000000000000
0006BFE41C00
002F95BFB400
01FD000BF000
03F00003F800
0BD00007FD00
1FC0001D7F00
2F8000383F40
3F4000A02F80
7F0002C02F80
7F0007401FC0
7F000E001FC0
7F0028001FC0
7F00B0001FC0
7F01D0002F80
3F4340002F80
2F8A00003F40
1FEC00007E00
0FF40000BD00
07F00001F800
03FD0007E000
0A6F956F4000
1C06BFE40000
ENDCHAR
STARTCHAR oslashacute
ENCODING 511
SWIDTH 514 0
DWIDTH 16 0
BBX 15 22 1 0
BITMAP
0003F000
0007D000
000F4000
001E0000
00280000
00000000
006FE5C0
07E5BF40
1F401F80
2E002FD0
7D0077E0
BD00D3F0
BC0282F4
FC0A02F4
FC1C02F4
BD7402F4
BDD002F0
7F8003E0
3F0007D0
1F800B80
3BE56E00
A0AFE400
ENDCHAR
STARTCHAR uni0218
ENCODING 536
SWIDTH 504 0
DWIDTH 16 0
BBX 14 31 1 -9
BITMAP
01BFE5C0
0BD5BFC0
2F000BC0
3D0003C0
7D0002C0
7E0001C0
7F4000C0
3FD00000
1FF80000
0BFF4000
01FFF400
002FFE00
0006FF80
00007FD0
00001FE0
D00007F0
A00003F0
B00003F0
B40003E0
BD000BC0
BF956F40
A5BFE400
00000000
001F4000
003F8000
003FC000
002FC000
00028000
00034000
001E0000
00240000
ENDCHAR
STARTCHAR uni0219
ENCODING 537
SWIDTH 394 0
DWIDTH 13 0
BBX 11 25 1 -9
BITMAP
06FE60
2E5BE0
7800E0
B800A0
BC0030
7F4000
3FE000
0BFE00
01FFC0
002FF0
9003F8
9000F8
A000F8
B400F4
BE57E0
96FE40
000000
01F400
02FC00
02FD00
01FD00
001C00
002800
00A000
014000
ENDCHAR
STARTCHAR uni021A
ENCODING 538
SWIDTH 603 0
DWIDTH 19 0
BBX 19 31 0 -9
BITMAP
7FFFFFFFF8
7E55FD56F8
7800FC0078
7000FC0028
6000FC0018
5000FC0018
0000FC0000
0000FC0000
0000FC0000
0000FC0000
0000FC0000
0000FC0000
0000FC0000
0000FC0000
0000FC0000
0000FC0000
0000FC0000
0000FC0000
0000FD0000
0000FD0000
0016FF5000
003FFFF400
0000000000
0000B80000
0001FE0000
0001FE0000
0000BE0000
00000E0000
00001D0000
0000740000
0000800000
ENDCHAR
STARTCHAR uni021B
ENCODING 539
SWIDTH 315 0
DWIDTH 10 0
BBX 9 30 1 -9
BITMAP
004000
028000
078000
0B8000
2F8000
BFFF40
5F9500
0F8000
0F8000
0F8000
0F8000
0F8000
0F8000
0F8000
0F8000
0F8000
0F8000
0F8000
0FC180
0BFF00
02F800
000000
01F400
03FC00
03FC00
02FC00
002C00
003400
01E000
024000
ENDCHAR
STARTCHAR uni0221
ENCODING 545
SWIDTH 674 0
DWIDTH 22 0
BBX 21 29 1 -5
BITMAP
000001400000
00006FD00000
00006FD00000
00000BD00000
000007D00000
000007D00000
000007D00000
000007D00000
006FEBD00000
02E57FD00000
0F400FD00000
2E000BD00000
3D0007D00000
7C0007D00000
BC0007D00000
BC0007D00000
FC0007D00000
FC0007D00000
BC0007D07E00
BD0007D1D680
7F000BD34180
2FD57FD90240
0FFFE3FD6E00
02FE40BFE400
000000600000
000000D00000
000002800000
000003400000
000001000000
ENDCHAR
STARTCHAR uni0228
ENCODING 552
SWIDTH 626 0
DWIDTH 20 0
BBX 18 29 1 -7
BITMAP
FFFFFFFFC0
0BFAAAAFC0
03F40003C0
02F40001C0
02F40000C0
02F4000080
02F4000000
02F4002800
02F4002800
02F4007800
02FFFFF800
02F555B800
02F4002800
02F4002800
02F4001800
02F4000000
02F4000020
02F4000070
02F40000E0
03F40002E0
07F955AFD0
BFFFFFFFD0
0000900000
0000C00000
0000FD0000
00005B4000
0000074000
00050B4000
0002FD0000
ENDCHAR
STARTCHAR uni0229
ENCODING 553
SWIDTH 464 0
DWIDTH 15 0
BBX 13 24 1 -8
BITMAP
00BF9000
0796F800
1E007D00
3D002F00
7C001F40
B8001F80
BFFFFF80
F9555540
F8000000
BC000000
BD000000
7E000040
3F800240
1FE55E00
07FFF800
00AF9000
00140000
00240000
002F8000
0006E000
0000E000
0042E000
00BF8000
00040000
ENDCHAR
STARTCHAR uni0234
ENCODING 564
SWIDTH 399 0
DWIDTH 13 0
BBX 13 29 0 -5
BITMAP
01400000
6FD00000
6FD00000
07D00000
07D00000
07D00000
07D00000
07D00000
07D00000
07D00000
07D00000
07D00000
07D00000
07D00000
07D00000
07D00000
07D00000
07D00000
07D06E00
07D1D680
07D341C0
07D90280
03FD6F00
00BFE400
00700000
00D00000
02800000
03400000
01000000
ENDCHAR
STARTCHAR uni0235
ENCODING 565
SWIDTH 702 0
DWIDTH 22 0
BBX 22 21 1 -5
BITMAP
6BC1BE000000
5FD95FC00000
0BF007E00000
0BC003F00000
0BC002F00000
0BC002F00000
0BC002F00000
0BC002F00000
0BC002F00000
0BC002F00000
0BC002F01F80
0BC002F075D0
0BC002F0D0A0
0BC001F640D0
5FE400FB5B80
FFFD006FF900
000000180000
000000340000
000000A00000
000001C00000
000001400000
ENDCHAR
STARTCHAR uni0236
ENCODING 566
SWIDTH 406 0
DWIDTH 13 0
BBX 12 26 1 -5
BITMAP
004000
028000
078000
0B8000
2F8000
BFFF80
5F9500
0F8000
0F8000
0F8000
0F8000
0F8000
0F8000
0F8000
0F8000
0F80BD
0F8397
0F8A03
0F9C07
0BF96D
01FFA0
00D000
028000
030000
0A0000
080000
ENDCHAR
STARTCHAR uni0237
ENCODING 567
SWIDTH 263 0
DWIDTH 8 0
BBX 9 23 -3 -7
BITMAP
005BC0
00BFC0
000FC0
000BC0
000BC0
000BC0
000BC0
000BC0
000BC0
000BC0
000BC0
000BC0
000BC0
000BC0
000BC0
000BC0
000B80
000B80
000F80
640F40
FC0F00
BF6D00
2FE000
ENDCHAR
STARTCHAR uni0250
ENCODING 592
SWIDTH 475 0
DWIDTH 15 0
BBX 14 16 0 0
BITMAP
1F81BE40
7FDA5FD0
97F407E0
03E003F0
03E003F0
03E007D0
03E00F80
03E1BD00
03EB9000
03E40000
03E00100
03E007C0
03E007D0
02F00BC0
00FD5F40
002FF800
ENDCHAR
STARTCHAR uni0251
ENCODING 593
SWIDTH 542 0
DWIDTH 17 0
BBX 16 16 1 0
BITMAP
006FE5C0
02E57FC0
0F401FC0
2E000BC0
3D000BC0
7C000BC0
BC000BC0
B8000BC0
FC000BC0
FC000BC0
BC000BC0
BD000BC0
7F000BC0
2FD56FD0
0FFFE7F9
02FE47A4
ENDCHAR
STARTCHAR uni0252
ENCODING 594
SWIDTH 544 0
DWIDTH 17 0
BBX 16 16 1 0
BITMAP
6B81BE40
AF9FFFD0
0FF55BF0
0BC002F8
0BC000FC
0BC000BC
0BC000BD
0BC000BD
0BC0007C
0BC000BC
0BC000B8
0BC000F4
0BC001F0
0BE003D0
0BF96F40
0A1BE800
ENDCHAR
STARTCHAR uni0253
ENCODING 595
SWIDTH 518 0
DWIDTH 17 0
BBX 14 24 2 0
BITMAP
01BF9000
0B5BF400
1D02F400
3C00A000
7C000000
7C000000
BC000000
BC000000
BC1BE400
BCBFFD00
BED5BF40
BE002F80
BC000FC0
BC000BD0
BC000BD0
BC0007D0
BC0007D0
BC000BD0
BC000BC0
BC000F80
BC001F00
BD003D00
BF95F400
1AFE8000
ENDCHAR
STARTCHAR uni0254
ENCODING 596
SWIDTH 454 0
DWIDTH 15 0
BBX 13 16 1 0
BITMAP
02FE4000
1FFFF000
3957FC00
A000BD00
80003F00
00002F00
00001F40
00001F40
00001F40
00001F40
00001F00
78001E00
BD002D00
BE007800
2F96E000
06FE4000
ENDCHAR
STARTCHAR uni0255
ENCODING 597
SWIDTH 447 0
DWIDTH 14 0
BBX 13 20 1 -4
BITMAP
006FE400
07D5FD00
1F007F00
2D003F00
7C001E00
B8000000
B8000000
F8000000
F8000000
F8000000
BC02F900
7D0B5B00
3F280340
1FF00700
0BF95E00
02FFE400
03400000
07000000
09000000
08000000
ENDCHAR
STARTCHAR uni0256
ENCODING 598
SWIDTH 528 0
DWIDTH 17 0
BBX 20 31 1 -7
BITMAP
000016D000
0000BFD000
00000BD000
00000BD000
00000BD000
00000BD000
00000BD000
00000BD000
006FEBD000
02E57FD000
0F401FD000
2E000BD000
3D000BD000
7C000BD000
BC000BD000
BC000BD000
FC000BD000
FC000BD000
BC000BD000
BD000BD000
7F000BD000
2FD56FD000
0FFFE7D000
02FE47D000
000007D000
000007D000
000007D000
000003D014
000002D07D
000000F5FC
0000002FE4
ENDCHAR
STARTCHAR uni0257
ENCODING 599
SWIDTH 542 0
DWIDTH 17 0
BBX 20 24 1 0
BITMAP
0000001FF4
000000B5FE
000001D07E
000002D01D
000003C000
000007C000
000007C000
000007C000
006FEBC000
02E57FC000
0F401FC000
2E000BC000
3D000BC000
7C000BC000
BC000BC000
BC000BC000
FC000BC000
FC000BC000
BC000BC000
BD000BC000
7F000BC000
2FD56FD000
0FFFE7F900
02FE07A500
ENDCHAR
STARTCHAR uni0258
ENCODING 600
SWIDTH 466 0
DWIDTH 15 0
BBX 13 16 1 0
BITMAP
01BF9000
07D5B400
1F402D00
3E001F00
7D000F40
BD000B80
BFFFFF80
55555F80
00000F80
00000F80
00001F80
40002F40
A000BE00
3D56FD00
0FFFF400
02BE4000
ENDCHAR
STARTCHAR uni0259
ENCODING 601
SWIDTH 464 0
DWIDTH 15 0
BBX 13 16 1 0
BITMAP
02FE4000
0FFFF400
3D57FC00
A000BE00
80003F00
00001F40
00000F80
00000F80
00000F80
FFFFFF80
BD555F40
BD000F40
7E001E00
2F002D00
0BD5F400
01BE8000
ENDCHAR
STARTCHAR uni025A
ENCODING 602
SWIDTH 642 0
DWIDTH 21 0
BBX 20 16 1 0
BITMAP
01BE400000
0BFFF40000
2D57FC0500
6000BE1E05
80003FAE09
00001F8B5C
00000F87F4
00000F8040
00000F8000
FFFFFF8000
BD555F8000
BD000F4000
7E001F0000
2F002D0000
0BD5F40000
01BF800000
ENDCHAR
STARTCHAR uni025B
ENCODING 603
SWIDTH 399 0
DWIDTH 13 0
BBX 11 16 1 0
BITMAP
06FF90
2F97F4
7D00FC
BC0078
7C0000
3D0000
1B5000
02FF00
1F9500
7D0000
BC0000
FC0000
BC0000
BD0008
2F95B4
06FE40
ENDCHAR
STARTCHAR uni025C
ENCODING 604
SWIDTH 398 0
DWIDTH 13 0
BBX 12 16 0 0
BITMAP
06FF90
2F96F4
7E00BC
3D007D
00007D
0000B8
0006E0
01FF40
0056E0
0000BC
00007D
00007E
00007D
6000BD
1E56F4
06FE90
ENDCHAR
STARTCHAR uni025D
ENCODING 605
SWIDTH 575 0
DWIDTH 18 0
BBX 19 16 0 0
BITMAP
06FF800000
2F96F40000
3F00BC0000
3D007D7410
04007EF824
0000BD3C70
0006E01FD0
01FF400100
0056F40000
0000BC0000
00007D0000
00007E0000
00007D0000
6000BC0000
1E56F40000
06FE800000
ENDCHAR
STARTCHAR uni025E
ENCODING 606
SWIDTH 500 0
DWIDTH 16 0
BBX 14 16 1 0
BITMAP
006FF900
02F56F80
0F8007D0
2E0003E0
7D0003D0
BC0007C0
BC005F40
F80FF800
F8056F40
B80007D0
BC0003E0
7D0003E0
2E0003E0
0F800BD0
02E56F80
006FF900
ENDCHAR
STARTCHAR uni025F
ENCODING 607
SWIDTH 272 0
DWIDTH 9 0
BBX 12 23 -3 -7
BITMAP
006BC0
00AFC0
000BC0
000BC0
000BC0
000BC0
01FFFD
005BD4
000BC0
000BC0
000BC0
000BC0
000BC0
000BC0
000BC0
000BC0
000BC0
000B80
000B80
640F40
FD0F00
BF6D00
2FE400
ENDCHAR
STARTCHAR uni0260
ENCODING 608
SWIDTH 541 0
DWIDTH 17 0
BBX 21 31 1 -7
BITMAP
0000001BF900
000000B5BF40
000001D02F40
000003D00A00
000007C00000
000007C00000
000007C00000
00000BC00000
006F9BC00000
02E5BFC00000
0F401FC00000
2E000BC00000
3D000BC00000
7C000BC00000
BC000BC00000
F8000BC00000
FC000BC00000
FC000BC00000
BC000BC00000
BE000BC00000
7F000BC00000
2FD56FC00000
0FFFDBC00000
02FE4BC00000
00000BC00000
00000BC00000
00000B800000
3D000F400000
7F402E000000
2FD5B8000000
06FF90000000
ENDCHAR
STARTCHAR uni0261
ENCODING 609
SWIDTH 521 0
DWIDTH 17 0
BBX 13 23 1 -7
BITMAP
006FE5C0
02E5BFC0
0F401FC0
2E000BC0
3D000BC0
7C000BC0
BC000BC0
F8000BC0
FC000BC0
FC000BC0
BC000BC0
BE000BC0
7F000BC0
2FD56FC0
0FFFDBC0
02FE4BC0
00000BC0
00000BC0
00000B80
3D000F40
7F402E00
2FD5B800
06FF9000
ENDCHAR
STARTCHAR uni0262
ENCODING 610
SWIDTH 535 0
DWIDTH 17 0
BBX 16 16 1 0
BITMAP
006FF970
02F55BF0
0F8002F0
2F0000F0
7E000070
BD000070
BC000000
FC000000
FC002FFD
BC0017F4
BD0002F0
7E0002F0
3F0002F0
1F8002F0
07F95BD0
006FF900
ENDCHAR
STARTCHAR uni0263
ENCODING 611
SWIDTH 479 0
DWIDTH 15 0
BBX 17 23 -1 -7
BITMAP
7FFD02FFC0
1FF4017E40
07E0003C00
03F0007400
02F400B000
00F800E000
00BD01D000
007E028000
003F034000
002F4B0000
000F8E0000
000BDC0000
0007F80000
0003F40000
0002F40000
0002F80000
0003BC0000
000A3E0000
000D2E0000
000D1F0000
001D1F0000
000E6E0000
0007F80000
ENDCHAR
STARTCHAR uni0264
ENCODING 612
SWIDTH 466 0
DWIDTH 15 0
BBX 15 16 0 0
BITMAP
1BE42F90
BD6EE5F4
F80B80F8
B40FE0B8
1029F010
0070F800
0090BC00
01C07D00
01803E00
02802F00
02402F00
03402F00
02802E00
02C03D00
00E5B800
002FD000
ENDCHAR
STARTCHAR uni0265
ENCODING 613
SWIDTH 553 0
DWIDTH 18 0
BBX 18 23 0 -7
BITMAP
1AE001AC00
6FE00AFC00
07E000BC00
03E000BC00
03E000BC00
03E000BC00
03E000BC00
03E000BC00
03E000BC00
03E000BC00
03E000BC00
03E000BC00
03F001FC00
02F91BBC00
00FFFCBC00
002F90BC00
000000BC00
000000BC00
000000BC00
000000BC00
000000BD00
000000BE40
000000BFE0
ENDCHAR
STARTCHAR uni0266
ENCODING 614
SWIDTH 577 0
DWIDTH 18 0
BBX 17 24 1 0
BITMAP
001BF80000
00A5FF0000
02C03F0000
07C01A0000
0BC0000000
0BC0000000
0BC0000000
0BC0000000
0BC1BE4000
0BCBFFD000
0BED1BF000
0BE002F000
0BC001F400
0BC001F400
0BC001F400
0BC001F400
0BC001F400
0BC001F400
0BC001F400
0BC001F400
0BC001F400
0FC001F800
6FE406FD40
FFFD2FFF80
ENDCHAR
STARTCHAR uni0267
ENCODING 615
SWIDTH 562 0
DWIDTH 18 0
BBX 15 31 1 -7
BITMAP
001BF800
00A5FF00
02C03F00
03C01A00
07C00000
0BC00000
0BC00000
0BC00000
0BC1BE40
0BCBFFD0
0BED1BF0
0BE002F4
0BC001F4
0BC001F4
0BC001F4
0BC001F4
0BC001F4
0BC001F4
0BC001F4
0BC001F4
0BC001F4
0FC001F4
6FE401F4
FFFD01F4
000001F4
000001F4
000001F0
000501F0
001F42D0
001FEB80
0006F900
ENDCHAR
STARTCHAR uni0268
ENCODING 616
SWIDTH 295 0
DWIDTH 9 0
BBX 8 23 1 0
BITMAP
0780
0FE0
0FE0
0780
0000
0000
0000
1AC0
BFC0
0BC0
0BC0
0BC0
0BC0
0BC0
FFFD
5BD4
0BC0
0BC0
0BC0
0BC0
0BC0
5FE4
BFFD
ENDCHAR
STARTCHAR uni0269
ENCODING 617
SWIDTH 286 0
DWIDTH 9 0
BBX 10 16 0 0
BITMAP
16E000
6FE000
07E000
03E000
03E000
03E000
03E000
03E000
03E000
03E000
03E000
03E000
03E000
03F060
02FFC0
00BE00
ENDCHAR
STARTCHAR uni026A
ENCODING 618
SWIDTH 287 0
DWIDTH 9 0
BBX 8 16 1 0
BITMAP
FFFD
5FE4
0BC0
0BC0
0BC0
0BC0
0BC0
0BC0
0BC0
0BC0
0BC0
0BC0
0BC0
0BC0
5FE4
FFFD
ENDCHAR
STARTCHAR uni026B
ENCODING 619
SWIDTH 290 0
DWIDTH 9 0
BBX 9 24 0 0
BITMAP
005000
1BF000
2BF000
02F000
02F000
02F000
02F000
02F000
02F000
02F000
02F040
2FF1C0
97FF40
42F400
02F000
02F000
02F000
02F000
02F000
02F000
02F000
02F000
17F900
3FFF40
ENDCHAR
STARTCHAR uni026C
ENCODING 620
SWIDTH 318 0
DWIDTH 10 0
BBX 11 24 0 0
BITMAP
001400
0AFC00
0AFC00
00FC00
00BC00
00BC00
00BC00
00BC00
1FFC00
79FC00
F0BC00
E0BC00
E0BC24
F4BDE0
7FFF80
1AFD00
00BC00
00BC00
00BC00
00BC00
00BC00
00FC00
06FE40
0FFFD0
ENDCHAR
STARTCHAR uni026D
ENCODING 621
SWIDTH 248 0
DWIDTH 8 0
BBX 12 31 0 -7
BITMAP
16D000
BFD000
0BD000
07D000
07D000
07D000
07D000
07D000
07D000
07D000
07D000
07D000
07D000
07D000
07D000
07D000
07D000
07D000
07D000
07D000
07D000
07D000
07D000
07D000
07D000
07D000
03D000
03D038
02E0BD
00BAFC
002FE4
ENDCHAR
STARTCHAR uni026E
ENCODING 622
SWIDTH 590 0
DWIDTH 19 0
BBX 18 31 1 -7
BITMAP
1BC0000000
FFC0000000
0FC0000000
0BC0000000
0BC0000000
0BC0000000
0BC0000000
0BC0000000
0BFFFFFFC0
0BD5557F40
0BC0007E00
0BC000FC00
0BC002F400
0BC007E000
0BC00FC000
0BC02F4000
0BC07E0000
0BC0FC0000
0BC1BF9000
0BC002FD00
0BC0007F40
0FC0001FC0
6FE4000FD0
FFFD000BD0
0000000BD0
0000000BD0
0000000FC0
007C001F40
00BE007E00
007F56F400
001BFE4000
ENDCHAR
STARTCHAR uni026F
ENCODING 623
SWIDTH 846 0
DWIDTH 27 0
BBX 26 16 0 0
BITMAP
16E005B8016F00
7FE01FF803FF00
07E001F8003F00
03E000F8002F00
03E000F8002F00
03E000F8002F00
03E000F8002F00
03E000F8002F00
03E000F8002F00
03E000F8002F00
03E000F8002F00
03E000F8002F00
03E000F8003F00
02F007FC00FF00
01FD6D7F5B6F50
006F901BE42E90
ENDCHAR
STARTCHAR uni0270
ENCODING 624
SWIDTH 826 0
DWIDTH 26 0
BBX 27 23 0 -7
BITMAP
1AE005B8016F00
6FE00BF802FF00
07E000F8003F00
03E000F8002F00
03E000F8002F00
03E000F8002F00
03E000F8002F00
03E000F8002F00
03E000F8002F00
03E000F8002F00
03E000F8002F00
03E000F8002F00
03F002FC00BF00
02F91EBE46AF00
01FFF83FFE2F00
006F901BE42F00
00000000002F00
00000000002F00
00000000002F00
00000000002F00
00000000002F00
00000000002F90
00000000002FF4
ENDCHAR
STARTCHAR uni0271
ENCODING 625
SWIDTH 835 0
DWIDTH 27 0
BBX 24 23 1 -7
BITMAP
1B80BE406F90
FF87FFD2FFF4
0FED0BEB42F8
0BE002FC00BC
0BC002F000BD
0BC002F0007D
0BC002F0007D
0BC002F0007D
0BC002F0007D
0BC002F0007D
0BC002F0007D
0BC002F0007D
0BC002F0007D
0BC002F4007D
5FE417F9007D
FFFD3FFF807D
00000000007D
00000000007C
00000000007C
0000000140B8
0000000BD0B4
00000007FAE0
00000001FE40
ENDCHAR
STARTCHAR uni0272
ENCODING 626
SWIDTH 574 0
DWIDTH 18 0
BBX 21 23 -3 -7
BITMAP
006B81BE4000
005F9A5BD000
000BF403E000
000BC002F000
000BC001F400
000BC001F400
000BC001F400
000BC001F400
000BC001F400
000BC001F400
000BC001F400
000BC001F400
000BC001F400
000BC001F400
000BC017FD40
000BC02FFF80
000B80000000
000B80000000
000B80000000
500F40000000
FC0F00000000
FE6D00000000
2FE000000000
ENDCHAR
STARTCHAR uni0273
ENCODING 627
SWIDTH 563 0
DWIDTH 18 0
BBX 21 23 1 -7
BITMAP
1B81BE400000
FF8BFFD00000
0FE90BE00000
0BE002F00000
0BC001F40000
0BC001F40000
0BC001F40000
0BC001F40000
0BC001F40000
0BC001F40000
0BC001F40000
0BC001F40000
0BC001F40000
0FC001F40000
5FE401F40000
FFFD01F40000
000001F40000
000001F40000
000000F40000
000000B40500
000000781F40
0000002EBF40
00000006F900
ENDCHAR
STARTCHAR uni0274
ENCODING 628
SWIDTH 568 0
DWIDTH 18 0
BBX 18 16 0 0
BITMAP
7FE001FFE0
1FF4006F50
07FD000E00
03FF000D00
037F800D00
035FD00D00
0347F40D00
0342FC0D00
0340BE0D00
03403F8D00
03401FDD00
034007FD00
034002FD00
074000BD00
1BD0003D00
7FF8001D00
ENDCHAR
STARTCHAR uni0275
ENCODING 629
SWIDTH 514 0
DWIDTH 16 0
BBX 15 16 1 0
BITMAP
006FE400
07E5BE00
1F401F80
2E0007D0
7D0003F0
BD0002F0
BC0002F4
FFFFFFF4
FD5556F4
BD0002F4
BD0002F0
7E0003E0
3F0007D0
1F800B80
07E56E00
00AFE400
ENDCHAR
STARTCHAR uni0276
ENCODING 630
SWIDTH 732 0
DWIDTH 23 0
BBX 22 16 1 0
BITMAP
006FFFFFFF40
07E56F955B40
1F800F800280
3F000F800180
7E000F800000
BD000F801800
BD000F806800
FD000FFFF800
FD000F957800
BD000F801800
BD000F801800
7E000F800050
3F000F8000D0
1F800F8002C0
07E56F955BC0
006FFFFFFF80
ENDCHAR
STARTCHAR uni0277
ENCODING 631
SWIDTH 672 0
DWIDTH 22 0
BBX 20 16 1 0
BITMAP
001AFF9000
00BE55BD00
07E0001F80
1F800007E0
2F000001F4
7D001000F8
BD00BD00BC
BC00FD00BD
FC00FD00BD
FC00BD00BD
BC00BC00BD
BD007C00FC
7E003800F8
2F00AD02F4
0BD6875BD0
01BE01BE00
ENDCHAR
STARTCHAR uni0278
ENCODING 632
SWIDTH 658 0
DWIDTH 21 0
BBX 19 31 1 -7
BITMAP
0000140000
000AF80000
000AF80000
0000F80000
0000B80000
0000B80000
0000B80000
0000B80000
006FFFE400
02F9FDBF40
0BD0B81FD0
2F40B807F0
3E00B802F4
7D00B801F8
BC00B800FC
FC00B800FC
FC00B800FC
BC00B800F8
BD00B801F8
7E00B801F0
3F00B803E0
1F80B80BC0
07F5B86E00
006FFFE400
0000B80000
0000B80000
0000B80000
0000B80000
0000FC0000
0006FE4000
000FFFD000
ENDCHAR
STARTCHAR uni0279
ENCODING 633
SWIDTH 380 0
DWIDTH 12 0
BBX 12 16 0 0
BITMAP
02FFFD
016FE4
000FC0
000BC0
000BC0
000BC0
000BC0
000BC0
000BC0
000BC0
000FC0
001FC0
787BC0
BFDBD4
BF8BFC
7D0B90
ENDCHAR
STARTCHAR uni027A
ENCODING 634
SWIDTH 374 0
DWIDTH 12 0
BBX 11 24 0 0
BITMAP
000140
006FC0
00AFC0
000BC0
000BC0
000BC0
000BC0
000BC0
000BC0
000BC0
000BC0
000BC0
000BC0
000BC0
000BC0
000BC0
000BC0
000BC0
000FC0
001FC0
787BC0
BFDBD4
BF8BFC
7D0B90
ENDCHAR
STARTCHAR uni027B
ENCODING 635
SWIDTH 375 0
DWIDTH 12 0
BBX 15 23 0 -7
BITMAP
02FFFD00
016FE400
000FC000
000BC000
000BC000
000BC000
000BC000
000BC000
000BC000
000BC000
000FC000
001FC000
787BC000
BFDBC000
BF8BC000
7D0BC000
000BC000
000BC000
0007C000
0003C024
0002D0FC
0001F6FC
00002FE0
ENDCHAR
STARTCHAR uni027C
ENCODING 636
SWIDTH 378 0
DWIDTH 12 0
BBX 11 23 1 -7
BITMAP
0681F4
BF87F8
5F9FF8
0BA4B4
0BE000
0BC000
0BC000
0BC000
0BC000
0BC000
0BC000
0BC000
0BC000
0BC000
0BC000
0BC000
0BC000
0BC000
0BC000
0BC000
0FC000
6FE500
FFFF00
ENDCHAR
STARTCHAR uni027D
ENCODING 637
SWIDTH 373 0
DWIDTH 12 0
BBX 11 23 1 -7
BITMAP
5B82F4
AF8FF8
0FA5B4
0FE000
0F8000
0F8000
0F8000
0F8000
0F8000
0F8000
0F8000
0F8000
0F8000
0F8000
0F8000
0F8000
0F8000
0F8000
0B8000
07C064
03C1F8
01E7F8
006FE0
ENDCHAR
STARTCHAR uni027E
ENCODING 638
SWIDTH 371 0
DWIDTH 12 0
BBX 12 16 0 0
BITMAP
000BF8
0079BE
00F03D
01F004
02E000
02E000
03E000
03E000
03E000
03E000
03E000
03E000
03E000
03F000
1BF940
7FFF80
ENDCHAR
STARTCHAR uni027F
ENCODING 639
SWIDTH 371 0
DWIDTH 12 0
BBX 12 16 0 0
BITMAP
2FE000
BE6C00
B80E00
100F40
000F40
000F80
000F80
000B80
000B80
000B80
000B80
000B80
000FC0
000FC0
016FE4
02FFFD
ENDCHAR
STARTCHAR uni0280
ENCODING 640
SWIDTH 494 0
DWIDTH 16 0
BBX 16 16 1 0
BITMAP
BFFFA400
0FD5BD00
0BC02F00
0BC01F40
0BC01F40
0BC01F40
0BC02F00
0BC1BD00
0BFF9000
0BDBD000
0BC3F400
0BC1FC00
0BC07E00
0BC02F80
5FD40FE4
FFFC07FD
ENDCHAR
STARTCHAR uni0281
ENCODING 641
SWIDTH 494 0
DWIDTH 16 0
BBX 16 16 1 0
BITMAP
FFFC07FD
5FD40FE4
0BC02F80
0BC07F00
0BC0FC00
0BC2F400
0BCBD000
0BFF9000
0BD6F800
0BC02F00
0BC01F40
0BC01F40
0BC01F40
0BC02F40
0FD5BE00
BFFFE400
ENDCHAR
STARTCHAR uni0282
ENCODING 642
SWIDTH 395 0
DWIDTH 13 0
BBX 11 23 1 -7
BITMAP
06FE60
2E5BE0
7800E0
B800A0
BC0030
7F4000
3FE000
0FFE00
02FFC0
002FF0
8007F8
9001F8
A000F8
B400F4
BE57E0
A6FE40
A00000
A00000
A00000
700000
703C00
29BC00
0BE400
ENDCHAR
STARTCHAR uni0283
ENCODING 643
SWIDTH 253 0
DWIDTH 8 0
BBX 16 31 -4 -7
BITMAP
00001FE4
0000B5FD
0001E07E
0002D018
0003D000
0003D000
0007D000
0007D000
0007D000
0007D000
0007D000
0007D000
0007D000
0007D000
0007D000
0007D000
0007D000
0007D000
0007D000
0007D000
0007D000
0007D000
0007D000
0007D000
0007D000
0007D000
0007C000
2807C000
7D078000
3F5F0000
1BF80000
ENDCHAR
STARTCHAR uni0284
ENCODING 644
SWIDTH 286 0
DWIDTH 9 0
BBX 15 30 -3 -7
BITMAP
00002FE0
0000F6F8
0002D0B8
0003C010
0007C000
000BC000
000BC000
000BC000
000BC000
000BC000
000BC000
000BC000
000BC000
000BC000
000BC000
000BC000
000BC000
000BC000
000BC000
000BC000
000BC000
005FD400
01FFFD00
000BC000
000BC000
000B8000
000F4000
780F0000
BE6D0000
2FE00000
ENDCHAR
STARTCHAR uni0285
ENCODING 645
SWIDTH 361 0
DWIDTH 12 0
BBX 15 23 0 -7
BITMAP
2FE40000
BE6D0000
B80F0000
500B4000
000B8000
000B8000
000BC000
000BC000
000BC000
000BC000
000BC000
000BC000
000BC000
000BC000
000BC000
000BC000
000BC000
000BC000
000BC000
0007C024
0003C0BC
0001E6F8
00006FE0
ENDCHAR
STARTCHAR uni0286
ENCODING 646
SWIDTH 253 0
DWIDTH 8 0
BBX 15 31 -3 -7
BITMAP
00007F90
0002D7F4
000781F8
000B4060
000F4000
000F4000
001F4000
001F4000
001F4000
001F4000
001F4000
001F4000
001F4000
001F4000
001F4000
001F4000
001F4000
001F4000
001F4000
001F4000
001F4000
001F4000
001F4000
001F4000
0BFF4000
396FD000
B01FB800
A01F0800
A02E0000
797C0000
1BE00000
ENDCHAR
STARTCHAR uni0287
ENCODING 647
SWIDTH 315 0
DWIDTH 10 0
BBX 9 21 0 -5
BITMAP
0BE000
2FF800
A0FC00
40BC00
00BC00
00BC00
00BC00
00BC00
00BC00
00BC00
00BC00
00BC00
00BC00
00BC00
15BD40
3FFF80
00BE00
00B800
00B400
00A000
005000
ENDCHAR
STARTCHAR uni0288
ENCODING 648
SWIDTH 309 0
DWIDTH 10 0
BBX 11 28 1 -7
BITMAP
018000
028000
078000
0B8000
2F8000
BFFF40
5F9500
0F8000
0F8000
0F8000
0F8000
0F8000
0F8000
0F8000
0F8000
0F8000
0F8000
0F8000
0F8000
0F8000
0F8000
0F8000
0B8000
0B8000
07C064
03C1F8
01E7F8
006FE0
ENDCHAR
STARTCHAR uni0289
ENCODING 649
SWIDTH 580 0
DWIDTH 19 0
BBX 17 16 1 0
BITMAP
AB802AF400
6F8017F400
0F8002F400
0F8001F400
0F8001F400
0F8001F400
FFFFFFFF40
5F9556F500
0F8001F400
0F8001F400
0F8001F400
0FC001F400
0BD003F400
07F41EF400
03FFF5FE40
00BF81E900
ENDCHAR
STARTCHAR uni028A
ENCODING 650
SWIDTH 548 0
DWIDTH 18 0
BBX 15 16 1 0
BITMAP
7FF01FFC
17D00F94
02C00740
074002C0
0F0001E0
2E0001F0
3E0000F8
7D0000FC
BD0000BC
BD0000BC
BD0000FC
7E0000F8
3F0001F4
1F8003E0
07E56F80
006FE900
ENDCHAR
STARTCHAR uni028B
ENCODING 651
SWIDTH 530 0
DWIDTH 17 0
BBX 15 16 1 0
BITMAP
AF800B80
6F800BD0
1F8007E0
0F8002F0
0F8000F4
0F800074
0F800034
0F800034
0F800034
0F800034
0F800070
0F8000A0
0BC001C0
07E40740
02FFFD00
006FE400
ENDCHAR
STARTCHAR uni028C
ENCODING 652
SWIDTH 495 0
DWIDTH 16 0
BBX 17 16 -1 0
BITMAP
0000F00000
0001F40000
0003F80000
0007BC0000
000A7D0000
000D3E0000
001C2F4000
00381F8000
00740FC000
00B00BD000
00E007E000
01D002F000
038001F800
078000FC00
1F9006FE40
7FF40BFFC0
ENDCHAR
STARTCHAR uni028D
ENCODING 653
SWIDTH 764 0
DWIDTH 24 0
BBX 25 16 0 0
BITMAP
00078001D00000
000BC002E00000
000FD007F40000
001FE00BF80000
002AF00DFC0000
0035F41CBD0000
0070F8283E0000
00E0BD342F0000
01D07EA01F8000
02C02FD00FC000
03801FC00BD000
07400F8007E000
0B000BC003F000
1E0007E002F800
7F401BF506FE40
FFD03FFE0FFF80
ENDCHAR
STARTCHAR uni028E
ENCODING 654
SWIDTH 492 0
DWIDTH 16 0
BBX 16 23 0 0
BITMAP
000002F8
00000FFD
00002DBD
00007400
0000E000
0001D000
00028000
00038000
000B8000
000FC000
001FE000
002AF000
0036F400
0070FC00
00A0BD00
01D07E00
02C02F40
03801F80
07400FD0
0B0007E0
0E0003F0
6E4017F9
FFD02FFF
ENDCHAR
STARTCHAR uni028F
ENCODING 655
SWIDTH 454 0
DWIDTH 15 0
BBX 16 16 -1 0
BITMAP
7FFC03FF
2FE401B9
07E000B0
02F000D0
00F80280
007D0700
002F0D00
001F9800
000BF400
0003E000
0003E000
0003E000
0003E000
0003F000
001BF900
003FFF00
ENDCHAR
STARTCHAR uni0290
ENCODING 656
SWIDTH 458 0
DWIDTH 15 0
BBX 18 23 1 -7
BITMAP
7FFFFF4000
7D557F0000
7400BD0000
6001F80000
6003F00000
000BD00000
001F800000
003F400000
00BE000000
01FC000000
03F4014000
0BE0028000
1FC0034000
3F40074000
BE556F4000
FFFFFF4000
0000034000
0000034000
0000034000
0000034000
00000282E0
000001D7D0
0000006F80
ENDCHAR
STARTCHAR uni0291
ENCODING 657
SWIDTH 458 0
DWIDTH 15 0
BBX 14 21 1 -5
BITMAP
7FFFFF40
7D557F00
7400BD00
6001F800
6003F000
000BD000
001F8000
003F4000
00BE0000
01FC0000
03F40000
0BE06F80
1FC1E6D0
3F4740D0
BE5E56C0
FFFFF900
00340000
00A00000
00D00000
02800000
03400000
ENDCHAR
STARTCHAR uni0292
ENCODING 658
SWIDTH 443 0
DWIDTH 14 0
BBX 14 23 0 -7
BITMAP
2FFFFFD0
2E556F80
2C007F00
2400BD00
1002F800
0007F000
000FD000
002F8000
007E0000
00FE0000
006BF400
0000BE00
00002F80
00000BD0
000007E0
000007E0
000007E0
000007E0
14000BD0
3D000F80
7F002F00
2F96F800
06FE4000
ENDCHAR
STARTCHAR uni0293
ENCODING 659
SWIDTH 443 0
DWIDTH 14 0
BBX 13 28 1 -12
BITMAP
BFFFFF40
B955BE00
B000FC00
9002F400
9007E000
000FC000
002F4000
007E0000
00FC0000
02F40000
02FE4000
0007F400
0000FD00
00007F00
00002F40
00001F40
00001F80
2F401F40
A6D02F40
D0703F00
A028BD00
795FF400
06FF8000
00028000
0001C000
0000A000
00003400
00001400
ENDCHAR
STARTCHAR uni0294
ENCODING 660
SWIDTH 383 0
DWIDTH 12 0
BBX 12 24 0 0
BITMAP
01BF90
0F96F8
2E007D
3E003E
3D002F
04002F
00002F
00002F
00003E
00007D
0000FC
0002F0
001F80
02F400
02F000
02F000
02F000
02F000
02F000
02F000
02F000
03F000
1BF940
7FFF80
ENDCHAR
STARTCHAR uni0295
ENCODING 661
SWIDTH 383 0
DWIDTH 12 0
BBX 12 24 0 0
BITMAP
01BF90
0F95F4
2E00BC
7D007D
BC007D
FC0014
FC0000
BC0000
BD0000
7E0000
2F0000
0B8000
01F400
001BC0
000BC0
000BC0
000BC0
000BC0
000BC0
000BC0
000BC0
000BD0
006FE4
01FFFD
ENDCHAR
STARTCHAR uni0296
ENCODING 662
SWIDTH 408 0
DWIDTH 13 0
BBX 11 24 1 0
BITMAP
014000
6FD000
6FD000
0BD000
07D000
07D000
07D000
07D000
07D000
07D000
07D000
02F800
001F40
0007E0
0002F4
0000F8
0000BC
0000BC
0000BC
B400BC
F800F8
F801F4
7D07D0
1BFE40
ENDCHAR
STARTCHAR uni0297
ENCODING 663
SWIDTH 437 0
DWIDTH 14 0
BBX 13 22 1 -6
BITMAP
006FE400
02E5FD00
0B407F00
1E003F00
2D001F00
3C000000
7C000000
B8000000
B8000000
F8000000
F8000000
F8000000
F8000000
B8000000
BC000000
7D000000
7E000000
3F000140
1F800700
0BE56D00
03FFF800
00BF9000
ENDCHAR
STARTCHAR uni0298
ENCODING 664
SWIDTH 736 0
DWIDTH 24 0
BBX 22 23 1 0
BITMAP
0002BFE40000
002F956F4000
01F80007E000
07E00001F800
0F8000007E00
2F4000003F00
3E0000001F80
7D0000000FC0
BD0000000BD0
BC002E000BD0
FC007F800BD0
FC007F8007E0
FC002E000BD0
BC0000000BD0
BD0000000BD0
7E0000000FC0
3F0000001F80
1F4000003F00
0FC000007D00
03E00001F800
01F80007E000
002F956F4000
0001BFE40000
ENDCHAR
STARTCHAR uni0299
ENCODING 665
SWIDTH 485 0
DWIDTH 16 0
BBX 14 16 1 0
BITMAP
FFFFE400
0FD5BE00
0BC02F40
0BC01F80
0BC01F80
0BC02F40
0BC07D00
0BFFE000
0BD5BE00
0BC01F80
0BC00BD0
0BC00BD0
0BC00BD0
0BC00FC0
1FD56F40
FFFFE800
ENDCHAR
STARTCHAR uni029A
ENCODING 666
SWIDTH 500 0
DWIDTH 16 0
BBX 14 16 1 0
BITMAP
06FF9000
2F95F800
7D002F00
BC000B80
7C0007D0
3D0003E0
1B5003E0
02FF02F0
1F9502F0
7D0002E0
BC0003E0
FC0007D0
BC000B80
7E002F00
2F95B800
06FF9000
ENDCHAR
STARTCHAR uni029B
ENCODING 667
SWIDTH 536 0
DWIDTH 17 0
BBX 19 22 1 0
BITMAP
00000007F4
0000001DBC
000000343C
0000007014
0000007000
0000007000
006FF9B000
02F55BF000
0F8001F000
2F0000B000
7E00007000
BD00001000
BC00000000
FC00000000
FC002FFE00
BD0017F400
BD0002F000
7E0002F000
3F0002F000
1F8002F000
07F95BD000
006FF90000
ENDCHAR
STARTCHAR uni029C
ENCODING 668
SWIDTH 599 0
DWIDTH 19 0
BBX 18 16 1 0
BITMAP
FFFD0FFFD0
5FE405FE40
0BC000BC00
0BC000BC00
0BC000BC00
0BC000BC00
0BC000BC00
0BFFFFFC00
0BD555BC00
0BC000BC00
0BC000BC00
0BC000BC00
0BC000BC00
0BC000BC00
5FE405FE40
FFFD0FFFD0
ENDCHAR
STARTCHAR uni029D
ENCODING 669
SWIDTH 263 0
DWIDTH 8 0
BBX 12 29 -3 -7
BITMAP
000B80
001FD0
001FD0
000B80
000000
000000
005BC0
00BFC0
000FC0
000BC0
000BC0
000BC0
000BC0
000BC0
000BC0
000BC0
000BC0
000BC0
000BC0
000BC0
000BC0
000BC0
06FFC0
2E5FE0
340FAD
700F45
701F00
296D00
0BE400
ENDCHAR
STARTCHAR uni029E
ENCODING 670
SWIDTH 542 0
DWIDTH 17 0
BBX 17 23 0 -7
BITMAP
FFFD3FFF40
5FF417F900
07F402F400
01FD02F000
007F02F000
001FC2F000
000BE2F000
0002FAF000
0000BFF000
00003AF000
0000A2F000
000782F000
001E02F000
007C02F000
16F902F000
2FFF02F000
000002F000
000002F000
000002F000
000002F000
000002F400
000002F900
000002FF80
ENDCHAR
STARTCHAR uni029F
ENCODING 671
SWIDTH 440 0
DWIDTH 14 0
BBX 14 16 0 0
BITMAP
7FFF0000
1BF50000
07E00000
03E00000
03E00000
03E00000
03E00000
03E00000
03E00000
03E00000
03E00000
03E00050
03E000D0
03E001D0
07F457C0
7FFFFFC0
ENDCHAR
STARTCHAR uni02A0
ENCODING 672
SWIDTH 541 0
DWIDTH 17 0
BBX 21 31 1 -7
BITMAP
0000001BF900
000000B5BF40
000001D02F40
000002D00A00
000003C00000
000007C00000
000007C00000
00000BC00000
006FEBC00000
02E5BFC00000
0F401FC00000
2E000BC00000
3D000BC00000
7C000BC00000
BC000BC00000
F8000BC00000
FC000BC00000
FC000BC00000
BC000BC00000
BE000BC00000
7F000BC00000
2FD56FC00000
0FFFDBC00000
02FE4BC00000
00000BC00000
00000BC00000
00000BC00000
00000BC00000
00000BD00000
00006FE40000
0002FFFD0000
ENDCHAR
STARTCHAR uni02A1
ENCODING 673
SWIDTH 393 0
DWIDTH 13 0
BBX 12 24 1 0
BITMAP
06FE40
2E57E0
BC01F4
F800BC
F800BC
6000BD
0000BD
0000BD
0000BC
0000F8
0002F4
0007E0
001F40
06F800
0BC000
0BC000
0BC000
FFFF80
5BD500
0BC000
0BC000
0BC000
5FE500
FFFE00
ENDCHAR
STARTCHAR uni02A2
ENCODING 674
SWIDTH 393 0
DWIDTH 13 0
BBX 12 24 0 0
BITMAP
01BF90
0B95F8
2F007D
7D007E
BD003D
BC0018
BC0000
BC0000
BD0000
7E0000
2F0000
0F8000
02E000
006E40
0007D0
0007D0
0007D0
03FFFE
015BD4
0007D0
0007D0
000BD0
005FE4
01FFFE
ENDCHAR
STARTCHAR uni02A3
ENCODING 675
SWIDTH 830 0
DWIDTH 27 0
BBX 25 24 1 0
BITMAP
00000140000000
00006FD0000000
00006FD0000000
00000BD0000000
000007D0000000
000007D0000000
000007D0000000
000007D0000000
006FEBFFFFFF40
02E57FD555BF40
0F400FD000FE00
2E000BD002F800
3D0007D007F400
7C0007D00BE000
BC0007D01F8000
BC0007D03F4000
FC0007D0BD0000
FC0007D1F80000
BC0007D3F40140
BD0007DBD00240
7F000BDF800340
2FD56FFF000B40
0FFFE7FE55AF40
02FE47FFFFFF40
ENDCHAR
STARTCHAR uni02A4
ENCODING 676
SWIDTH 838 0
DWIDTH 27 0
BBX 26 31 1 -7
BITMAP
000016D0000000
0000BFD0000000
00000BD0000000
00000BD0000000
000007D0000000
000007D0000000
000007D0000000
000007D0000000
006FEBFFFFFF80
02E57FD5557F80
0F400FD000BF00
2E000BD001FD00
3D0007D002F800
7C0007D007E000
BC0007D00FD000
BC0007D02F4000
FC0007D07E0000
FC0007D0FD0000
BC0007D1FE9000
BD0007D006F800
7F000BD0007F00
2FD56FD0002F80
0FFFE7F9000FC0
02FE47A4000BC0
00000000000BD0
00000000000BC0
00000000000FC0
00000078001F40
000000BD003E00
0000007F46F400
0000001BFE4000
ENDCHAR
STARTCHAR uni02A5
ENCODING 677
SWIDTH 829 0
DWIDTH 27 0
BBX 25 29 1 -5
BITMAP
00000140000000
00006FD0000000
00006FD0000000
00000BD0000000
000007D0000000
000007D0000000
000007D0000000
000007D0000000
006FEBFFFFFF40
02E57FD555BF40
0F400FD000FE00
2E000BD002FC00
3D0007D007F400
7C0007D00FE000
BC0007D02FC000
BC0007D07F4000
FC0007D0BE0000
FC0007D1FC0000
BC0007D3F46F40
BD0007DBE1E6C0
7F000BEFC341C0
2FD57FFF4A01C0
0FFFE7FE5D5780
02FE47FFFFF900
00000000700000
00000000D00000
00000001C00000
00000003400000
00000002000000
ENDCHAR
STARTCHAR uni02A6
ENCODING 678
SWIDTH 614 0
DWIDTH 20 0
BBX 18 21 1 0
BITMAP
0040000000
0280000000
0380000000
0B80000000
1F80000000
7FFFFFF9C0
5F95F96FC0
0F82E003C0
0F82E002C0
0F82F000C0
0F81FD0000
0F80BF8000
0F802FF800
0F8006FF00
0F80007FC0
0F80000BD0
0F800003E0
0FC00003E0
07E0000BC0
02FE55BF40
002BFFA400
ENDCHAR
STARTCHAR uni02A7
ENCODING 679
SWIDTH 513 0
DWIDTH 16 0
BBX 19 31 1 -7
BITMAP
0000006FE0
000001E7F8
000003C0FC
0140078064
02800B8000
07800B8000
0B800F8000
2F800F8000
BFFFFF8000
5F955F8000
0F800F8000
0F800F8000
0F800F8000
0F800F8000
0F800F8000
0F800F8000
0F800F8000
0F800F8000
0F800F8000
0F800F8000
0F800F8000
0FC18F8000
0BFF0F8000
02F80F8000
00000F8000
00000F8000
00000F4000
00500F4000
00F80F0000
00BE6D0000
002FE40000
ENDCHAR
STARTCHAR uni02A8
ENCODING 680
SWIDTH 687 0
DWIDTH 22 0
BBX 20 21 1 0
BITMAP
0040000000
0280000000
0380000000
0B80000000
1F80000000
7FFF40BFA0
5F950796FD
0F801E00BE
0F803C003E
0F80B80019
0F80F40000
0F80F40000
0F80F40000
0F81F40000
0F81F80000
0F80F806F8
0F80BD7D5E
0F807FD007
0FC03F800A
0BE5BFF56D
02FE41BFE0
ENDCHAR
STARTCHAR uni02A9
ENCODING 681
SWIDTH 866 0
DWIDTH 28 0
BBX 26 31 0 -7
BITMAP
000BF800000000
0039BF00000000
00B03F00000000
01F01A00000000
01F00000000000
02F00000000000
02F00000000000
02F00000000000
7FFFFFFE06F900
17F555BE2FFF40
02F0003EA42F80
02F0003F800FC0
02F0003E000BC0
02F0003E000BD0
02F0003E0007D0
02F0003E0007D0
02F0003E0007D0
02F0003E0007D0
02F0003E0007D0
02F0003E0007D0
02F0003E0007D0
03F0003F0007D0
1BFD41BF9007D0
7FFFD3FFF407D0
000000000007D0
000000000007C0
000000000007C0
00000000140B80
00000000BD0B40
000000007FAE00
000000002FE400
ENDCHAR
STARTCHAR uni02AA
ENCODING 682
SWIDTH 595 0
DWIDTH 19 0
BBX 18 24 0 0
BITMAP
0140000000
6FD0000000
6FD0000000
07D0000000
07D0000000
07D0000000
07D0000000
07D0000000
07D00BF990
07D07D5BD0
07D0F402D0
07D0F000D0
07D1F40090
07D0FE0000
07D07FD000
07D01FF900
07D006FF80
07D0006FD0
07D00007F0
07D00002F0
07D00002F0
03E00007E0
01F9556F80
001AFFA400
ENDCHAR
STARTCHAR uni02AB
ENCODING 683
SWIDTH 580 0
DWIDTH 19 0
BBX 17 24 1 0
BITMAP
0140000000
AFC0000000
AFC0000000
0FC0000000
0BC0000000
0BC0000000
0BC0000000
0BC0000000
0BFFFFFF00
0BD555BE00
0BC000FD00
0BC002F800
0BC003F000
0BC00BD000
0BC01F8000
0BC03F0000
0BC0BD0000
0BC1F80000
0BC2F40100
0BC7E00340
0BCFC00700
0FEF400B00
1FFF55BF00
FFFFFFFF00
ENDCHAR
STARTCHAR uni02AC
ENCODING 684
SWIDTH 599 0
DWIDTH 19 0
BBX 19 24 0 0
BITMAP
BFD3FF07FC
6F81FD01E4
0F407C00D0
0B803D0180
07D07E0240
02E09F4300
01F0CB8600
00F587C900
00BA43DC00
007F02F800
003E01F400
001900A000
0000000000
BFD3FF07FC
6F81FD01E4
0F407C00C0
0BC03D0180
03D07F0240
02E09F4700
01F0CB8A00
00F987CC00
007E03E800
003E01F400
002D00F000
ENDCHAR
STARTCHAR uni02AD
ENCODING 685
SWIDTH 479 0
DWIDTH 15 0
BBX 11 22 2 0
BITMAP
BFFFFC
BFFFFC
B4002C
B0002C
B0002C
B0002C
B0002C
B0002C
B0002C
B0002C
000000
000000
BFFFFC
BFFFFC
B4002C
B0002C
B0002C
B0002C
B0002C
B0002C
B0002C
B0002C
ENDCHAR
STARTCHAR uni02AE
ENCODING 686
SWIDTH 595 0
DWIDTH 19 0
BBX 20 23 -1 -7
BITMAP
6F900006D0
FDB4007FD0
B42D0007D0
002E0007D0
002F0007D0
002F0007D0
002F0007D0
002F0007D0
002F0007D0
002F4007D0
001F4007D0
001F4007D0
001F800BD0
000FE07BD0
0007FFD7D0
0001FE07D0
00000007D0
00000007D0
00000007D0
00000007D0
00000007E0
00000007F5
00000007FF
ENDCHAR
STARTCHAR uni02AF
ENCODING 687
SWIDTH 600 0
DWIDTH 19 0
BBX 24 23 -1 -7
BITMAP
6F900006D000
FDB4007FD000
B42D0007D000
002E0007D000
002F0007D000
002F0007D000
002F0007D000
002F0007D000
002F0007D000
002F4007D000
001F4007D000
001F4007D000
001F800BD000
000FE07BD000
0007FFD7D000
0001FE07D000
00000003D000
00000003D000
00000003E000
00000002E018
00000001E07E
00000000BAFD
000000001BE4
ENDCHAR
STARTCHAR uni02B0
ENCODING 688
SWIDTH 488 0
DWIDTH 16 0
BBX 14 18 1 8
BITMAP
AF000000
6F000000
1F000000
1F000000
1F000000
1F0BE400
1F7FFC00
1FD07E00
1F002E00
1F001F00
1F001F00
1F001F00
1F001F00
1F001F00
1F001F00
1F001F00
2F402F40
FFF1FFF0
ENDCHAR
STARTCHAR uni02B1
ENCODING 689
SWIDTH 488 0
DWIDTH 16 0
BBX 14 19 1 8
BITMAP
006F9000
0282F400
0B00B400
0F000000
1F000000
1F000000
1F0BE400
1F7FFC00
1FD07E00
1F002E00
1F001F00
1F001F00
1F001F00
1F001F00
1F001F00
1F001F00
1F001F00
2F402F40
FFF1FFF0
ENDCHAR
STARTCHAR uni02B2
ENCODING 690
SWIDTH 222 0
DWIDTH 7 0
BBX 9 24 -3 2
BITMAP
001E00
002F40
001F00
000000
000000
00AF00
006F00
001F00
001F00
001F00
001F00
001F00
001F00
001F00
001F00
001F00
001F00
001F00
001F00
001F00
281E00
7E2D00
2FF400
010000
ENDCHAR
STARTCHAR uni02B3
ENCODING 691
SWIDTH 325 0
DWIDTH 10 0
BBX 9 13 1 8
BITMAP
AF0B80
6F3FC0
1F9780
1F8000
1F0000
1F0000
1F0000
1F0000
1F0000
1F0000
1F0000
2F4000
FFF400
ENDCHAR
STARTCHAR uni02B4
ENCODING 692
SWIDTH 325 0
DWIDTH 10 0
BBX 9 13 1 8
BITMAP
07FFC0
007D00
003D00
003D00
003D00
003D00
003D00
003D00
003D00
00BD00
B5BD00
FE3E40
B83E80
ENDCHAR
STARTCHAR uni02B5
ENCODING 693
SWIDTH 325 0
DWIDTH 10 0
BBX 12 17 1 4
BITMAP
07FFC0
007E00
003D00
003D00
003D00
003D00
003D00
003D00
003D00
00BD00
B5BD00
FE3D00
B83D00
003D00
002D05
000E1E
0006F9
ENDCHAR
STARTCHAR uni02B6
ENCODING 694
SWIDTH 443 0
DWIDTH 14 0
BBX 13 13 1 8
BITMAP
FFF03FC0
2F40BD00
1F01F400
1F03E000
1F0BC000
1F1F4000
1FFE4000
1F06E000
1F00F800
1F00BC00
1F00B800
1F01F400
BFFF9000
ENDCHAR
STARTCHAR uni02B7
ENCODING 695
SWIDTH 653 0
DWIDTH 21 0
BBX 21 13 0 8
BITMAP
FFD1FFC0BFC0
2F403F001E00
0F401F001C00
0B801F402800
07C01F803400
03E02BC0A000
02F073D0D000
00F4A2E1C000
00B8D1F68000
007DC0F74000
003F40BF0000
002F003E0000
001E002D0000
ENDCHAR
STARTCHAR uni02B8
ENCODING 696
SWIDTH 427 0
DWIDTH 14 0
BBX 14 18 0 3
BITMAP
FFF03FE0
2F400B40
0F800A00
0BC00D00
03D01C00
02F02400
01F43000
00B86000
007D9000
003EC000
001F8000
000F0000
000A0000
000D0000
002C0000
29740000
7FE00000
2F800000
ENDCHAR
STARTCHAR uni02B9
ENCODING 697
SWIDTH 296 0
DWIDTH 9 0
BBX 6 10 2 13
BITMAP
03C0
0BD0
0FC0
0F40
1F00
2D00
3C00
7400
B000
9000
ENDCHAR
STARTCHAR uni02BA
ENCODING 698
SWIDTH 456 0
DWIDTH 15 0
BBX 11 10 2 13
BITMAP
03C0B0
0BD1F4
0FC2F0
0F43E0
1F07C0
2D0B80
3C0F00
741E00
B01C00
902800
ENDCHAR
STARTCHAR uni02BB
ENCODING 699
SWIDTH 245 0
DWIDTH 8 0
BBX 5 9 2 15
BITMAP
0100
0A00
3800
B000
E000
FE00
FF40
FF40
6E00
ENDCHAR
STARTCHAR uni02BC
ENCODING 700
SWIDTH 244 0
DWIDTH 8 0
BBX 5 9 1 15
BITMAP
2E00
7F80
7FC0
2FC0
0280
0340
0A00
2800
1000
ENDCHAR
STARTCHAR uni02BD
ENCODING 701
SWIDTH 244 0
DWIDTH 8 0
BBX 5 9 2 15
BITMAP
6E00
FF00
FF40
FE00
E000
A000
3400
0A00
0100
ENDCHAR
STARTCHAR uni02BE
ENCODING 702
SWIDTH 203 0
DWIDTH 7 0
BBX 5 8 1 16
BITMAP
F900
5B00
0780
0380
0780
0B40
FD00
4000
ENDCHAR
STARTCHAR uni02BF
ENCODING 703
SWIDTH 203 0
DWIDTH 7 0
BBX 5 8 1 16
BITMAP
2F80
B500
E000
E000
E000
B400
2F80
0100
ENDCHAR
STARTCHAR uni02C0
ENCODING 704
SWIDTH 364 0
DWIDTH 12 0
BBX 10 12 1 12
BITMAP
1BF900
7E5F40
BC07C0
7403D0
0003E0
0003D0
0007D0
000B80
007E00
07E400
07C000
07C000
ENDCHAR
STARTCHAR uni02C1
ENCODING 705
SWIDTH 364 0
DWIDTH 12 0
BBX 10 12 1 12
BITMAP
06FE00
2E5F80
7C07D0
B802C0
F80000
F80000
BC0000
3E0000
1F9000
01BC00
007C00
007C00
ENDCHAR
STARTCHAR uni02C2
ENCODING 706
SWIDTH 324 0
DWIDTH 10 0
BBX 9 10 1 14
BITMAP
000740
007F00
02F400
1F8000
BD0000
7E0000
0BE000
01BD00
001F40
000240
ENDCHAR
STARTCHAR uni02C3
ENCODING 707
SWIDTH 324 0
DWIDTH 10 0
BBX 8 11 1 14
BITMAP
4000
A000
BE00
1BD0
01F8
002F
007E
07F4
2F40
B800
9000
ENDCHAR
STARTCHAR uni02C4
ENCODING 708
SWIDTH 324 0
DWIDTH 10 0
BBX 11 9 0 16
BITMAP
005000
00B400
01F800
03ED00
0B4F00
0F0740
2D03C0
7801E0
B000B4
ENDCHAR
STARTCHAR uni02C5
ENCODING 709
SWIDTH 324 0
DWIDTH 10 0
BBX 11 9 0 16
BITMAP
500064
7400F0
3C02D0
1E0380
0B0B40
079E00
02FC00
00F400
00B000
ENDCHAR
STARTCHAR circumflex
ENCODING 710
SWIDTH 342 0
DWIDTH 11 0
BBX 9 5 1 17
BITMAP
03F000
0BF800
1E2D00
380B00
A00280
ENDCHAR
STARTCHAR caron
ENCODING 711
SWIDTH 342 0
DWIDTH 11 0
BBX 9 5 1 17
BITMAP
A00280
380B00
1E2D00
0BF800
03F000
ENDCHAR
STARTCHAR uni02C8
ENCODING 712
SWIDTH 284 0
DWIDTH 9 0
BBX 2 9 4 15
BITMAP
D0
D0
D0
D0
D0
D0
D0
D0
D0
ENDCHAR
STARTCHAR uni02C9
ENCODING 713
SWIDTH 350 0
DWIDTH 11 0
BBX 10 2 1 18
BITMAP
FFFFD0
555540
ENDCHAR
STARTCHAR uni02CA
ENCODING 714
SWIDTH 222 0
DWIDTH 7 0
BBX 5 5 1 17
BITMAP
0FC0
1F40
3D00
7800
A000
ENDCHAR
STARTCHAR uni02CB
ENCODING 715
SWIDTH 222 0
DWIDTH 7 0
BBX 5 5 1 17
BITMAP
FC00
7E00
1F00
0740
02C0
ENDCHAR
STARTCHAR uni02CC
ENCODING 716
SWIDTH 284 0
DWIDTH 9 0
BBX 2 9 4 -7
BITMAP
D0
D0
D0
D0
D0
D0
D0
D0
D0
ENDCHAR
STARTCHAR uni02CD
ENCODING 717
SWIDTH 342 0
DWIDTH 11 0
BBX 11 2 0 -6
BITMAP
BFFFF8
155550
ENDCHAR
STARTCHAR uni02CE
ENCODING 718
SWIDTH 222 0
DWIDTH 7 0
BBX 5 5 1 -6
BITMAP
FC00
7E00
1F00
0740
02C0
ENDCHAR
STARTCHAR uni02CF
ENCODING 719
SWIDTH 223 0
DWIDTH 7 0
BBX 5 5 1 -6
BITMAP
0FC0
1F40
3D00
7800
A000
ENDCHAR
STARTCHAR uni02D0
ENCODING 720
SWIDTH 341 0
DWIDTH 11 0
BBX 5 15 3 1
BITMAP
FF80
BF40
7F00
3E00
1D00
0000
0000
0000
0000
0000
1D00
3E00
7F00
BF40
FF80
ENDCHAR
STARTCHAR uni02D1
ENCODING 721
SWIDTH 341 0
DWIDTH 11 0
BBX 5 5 3 10
BITMAP
FF80
BF40
7F00
3E00
1D00
ENDCHAR
STARTCHAR uni02D2
ENCODING 722
SWIDTH 341 0
DWIDTH 11 0
BBX 7 10 2 2
BITMAP
BE40
16E0
00B4
0078
0078
0078
00B4
02E0
BF80
1000
ENDCHAR
STARTCHAR uni02D3
ENCODING 723
SWIDTH 341 0
DWIDTH 11 0
BBX 7 10 2 2
BITMAP
06F8
2E50
7800
B400
B000
B400
7800
2E00
0BF8
0010
ENDCHAR
STARTCHAR uni02D4
ENCODING 724
SWIDTH 341 0
DWIDTH 11 0
BBX 9 8 1 5
BITMAP
004000
01C000
01C000
01C000
01C000
01C000
7FFF40
155500
ENDCHAR
STARTCHAR uni02D5
ENCODING 725
SWIDTH 341 0
DWIDTH 11 0
BBX 9 7 1 5
BITMAP
7FFF40
15D500
01C000
01C000
01C000
01C000
004000
ENDCHAR
STARTCHAR uni02D6
ENCODING 726
SWIDTH 341 0
DWIDTH 11 0
BBX 7 6 2 5
BITMAP
0700
0700
BFF8
1750
0700
0700
ENDCHAR
STARTCHAR uni02D7
ENCODING 727
SWIDTH 341 0
DWIDTH 11 0
BBX 7 2 2 7
BITMAP
BFF8
1550
ENDCHAR
STARTCHAR breve
ENCODING 728
SWIDTH 353 0
DWIDTH 11 0
BBX 10 5 1 17
BITMAP
C00090
D001C0
B90780
3FFF40
0BF900
ENDCHAR
STARTCHAR dotaccent
ENCODING 729
SWIDTH 194 0
DWIDTH 6 0
BBX 4 4 1 18
BITMAP
3D
BF
BF
3D
ENDCHAR
STARTCHAR ring
ENCODING 730
SWIDTH 265 0
DWIDTH 8 0
BBX 7 7 1 17
BITMAP
2F90
B5B0
D034
D034
B4B4
2FD0
0100
ENDCHAR
STARTCHAR ogonek
ENCODING 731
SWIDTH 277 0
DWIDTH 9 0
BBX 7 7 1 -7
BITMAP
0740
1C00
7400
F400
F404
BEB4
2F80
ENDCHAR
STARTCHAR tilde
ENCODING 732
SWIDTH 381 0
DWIDTH 12 0
BBX 10 3 1 18
BITMAP
2FE070
7FFFE0
D06F80
ENDCHAR
STARTCHAR hungarumlaut
ENCODING 733
SWIDTH 350 0
DWIDTH 11 0
BBX 10 5 1 17
BITMAP
0FCFD0
2F5F40
3D2E00
743800
E0A000
ENDCHAR
STARTCHAR uni02DE
ENCODING 734
SWIDTH 205 0
DWIDTH 7 0
BBX 7 4 -1 7
BITMAP
1D04
BD08
5E1C
0BF4
ENDCHAR
STARTCHAR uni02DF
ENCODING 735
SWIDTH 302 0
DWIDTH 10 0
BBX 8 8 1 16
BITMAP
1004
B41D
3D78
0FE0
0BD0
1EF4
787D
601D
ENDCHAR
STARTCHAR uni02E0
ENCODING 736
SWIDTH 413 0
DWIDTH 13 0
BBX 14 18 0 3
BITMAP
FFE07FD0
2F400F00
0F800D00
0BC01C00
07D02800
03E03000
01F0A000
00F8D000
00BDC000
007F4000
002F0000
001F0000
002F8000
0077C000
00A3D000
0092D000
00A2C000
006E4000
ENDCHAR
STARTCHAR uni02E1
ENCODING 737
SWIDTH 244 0
DWIDTH 8 0
BBX 6 18 1 8
BITMAP
AF00
6F00
1F00
1F00
1F00
1F00
1F00
1F00
1F00
1F00
1F00
1F00
1F00
1F00
1F00
1F00
2F40
FFF0
ENDCHAR
STARTCHAR uni02E2
ENCODING 738
SWIDTH 337 0
DWIDTH 11 0
BBX 9 13 1 8
BITMAP
1BFA00
781F00
B00700
F40300
BE0000
7FE000
1FFD00
01FF40
C02F80
D00BC0
E00780
F40B40
DBF900
ENDCHAR
STARTCHAR uni02E3
ENCODING 739
SWIDTH 445 0
DWIDTH 14 0
BBX 14 13 0 8
BITMAP
3FF87FC0
0BE01E00
02F02800
00F87000
007CD000
002F8000
001F8000
002BD000
0072F000
01D0F800
03807D00
0B003F40
7FD0FFE0
ENDCHAR
STARTCHAR uni02E4
ENCODING 740
SWIDTH 364 0
DWIDTH 12 0
BBX 11 18 1 8
BITMAP
01BF80
1F42F0
3D01F8
7C00B4
BC0000
BC0000
BC0000
7D0000
2F0000
0BD000
01BF00
001F00
001F00
001F00
001F00
001F00
002F40
02FFF4
ENDCHAR
STARTCHAR uni02E5
ENCODING 741
SWIDTH 423 0
DWIDTH 14 0
BBX 12 22 1 0
BITMAP
7FFFFD
15556D
00001D
00001D
00001D
00001D
00001D
00001D
00001D
00001D
00001D
00001D
00001D
00001D
00001D
00001D
00001D
00001D
00001D
00001D
00001D
000018
ENDCHAR
STARTCHAR uni02E6
ENCODING 742
SWIDTH 414 0
DWIDTH 13 0
BBX 11 23 1 0
BITMAP
000028
00002C
00002C
00002C
00002C
00002C
00002C
BFFFFC
15556C
00002C
00002C
00002C
00002C
00002C
00002C
00002C
00002C
00002C
00002C
00002C
00002C
00002C
000018
ENDCHAR
STARTCHAR uni02E7
ENCODING 743
SWIDTH 414 0
DWIDTH 13 0
BBX 11 23 1 0
BITMAP
000028
00002C
00002C
00002C
00002C
00002C
00002C
00002C
00002C
00002C
00002C
BFFFFC
15556C
00002C
00002C
00002C
00002C
00002C
00002C
00002C
00002C
00002C
000018
ENDCHAR
STARTCHAR uni02E8
ENCODING 744
SWIDTH 414 0
DWIDTH 13 0
BBX 11 24 1 0
BITMAP
000014
00002C
00002C
00002C
00002C
00002C
00002C
00002C
00002C
00002C
00002C
00002C
00002C
00002C
00002C
00002C
BFFFFC
15556C
00002C
00002C
00002C
00002C
00002C
000004
ENDCHAR
STARTCHAR uni02E9
ENCODING 745
SWIDTH 414 0
DWIDTH 13 0
BBX 11 24 1 -1
BITMAP
000014
00002C
00002C
00002C
00002C
00002C
00002C
00002C
00002C
00002C
00002C
00002C
00002C
00002C
00002C
00002C
00002C
00002C
00002C
00002C
00002C
00002C
BFFFFC
155554
ENDCHAR
STARTCHAR uni02EC
ENCODING 748
SWIDTH 341 0
DWIDTH 11 0
BBX 9 8 1 -5
BITMAP
A00240
B80B80
7C0F00
2E2D00
0F7C00
07F400
03E000
01C000
ENDCHAR
STARTCHAR uni02ED
ENCODING 749
SWIDTH 380 0
DWIDTH 12 0
BBX 10 6 1 17
BITMAP
BFFFF0
555550
000000
000000
BFFFF0
555550
ENDCHAR
STARTCHAR uni02F7
ENCODING 759
SWIDTH 381 0
DWIDTH 12 0
BBX 10 3 1 -5
BITMAP
2FD070
7FFFE0
D06F80
ENDCHAR
STARTCHAR uni0300
ENCODING 768
SWIDTH 0 0
DWIDTH 0 0
BBX 5 5 -11 17
BITMAP
BD00
3E00
1F40
0780
01C0
ENDCHAR
STARTCHAR uni0301
ENCODING 769
SWIDTH 0 0
DWIDTH 0 0
BBX 5 5 -9 17
BITMAP
0FC0
2F40
3D00
7800
E000
ENDCHAR
STARTCHAR uni0302
ENCODING 770
SWIDTH 0 0
DWIDTH 0 0
BBX 9 5 -12 17
BITMAP
02F000
07F800
1F2D00
280B00
A00280
ENDCHAR
STARTCHAR uni0303
ENCODING 771
SWIDTH 0 0
DWIDTH 0 0
BBX 11 3 -13 18
BITMAP
0BE418
2FFFF4
606FD0
ENDCHAR
STARTCHAR uni0304
ENCODING 772
SWIDTH 0 0
DWIDTH 0 0
BBX 10 2 -12 18
BITMAP
FFFFD0
555540
ENDCHAR
STARTCHAR uni0305
ENCODING 773
SWIDTH 0 0
DWIDTH 0 0
BBX 13 2 -13 18
BITMAP
BFFFFFC0
55555540
ENDCHAR
STARTCHAR uni0306
ENCODING 774
SWIDTH 0 0
DWIDTH 0 0
BBX 10 5 -12 17
BITMAP
C00090
D001C0
B90780
3FFF40
0BF900
ENDCHAR
STARTCHAR uni0307
ENCODING 775
SWIDTH 0 0
DWIDTH 0 0
BBX 4 4 -9 18
BITMAP
B8
FD
FD
78
ENDCHAR
STARTCHAR uni0308
ENCODING 776
SWIDTH 0 0
DWIDTH 0 0
BBX 11 4 -13 18
BITMAP
2D00B4
BF02FC
BF02FC
2D00B4
ENDCHAR
STARTCHAR uni0309
ENCODING 777
SWIDTH 0 0
DWIDTH 0 0
BBX 6 7 -10 17
BITMAP
2F80
B5E0
50F0
00F0
02D0
0E40
0D00
ENDCHAR
STARTCHAR uni030A
ENCODING 778
SWIDTH 0 0
DWIDTH 0 0
BBX 7 7 -11 17
BITMAP
1BD0
7974
B028
A02C
7478
2FE0
0100
ENDCHAR
STARTCHAR uni030B
ENCODING 779
SWIDTH 0 0
DWIDTH 0 0
BBX 10 5 -11 17
BITMAP
0BE7E0
0F8BD0
1F0F40
2D2D00
743800
ENDCHAR
STARTCHAR uni030C
ENCODING 780
SWIDTH 0 0
DWIDTH 0 0
BBX 9 5 -12 17
BITMAP
A00280
280B00
1E2D00
07F800
02F000
ENDCHAR
STARTCHAR uni030D
ENCODING 781
SWIDTH 0 0
DWIDTH 0 0
BBX 3 7 -9 17
BITMAP
78
78
78
78
78
78
78
ENDCHAR
STARTCHAR uni030E
ENCODING 782
SWIDTH 0 0
DWIDTH 0 0
BBX 7 7 -11 17
BITMAP
B438
B438
B438
B438
B438
B438
B438
ENDCHAR
STARTCHAR uni030F
ENCODING 783
SWIDTH 0 0
DWIDTH 0 0
BBX 10 5 -14 17
BITMAP
BE7E00
2F2F40
0F4B80
0782C0
01D0D0
ENDCHAR
STARTCHAR uni0310
ENCODING 784
SWIDTH 0 0
DWIDTH 0 0
BBX 9 7 -12 17
BITMAP
02E000
03F400
83F440
D2E1C0
B50780
3FFF40
0BF900
ENDCHAR
STARTCHAR uni0311
ENCODING 785
SWIDTH 0 0
DWIDTH 0 0
BBX 9 6 -12 16
BITMAP
0BF800
2FFE00
790B40
A002C0
D000C0
400040
ENDCHAR
STARTCHAR uni0312
ENCODING 786
SWIDTH 0 0
DWIDTH 0 0
BBX 5 8 -10 17
BITMAP
0140
1E00
3800
7000
BF00
BF80
7F40
2E00
ENDCHAR
STARTCHAR uni0313
ENCODING 787
SWIDTH 0 0
DWIDTH 0 0
BBX 5 8 -10 17
BITMAP
2E00
7F80
7F80
2F80
0380
0740
1D00
2000
ENDCHAR
STARTCHAR uni0314
ENCODING 788
SWIDTH 0 0
DWIDTH 0 0
BBX 5 8 -10 17
BITMAP
2E00
7F80
7F80
7F40
7400
3800
0E00
0140
ENDCHAR
STARTCHAR uni0315
ENCODING 789
SWIDTH 0 0
DWIDTH 0 0
BBX 4 7 -8 16
BITMAP
7D
BC
BC
B8
B0
A0
40
ENDCHAR
STARTCHAR uni0316
ENCODING 790
SWIDTH 0 0
DWIDTH 0 0
BBX 5 5 -11 -7
BITMAP
BD00
3E00
1F40
0780
01C0
ENDCHAR
STARTCHAR uni0317
ENCODING 791
SWIDTH 0 0
DWIDTH 0 0
BBX 6 5 -9 -7
BITMAP
0BD0
0F80
2E00
3C00
7000
ENDCHAR
STARTCHAR uni0318
ENCODING 792
SWIDTH 0 0
DWIDTH 0 0
BBX 5 6 -10 -8
BITMAP
01C0
01C0
BFC0
16C0
01C0
01C0
ENDCHAR
STARTCHAR uni0319
ENCODING 793
SWIDTH 0 0
DWIDTH 0 0
BBX 5 6 -10 -8
BITMAP
A000
A000
BFC0
A540
A000
A000
ENDCHAR
STARTCHAR uni031A
ENCODING 794
SWIDTH 0 0
DWIDTH 0 0
BBX 7 7 -11 16
BITMAP
FFFC
556C
002C
002C
002C
002C
0004
ENDCHAR
STARTCHAR uni031B
ENCODING 795
SWIDTH 0 0
DWIDTH 0 0
BBX 6 7 -6 14
BITMAP
0280
03E0
02E0
01E0
02D0
FF40
5000
ENDCHAR
STARTCHAR uni031C
ENCODING 796
SWIDTH 0 0
DWIDTH 0 0
BBX 5 7 -10 -9
BITMAP
1F40
7900
A000
A000
7400
2F40
0100
ENDCHAR
STARTCHAR uni031D
ENCODING 797
SWIDTH 0 0
DWIDTH 0 0
BBX 7 6 -11 -8
BITMAP
0240
0340
0340
0340
BFF8
1554
ENDCHAR
STARTCHAR uni031E
ENCODING 798
SWIDTH 0 0
DWIDTH 0 0
BBX 7 5 -11 -7
BITMAP
BFF8
1754
0340
0340
0240
ENDCHAR
STARTCHAR uni031F
ENCODING 799
SWIDTH 0 0
DWIDTH 0 0
BBX 7 7 -11 -8
BITMAP
0340
0340
0340
BFF8
1754
0340
0340
ENDCHAR
STARTCHAR uni0320
ENCODING 800
SWIDTH 0 0
DWIDTH 0 0
BBX 7 2 -11 -6
BITMAP
BFF8
1554
ENDCHAR
STARTCHAR uni0321
ENCODING 801
SWIDTH 0 0
DWIDTH 0 0
BBX 9 10 -14 -8
BITMAP
000680
000BC0
000BC0
000BC0
000BC0
640B80
BD0B40
BF5E00
2FF800
014000
ENDCHAR
STARTCHAR uni0322
ENCODING 802
SWIDTH 0 0
DWIDTH 0 0
BBX 10 10 -8 -8
BITMAP
680000
BC0000
7C0000
7C0000
7D0000
3D0280
2D0BD0
0E5FD0
06FF80
001400
ENDCHAR
STARTCHAR uni0323
ENCODING 803
SWIDTH 0 0
DWIDTH 0 0
BBX 4 4 -9 -6
BITMAP
B8
FD
FD
78
ENDCHAR
STARTCHAR uni0324
ENCODING 804
SWIDTH 0 0
DWIDTH 0 0
BBX 11 4 -13 -6
BITMAP
2D00B4
BF02FC
BF02FC
2D00B4
ENDCHAR
STARTCHAR uni0325
ENCODING 805
SWIDTH 0 0
DWIDTH 0 0
BBX 7 7 -11 -9
BITMAP
1BD0
7974
B028
A02C
7478
2FE0
0100
ENDCHAR
STARTCHAR uni0326
ENCODING 806
SWIDTH 0 0
DWIDTH 0 0
BBX 5 8 -10 -9
BITMAP
2E00
7F80
7F80
2F80
0380
0740
1D00
2000
ENDCHAR
STARTCHAR uni0327
ENCODING 807
SWIDTH 0 0
DWIDTH 0 0
BBX 6 8 -10 -8
BITMAP
1800
1400
2F80
05E0
00E0
41E0
BF80
0400
ENDCHAR
STARTCHAR uni0328
ENCODING 808
SWIDTH 0 0
DWIDTH 0 0
BBX 7 7 -11 -7
BITMAP
0280
0E00
2C00
7800
B804
7FB8
1FD0
ENDCHAR
STARTCHAR uni0329
ENCODING 809
SWIDTH 0 0
DWIDTH 0 0
BBX 3 6 -9 -7
BITMAP
78
78
78
78
78
78
ENDCHAR
STARTCHAR uni032A
ENCODING 810
SWIDTH 0 0
DWIDTH 0 0
BBX 9 5 -12 -7
BITMAP
7FFF80
755680
700280
700280
100000
ENDCHAR
STARTCHAR uni032B
ENCODING 811
SWIDTH 0 0
DWIDTH 0 0
BBX 11 5 -13 -6
BITMAP
602424
703428
347874
1FEFE0
010100
ENDCHAR
STARTCHAR uni032C
ENCODING 812
SWIDTH 0 0
DWIDTH 0 0
BBX 9 5 -12 -7
BITMAP
A00280
280B00
1E2D00
07F800
02F000
ENDCHAR
STARTCHAR uni032D
ENCODING 813
SWIDTH 0 0
DWIDTH 0 0
BBX 9 5 -12 -7
BITMAP
02F000
07F800
1F2D00
280B00
A00280
ENDCHAR
STARTCHAR uni032E
ENCODING 814
SWIDTH 0 0
DWIDTH 0 0
BBX 10 5 -12 -7
BITMAP
C00090
D001C0
B90780
3FFF40
0BF900
ENDCHAR
STARTCHAR uni032F
ENCODING 815
SWIDTH 0 0
DWIDTH 0 0
BBX 10 5 -12 -7
BITMAP
0BF900
3FFF40
B40780
D001C0
C00090
ENDCHAR
STARTCHAR uni0330
ENCODING 816
SWIDTH 0 0
DWIDTH 0 0
BBX 11 3 -13 -5
BITMAP
1FE424
3FFFF0
A06F90
ENDCHAR
STARTCHAR uni0331
ENCODING 817
SWIDTH 0 0
DWIDTH 0 0
BBX 10 2 -12 -5
BITMAP
FFFFD0
555540
ENDCHAR
STARTCHAR uni0332
ENCODING 818
SWIDTH 0 0
DWIDTH 0 0
BBX 17 2 -16 -5
BITMAP
BFFFFFFF80
1555555540
ENDCHAR
STARTCHAR uni0333
ENCODING 819
SWIDTH 0 0
DWIDTH 0 0
BBX 17 6 -16 -9
BITMAP
BFFFFFFF80
1555555540
0000000000
0000000000
BFFFFFFF80
1555555540
ENDCHAR
STARTCHAR uni0334
ENCODING 820
SWIDTH 0 0
DWIDTH 0 0
BBX 11 4 -13 6
BITMAP
1B900C
3FF924
A06FE0
000100
ENDCHAR
STARTCHAR uni0335
ENCODING 821
SWIDTH 0 0
DWIDTH 0 0
BBX 11 2 -13 7
BITMAP
7FFFF8
155550
ENDCHAR
STARTCHAR uni0336
ENCODING 822
SWIDTH 0 0
DWIDTH 0 0
BBX 17 2 -16 7
BITMAP
BFFFFFFF80
1555555540
ENDCHAR
STARTCHAR uni0337
ENCODING 823
SWIDTH 0 0
DWIDTH 0 0
BBX 9 6 -12 9
BITMAP
000280
001E00
00B400
07D000
1E0000
B40000
ENDCHAR
STARTCHAR uni0338
ENCODING 824
SWIDTH 0 0
DWIDTH 0 0
BBX 14 28 -14 -5
BITMAP
00000090
000002D0
00000380
00000740
00000B00
00001E00
00002C00
00003800
0000B400
0000E000
0001D000
0002C000
00078000
000B0000
000E0000
001D0000
003C0000
00740000
00B00000
01E00000
02C00000
03800000
07400000
0F000000
1D000000
2C000000
38000000
B4000000
ENDCHAR
STARTCHAR uni0339
ENCODING 825
SWIDTH 0 0
DWIDTH 0 0
BBX 4 7 -9 -9
BITMAP
F8
5E
07
07
1E
F8
40
ENDCHAR
STARTCHAR uni033A
ENCODING 826
SWIDTH 0 0
DWIDTH 0 0
BBX 9 5 -12 -7
BITMAP
600240
700280
700280
7FFF80
155500
ENDCHAR
STARTCHAR uni033B
ENCODING 827
SWIDTH 0 0
DWIDTH 0 0
BBX 7 7 -11 -8
BITMAP
7FF4
7574
7024
7024
7034
7FF4
1550
ENDCHAR
STARTCHAR uni033C
ENCODING 828
SWIDTH 0 0
DWIDTH 0 0
BBX 11 4 -13 -6
BITMAP
2F87E4
65FD54
007400
002000
ENDCHAR
STARTCHAR uni033D
ENCODING 829
SWIDTH 0 0
DWIDTH 0 0
BBX 7 7 -11 17
BITMAP
1000
7438
1DE0
0B80
0FD0
3874
1014
ENDCHAR
STARTCHAR uni033E
ENCODING 830
SWIDTH 0 0
DWIDTH 0 0
BBX 4 11 -9 16
BITMAP
1D
74
B0
F0
B4
7C
2D
2D
2C
B4
40
ENDCHAR
STARTCHAR uni033F
ENCODING 831
SWIDTH 0 0
DWIDTH 0 0
BBX 13 6 -14 16
BITMAP
BFFFFFC0
15555540
00000000
00000000
BFFFFFC0
15555540
ENDCHAR
STARTCHAR uni0346
ENCODING 838
SWIDTH 0 0
DWIDTH 0 0
BBX 10 5 -12 17
BITMAP
FFFFD0
F556D0
E002D0
E002D0
500040
ENDCHAR
STARTCHAR uni0347
ENCODING 839
SWIDTH 0 0
DWIDTH 0 0
BBX 11 6 -13 -8
BITMAP
7FFFF8
155550
000000
000000
7FFFF8
155550
ENDCHAR
STARTCHAR uni034C
ENCODING 844
SWIDTH 0 0
DWIDTH 0 0
BBX 11 8 -13 17
BITMAP
0BD008
1FF928
347FF0
601B90
000000
0BE418
2FFFF4
606FD0
ENDCHAR
STARTCHAR uni034D
ENCODING 845
SWIDTH 0 0
DWIDTH 0 0
BBX 15 7 -15 -9
BITMAP
01400500
06000280
2D0000E0
BFFFFFFC
7D5555F4
0A000180
01400200
ENDCHAR
STARTCHAR uni0359
ENCODING 857
SWIDTH 0 0
DWIDTH 0 0
BBX 10 11 -12 -12
BITMAP
01D000
01E000
A0D2C0
F8DBD0
6EAE40
02E000
2AEE40
F8CBD0
A0D2C0
01E000
01D000
ENDCHAR
STARTCHAR uni035C
ENCODING 860
SWIDTH 0 0
DWIDTH 0 0
BBX 22 5 -11 -8
BITMAP
D00000000070
B400000001E0
3F9400016FC0
0BFFFFFFFE00
006BFFFE9000
ENDCHAR
STARTCHAR uni0360
ENCODING 864
SWIDTH 0 0
DWIDTH 0 0
BBX 16 4 -8 17
BITMAP
1BE90001
7FFFE40B
E01BFFFD
40006FE4
ENDCHAR
STARTCHAR uni0361
ENCODING 865
SWIDTH 0 0
DWIDTH 0 0
BBX 16 5 -8 18
BITMAP
01BFFE40
1FFFFFF0
3E4001BC
B000001D
90000006
ENDCHAR
STARTCHAR uni0362
ENCODING 866
SWIDTH 0 0
DWIDTH 0 0
BBX 25 7 -12 -9
BITMAP
00000000004000
00000000007000
00000000002D00
FFFFFFFFFFFF40
55555555556D00
00000000007400
00000000005000
ENDCHAR
STARTCHAR uni037E
ENCODING 894
SWIDTH 261 0
DWIDTH 8 0
BBX 5 21 2 -5
BITMAP
2D00
7F00
BF00
2E00
0000
0000
0000
0000
0000
0000
0000
0000
2E00
BF40
BF80
7F80
0380
0740
0A00
6800
5000
ENDCHAR
STARTCHAR tonos
ENCODING 900
SWIDTH 165 0
DWIDTH 5 0
BBX 4 6 1 17
BITMAP
BD
BC
B8
F4
E0
D0
ENDCHAR
STARTCHAR dieresistonos
ENCODING 901
SWIDTH 426 0
DWIDTH 14 0
BBX 12 6 1 17
BITMAP
007E00
007E00
B87C7D
FD78BE
B8747D
00B000
ENDCHAR
STARTCHAR Alphatonos
ENCODING 902
SWIDTH 718 0
DWIDTH 23 0
BBX 23 22 0 0
BITMAP
0FC00B400000
0F800F800000
0F401FC00000
1E002FD00000
1D007BF00000
1C00B3F40000
0000E2F80000
0001D1FC0000
0003C0BE0000
0007807F0000
000B403F4000
000F002FC000
001D001FD000
003C000FE000
007FFFFFF000
00B55557F800
00F00002FC00
02D00001FD00
03C00000FF00
0B800000BF40
6FD40005FFE4
FFF8000BFFFC
ENDCHAR
STARTCHAR anoteleia
ENCODING 903
SWIDTH 261 0
DWIDTH 8 0
BBX 4 4 2 12
BITMAP
2D
7F
BF
2E
ENDCHAR
STARTCHAR Epsilontonos
ENCODING 904
SWIDTH 745 0
DWIDTH 24 0
BBX 24 22 -1 0
BITMAP
3F0FFFFFFFF8
3E00BFAAAAF8
3D003F00007C
78003F00002C
74003F00001C
70003F000008
00003F000000
00003F000240
00003F000340
00003F001B40
00003FFFFF40
00003F555B40
00003F000340
00003F000240
00003F000240
00003F000000
00003F000006
00003F00000A
00003F00000E
00003F00002D
0000BF555AFD
000FFFFFFFFC
ENDCHAR
STARTCHAR Etatonos
ENCODING 905
SWIDTH 896 0
DWIDTH 29 0
BBX 29 22 -1 0
BITMAP
3F0FFFFC02FFFF80
3E05BFD4006FF900
3D003F40000BE000
78003F00000BD000
74003F00000BD000
70003F00000BD000
00003F00000BD000
00003F00000BD000
00003F00000BD000
00003F00000BD000
00003FFFFFFFD000
00003F55555BD000
00003F00000BD000
00003F00000BD000
00003F00000BD000
00003F00000BD000
00003F00000BD000
00003F00000BD000
00003F00000BD000
00003F40000BE000
0005BF94006FF500
000FFFFC02FFFF80
ENDCHAR
STARTCHAR Iotatonos
ENCODING 906
SWIDTH 478 0
DWIDTH 15 0
BBX 16 22 -1 0
BITMAP
3F0FFFFD
3E05BFD4
3D003F40
78003F00
74003F00
70003F00
00003F00
00003F00
00003F00
00003F00
00003F00
00003F00
00003F00
00003F00
00003F00
00003F00
00003F00
00003F00
00003F00
00003F40
0005BFD4
000FFFFD
ENDCHAR
STARTCHAR Omicrontonos
ENCODING 908
SWIDTH 806 0
DWIDTH 26 0
BBX 26 22 -1 0
BITMAP
3F0001BFE40000
3E002F956F8000
3D00BD0007F000
7802F40001FC00
740BE00000BE00
700FC000007F00
001F8000002F80
002F4000002F80
003F4000001FC0
003F4000001FC0
007F4000001FD0
007F4000001FC0
003F4000001FC0
003F4000001FC0
002F8000002F80
002F8000002F40
000FC000003F00
000BE000007D00
0003F40000F800
0000FD0007E000
00002F956F8000
000001BFE40000
ENDCHAR
STARTCHAR Upsilontonos
ENCODING 910
SWIDTH 787 0
DWIDTH 25 0
BBX 27 22 -1 0
BITMAP
BD2FFFF002FFF4
BC17FF50007F90
B800FF00002D00
F4007F40003800
E0002FC000B000
D0000FE001E000
000007F402C000
000002F8074000
000000FD0E0000
000000BF1D0000
0000003FB80000
0000001FF00000
0000000BD00000
0000000BD00000
0000000BD00000
0000000BD00000
0000000BD00000
0000000BD00000
0000000BD00000
0000000BE00000
0000016FF94000
000002FFFF8000
ENDCHAR
STARTCHAR Omegatonos
ENCODING 911
SWIDTH 830 0
DWIDTH 27 0
BBX 26 22 -1 0
BITMAP
3F0001BFE90000
3E001F956F8000
3D00BD0002F400
7802F40000FD00
740BE000007F00
700FD000003F40
001FC000002F80
002F8000001FC0
002F8000001FC0
002F8000001FC0
002F8000001FC0
002FC000002FC0
001FC000002F80
000FD000003F40
0007E000007E00
0002F40000FC00
0090F80001F420
00A07D0003D070
00B00B400B40A0
007EABC02FABE0
007FFFD03FFFE0
007FFFD03FFFD0
ENDCHAR
STARTCHAR iotadieresistonos
ENCODING 912
SWIDTH 259 0
DWIDTH 8 0
BBX 12 24 -2 0
BITMAP
003F00
003E00
7D3D7D
BE7CBE
7D747D
007000
000000
000000
00BC00
00BC00
00BC00
00B800
00B800
00F800
00F400
00F400
00F400
00F000
00F000
00F000
00F400
00BD74
007FE0
002F80
ENDCHAR
STARTCHAR Alpha
ENCODING 913
SWIDTH 718 0
DWIDTH 23 0
BBX 23 22 0 0
BITMAP
00000B400000
00000F800000
00001FC00000
00002FD00000
00007BF00000
0000B3F40000
0000E2F80000
0001D1FC0000
0003C0BE0000
0007807F0000
000B403F4000
000F002FC000
001D001FD000
003C000FE000
007FFFFFF000
00B55557F800
00F00002FC00
02D00001FD00
03C00000FF00
0B800000BF40
6FD40005FFE4
FFF8000BFFFC
ENDCHAR
STARTCHAR Beta
ENCODING 914
SWIDTH 618 0
DWIDTH 20 0
BBX 18 22 1 0
BITMAP
FFFFFE9000
07F95BF800
03F400BE00
02F4003F40
02F4002F80
02F4002F80
02F4002F40
02F4002F00
02F4007D00
02F406E400
02FFFF9000
02F556F900
02F4007F40
02F4001FC0
02F4000FD0
02F4000BE0
02F4000BE0
02F4000FD0
02F4001FC0
03F4002F80
0BF556FE00
FFFFFFA000
ENDCHAR
STARTCHAR Gamma
ENCODING 915
SWIDTH 569 0
DWIDTH 18 0
BBX 17 22 1 0
BITMAP
BFFFFFFF40
07FAAABF40
03F4000B40
02F4000340
02F4000280
02F4000280
02F4000000
02F4000000
02F4000000
02F4000000
02F4000000
02F4000000
02F4000000
02F4000000
02F4000000
02F4000000
02F4000000
02F4000000
02F4000000
03F4000000
07FD000000
BFFFE00000
ENDCHAR
STARTCHAR Delta
ENCODING 916
SWIDTH 667 0
DWIDTH 21 0
BBX 19 22 1 0
BITMAP
0000380000
0000BC0000
0000FD0000
0001FE0000
0003FF4000
00075F8000
000B0FC000
000E0BD000
002C07F000
003803F400
007402F800
00E001FC00
01D000BE00
02C0007F00
0780003F40
0B00002F80
0E00001FD0
2D00000FE0
38000007F0
7EAAAAABF4
FFFFFFFFFC
FFFFFFFFFC
ENDCHAR
STARTCHAR Epsilon
ENCODING 917
SWIDTH 626 0
DWIDTH 20 0
BBX 18 22 1 0
BITMAP
FFFFFFFFC0
0BFAAAAFC0
03F40003C0
02F40001C0
02F40000C0
02F4000080
02F4000000
02F4002800
02F4002800
02F4007800
02FFFFF800
02F555B800
02F4002800
02F4002800
02F4001800
02F4000000
02F4000020
02F4000070
02F40000E0
03F40002E0
07F955AFD0
BFFFFFFFD0
ENDCHAR
STARTCHAR Zeta
ENCODING 918
SWIDTH 594 0
DWIDTH 19 0
BBX 17 22 1 0
BITMAP
2FFFFFFFC0
2F95557F40
3D0000FE00
380002FC00
340007F400
20000BE000
00001FD000
00003F8000
0000BF0000
0001FD0000
0003F80000
000BF00000
001FD00000
003F800000
00BF000000
01FD000000
03F80000C0
0BF00001C0
1FD0000280
3F80000780
BF55556F40
FFFFFFFF40
ENDCHAR
STARTCHAR Eta
ENCODING 919
SWIDTH 777 0
DWIDTH 25 0
BBX 23 22 1 0
BITMAP
FFFFD01FFFF8
5BFD4006FF94
03F40000BE00
02F400007E00
02F400007E00
02F400007E00
02F400007E00
02F400007E00
02F400007E00
02F400007E00
02FFFFFFFE00
02F555557E00
02F400007E00
02F400007E00
02F400007E00
02F400007E00
02F400007E00
02F400007E00
02F400007E00
03F40000BE00
5BFD4005FF94
FFFFD01FFFF8
ENDCHAR
STARTCHAR Theta
ENCODING 920
SWIDTH 738 0
DWIDTH 24 0
BBX 21 22 1 0
BITMAP
0006BFE40000
002F956F4000
01FD0007E000
03F00001F800
0BD00000BD00
1FC000007F00
2F8000003F40
3F4000002F80
7F4200182F80
7F03EAB82FC0
7F03FFF81FC0
7F03FFF82FC0
7F4300182FC0
7F4200082F80
3F4000002F80
2F8000003F40
1FC000007F00
0BD00000BD00
03F00001F800
01F80007E000
002F956F8000
0006BFE40000
ENDCHAR
STARTCHAR Iota
ENCODING 921
SWIDTH 357 0
DWIDTH 11 0
BBX 10 22 1 0
BITMAP
FFFFD0
5BFD40
03F400
02F400
02F400
02F400
02F400
02F400
02F400
02F400
02F400
02F400
02F400
02F400
02F400
02F400
02F400
02F400
02F400
03F400
5BFD40
FFFFD0
ENDCHAR
STARTCHAR Kappa
ENCODING 922
SWIDTH 702 0
DWIDTH 22 0
BBX 22 22 1 0
BITMAP
FFFFD0FFFF00
5BFD406FF500
03F4001F8000
02F4002E0000
02F400780000
02F401E00000
02F407800000
02F41E000000
02F474000000
02F5D0000000
02FBD0000000
02FBF4000000
02F6FD000000
02F4BF400000
02F42FD00000
02F40BF40000
02F402FD0000
02F400BF4000
02F4002FD000
03F4001FF400
5BFD405FFE40
FFFFD0FFFFD0
ENDCHAR
STARTCHAR Lambda
ENCODING 923
SWIDTH 710 0
DWIDTH 23 0
BBX 23 22 0 0
BITMAP
00000B000000
00000F400000
00002F800000
00003FD00000
00007BE00000
0000B3F00000
0000D2F40000
0002C1FC0000
000380FD0000
000740BE0000
000B007F0000
000E002F8000
001D001FC000
003C000FD000
0074000BE000
00B00007F400
00E00003F800
01D00001FC00
03C00000FD00
07800000FF00
1FC00001FF90
FFFC000FFFF8
ENDCHAR
STARTCHAR Mu
ENCODING 924
SWIDTH 895 0
DWIDTH 29 0
BBX 27 22 1 0
BITMAP
FFF8000000FFF4
5FFC000002FF90
07FD000003FE00
03FF000007FD00
03BF40000BBD00
03AF80000E7D00
039FC0002D7D00
038FE0003C7D00
0387F000747D00
0383F400B07D00
0382F800E07D00
0381FC02D07D00
0380BE03C07D00
03807F07407D00
03803F4B007D00
03802F8E007D00
03800FED007D00
03800BF8007D00
038007F4007D00
078003F000BE00
5FE401E006FF50
FFFD00C01FFFF4
ENDCHAR
STARTCHAR Nu
ENCODING 925
SWIDTH 742 0
DWIDTH 24 0
BBX 22 22 1 0
BITMAP
FFE0000BFFF0
6FF40005BF50
07FD00003D00
03FF00002C00
03FF80002C00
03AFD0002C00
038FF4002C00
0387FC002C00
0381FE002C00
0380BF402C00
03802FC02C00
03800FE02C00
038007F82C00
038002FD2C00
038000BF2C00
0380003FAC00
0380001FFC00
0380000BFC00
03800002FC00
07800000FC00
5FE400007C00
FFFD00001C00
ENDCHAR
STARTCHAR Xi
ENCODING 926
SWIDTH 648 0
DWIDTH 21 0
BBX 19 22 1 0
BITMAP
2FFFFFFFE0
3FFFFFFFE0
3FAAAAAFE0
38000001E0
34000000A0
2000000060
0000000000
00C0001800
00D0002800
00FEAAF800
00FFFFF800
00FFFFF800
00E0007800
00D0001800
00C0001800
0000000000
5000000024
6000000034
74000000B0
7FFFFFFFF0
7FFFFFFFF0
3FFFFFFFF0
ENDCHAR
STARTCHAR Omicron
ENCODING 927
SWIDTH 738 0
DWIDTH 24 0
BBX 21 22 1 0
BITMAP
0006BFE40000
002F95BF8000
01FD000BE000
03F00002F800
0BD00000FD00
1FC000007F00
2F8000003F40
3F4000002F80
3F0000002FC0
7F0000001FC0
7F0000001FC0
7F0000001FC0
7F0000001FC0
7F4000002F80
3F4000002F80
2F8000003F40
1FC000007E00
0BD00000BD00
03F00001F800
01FD0007E000
002F956F4000
0006BFE40000
ENDCHAR
STARTCHAR Pi
ENCODING 928
SWIDTH 759 0
DWIDTH 24 0
BBX 23 22 1 0
BITMAP
FFFFFFFFFFF4
0BF95555FE40
03F40000FD00
02F40000FC00
02F40000FC00
02F40000FC00
02F40000FC00
02F40000FC00
02F40000FC00
02F40000FC00
02F40000FC00
02F40000FC00
02F40000FC00
02F40000FC00
02F40000FC00
02F40000FC00
02F40000FC00
02F40000FC00
02F40000FC00
03F40000FD00
07F80002FE00
FFFFD03FFFF4
ENDCHAR
STARTCHAR Rho
ENCODING 929
SWIDTH 569 0
DWIDTH 18 0
BBX 17 22 1 0
BITMAP
7FFFFA4000
07F95BF800
02F401FE00
02F4007F00
02F4003F40
02F4002F40
02F4002F40
02F4003F00
02F4007E00
02F400BD00
02F417F400
02FFFE4000
02F5400000
02F4000000
02F4000000
02F4000000
02F4000000
02F4000000
02F4000000
03F4000000
1BFD400000
BFFFD00000
ENDCHAR
STARTCHAR Sigma
ENCODING 931
SWIDTH 604 0
DWIDTH 19 0
BBX 18 22 1 0
BITMAP
FFFFFFFF40
BFFFFFFF40
2F80001F40
0FE0000740
07F4000340
01FD000240
00BF000000
002F800000
000FE00000
0003F40000
0001F40000
0001E00000
0007800000
000F000000
002D000000
00B4000090
01E00000D0
07800002C0
0F000007C0
2FAAAABF80
BFFFFFFF80
FFFFFFFF40
ENDCHAR
STARTCHAR Tau
ENCODING 932
SWIDTH 603 0
DWIDTH 19 0
BBX 19 22 0 0
BITMAP
7FFFFFFFF8
7E55FD56F8
7800FC0078
7000FC0028
6000FC0018
5000FC0018
0000FC0000
0000FC0000
0000FC0000
0000FC0000
0000FC0000
0000FC0000
0000FC0000
0000FC0000
0000FC0000
0000FC0000
0000FC0000
0000FC0000
0000FD0000
0000FD0000
0016FF5000
003FFFF400
ENDCHAR
STARTCHAR Upsilon
ENCODING 933
SWIDTH 647 0
DWIDTH 21 0
BBX 21 22 0 0
BITMAP
FFFF400FFFC0
6FF90006FD40
0BF40000F000
02F80002D000
00FD00038000
007F000B0000
002F801D0000
001FD02C0000
000BF0740000
0003F4E00000
0001FEC00000
0000BF800000
00007F000000
00003F000000
00003F000000
00003F000000
00003F000000
00003F000000
00003F000000
00007F400000
0005FFD40000
001FFFFD0000
ENDCHAR
STARTCHAR Phi
ENCODING 934
SWIDTH 718 0
DWIDTH 23 0
BBX 21 22 1 0
BITMAP
001FFFFC0000
0001BF800000
00007F000000
00003F000000
001ABFA94000
06FE7F6FE400
1FD03F02FD00
3F403F007F00
7E003F003F40
BD003F002F80
BD003F001F80
FD003F001F80
BD003F002F80
BE003F002F40
7F403F003F00
2FC03F00BD00
0BF93F06F400
00AFFFFE4000
00007F000000
00003F000000
0000BF800000
001FFFFC0000
ENDCHAR
STARTCHAR Chi
ENCODING 935
SWIDTH 664 0
DWIDTH 21 0
BBX 21 22 0 0
BITMAP
7FFFD02FFFC0
1BFE4007FD40
02FE0002E000
00BF0007C000
003F800B4000
001FC01D0000
000BE0780000
0003F4B00000
0001FAD00000
0000BF400000
00007F400000
00007FC00000
0000EBE00000
0002C7F40000
000742FC0000
001E00FE0000
003C007F4000
00B4002FC000
01E0001FE000
07D0000FF400
6FE4005FFE40
FFFC00FFFFC0
ENDCHAR
STARTCHAR Psi
ENCODING 936
SWIDTH 720 0
DWIDTH 23 0
BBX 23 22 0 0
BITMAP
F903FFFF00BC
1F402FE003D0
0F800FC00BC0
0BC00FC00FC0
0BC00FC00FC0
0FC00FC00FC0
0FC00FC00FC0
0FC00FC00FC0
0FC00FC00FC0
0BD00FC00F80
0BD00FC01F80
03E00FC02F00
01F40FC07D00
007E4FC6F400
0006FFFE4000
00000FC00000
00000FC00000
00000FC00000
00000FC00000
00000FC00000
00002FE00000
0003FFFF0000
ENDCHAR
STARTCHAR Omega
ENCODING 937
SWIDTH 777 0
DWIDTH 25 0
BBX 23 22 1 0
BITMAP
0001AFF90000
001FD55FD000
00BE0002F800
01F80000BD00
07F000003F40
0BE000002F80
0FD000001FC0
1FC000001FD0
1FC000000FD0
1FC000000FD0
1FC000000FD0
1FD000001FC0
0FD000002FC0
0BE000002F80
07F000003F00
02F40000BD00
50BC0000F824
702E0002E034
740B400B80B0
3EABD02FAAF0
3FFFE02FFFF0
3FFFE02FFFE0
ENDCHAR
STARTCHAR Iotadieresis
ENCODING 938
SWIDTH 357 0
DWIDTH 11 0
BBX 11 27 0 0
BITMAP
2D00B4
BF01FC
BF01FC
2D00B4
000000
3FFFF4
16FF50
00FD00
00BD00
00BD00
00BD00
00BD00
00BD00
00BD00
00BD00
00BD00
00BD00
00BD00
00BD00
00BD00
00BD00
00BD00
00BD00
00BD00
00FD00
16FF50
3FFFF4
ENDCHAR
STARTCHAR Upsilondieresis
ENCODING 939
SWIDTH 647 0
DWIDTH 21 0
BBX 21 27 0 0
BITMAP
000B402E0000
001FC07F0000
001FC07F0000
000B402E0000
000000000000
FFFF400FFFC0
6FF90006FD40
0BF40000F000
02F80002D000
00FD00038000
007F000B0000
002F801D0000
001FD02C0000
000BF0740000
0003F4E00000
0001FEC00000
0000BF800000
00007F000000
00003F000000
00003F000000
00003F000000
00003F000000
00003F000000
00003F000000
00007F400000
0005FFD40000
001FFFFD0000
ENDCHAR
STARTCHAR alphatonos
ENCODING 940
SWIDTH 561 0
DWIDTH 18 0
BBX 17 23 1 0
BITMAP
0003F00000
0003E00000
0003D00000
0007800000
0007400000
0007000000
0000000000
00BF807E00
07FFE0BD00
1FFBF4F800
2E4079F400
78000FE000
B0000BC000
A0000B8000
A0000B0000
E0000F0000
E0001F0000
B0002B4000
B400774000
7D02D78040
3FEF83EB40
1FFE03FE00
06F801F800
ENDCHAR
STARTCHAR epsilontonos
ENCODING 941
SWIDTH 381 0
DWIDTH 12 0
BBX 11 23 1 0
BITMAP
000BD0
000BC0
000F80
000F00
000E00
000D00
000000
01BF90
0FFFF4
2FFBF0
7D0050
780000
380000
1C1800
0BFD00
1DAD00
380000
740000
B40010
BD00B0
7FEFF4
2FFFE0
06FE40
ENDCHAR
STARTCHAR etatonos
ENCODING 942
SWIDTH 510 0
DWIDTH 16 0
BBX 16 31 -1 -8
BITMAP
00000F80
00001F80
00001F00
00001E00
00001D00
00002C00
00000000
07E01BD0
1FF47FF0
3FF4FFF8
60B9E078
007A803C
003B002C
003E001C
003D001D
007C001D
007C001D
00B8001D
00B8002D
00F8002D
00F8002D
01F8003C
01F8003C
0000007C
0000007C
0000007C
000000BC
000000FC
000000FC
000001F8
00000040
ENDCHAR
STARTCHAR iotatonos
ENCODING 943
SWIDTH 259 0
DWIDTH 8 0
BBX 7 23 2 0
BITMAP
1F80
2F40
2E00
2D00
2C00
3800
0000
BC00
BC00
BC00
B800
B800
F800
F400
F400
F400
F000
F000
F000
F400
BD74
7FE0
2F80
ENDCHAR
STARTCHAR upsilondieresistonos
ENCODING 944
SWIDTH 491 0
DWIDTH 16 0
BBX 16 24 -1 0
BITMAP
0002F400
0002F000
07D3E2D0
0BE3C7F0
07D382D0
00034000
00000000
00000000
07E00600
1FF402D0
3FF800F0
60F40074
00F4007C
00F0003C
00F0003D
00E0003D
01D0003D
01D0007C
01D000BC
01D001F8
00F007F0
00FFBFD0
007FFF40
001BF900
ENDCHAR
STARTCHAR alpha
ENCODING 945
SWIDTH 561 0
DWIDTH 18 0
BBX 17 16 1 0
BITMAP
00BF807E00
07FFE0BD00
1FFBF4F800
2E4079F400
78000FE000
B0000BC000
A0000B8000
A0000B0000
E0000F0000
E0001F0000
B0002B4000
B400774000
7D02D78040
3FEF83EB40
1FFE03FE00
06F801F800
ENDCHAR
STARTCHAR beta
ENCODING 946
SWIDTH 530 0
DWIDTH 17 0
BBX 15 31 1 -7
BITMAP
0006FE00
001FFFC0
007FFFE0
00F802F0
02D000F0
038000B0
074000A0
0B0000D0
0E000280
0E001E00
1E1FF400
1E1FA900
1D090B40
2D0002D0
2D0000E0
2D0000B4
2D000078
2E000078
3F000078
3F4000B8
3ED002F4
3DBEBFE0
3D2FFF80
7D07F900
7D000000
7D000000
7D000000
7E000000
7E000000
7E000000
64000000
ENDCHAR
STARTCHAR gamma
ENCODING 947
SWIDTH 466 0
DWIDTH 15 0
BBX 15 23 0 -7
BITMAP
1F8003F4
7FE007F0
BBF00BD0
81F40FC0
00B81F40
00382F00
00383D00
002C7C00
002CB800
001CF000
001DE000
001EC000
001F8000
000F0000
000E0000
001E0000
002E0000
003E0000
007E0000
00BD0000
00BD0000
00FC0000
00780000
ENDCHAR
STARTCHAR delta
ENCODING 948
SWIDTH 479 0
DWIDTH 15 0
BBX 13 24 1 0
BITMAP
00BFA000
03FFFE00
0740BF80
07401F00
03D00100
01F40000
007E0000
001FD000
001BF400
01FFFC00
0BFEBE00
1F902F40
3D000F80
74000BC0
A00007C0
D00003C0
D00003C0
E00007C0
A0000780
B4000F40
7D007F00
3FEFFD00
1FFFF400
02FE4000
ENDCHAR
STARTCHAR epsilon
ENCODING 949
SWIDTH 381 0
DWIDTH 12 0
BBX 11 16 1 0
BITMAP
01BF90
0FFFF4
2FFBF0
7D0050
780000
380000
1C1800
0BFD00
1DAD00
380000
740000
B40010
BD00B0
7FEFF4
2FFFE0
06FE40
ENDCHAR
STARTCHAR zeta
ENCODING 950
SWIDTH 386 0
DWIDTH 12 0
BBX 13 33 1 -8
BITMAP
00100000
00B00000
01E00100
02D01F00
02E0BF40
00FAFF00
001FE400
003F4000
00FC0000
02F00000
07C00000
0F400000
2D000000
38000000
74000000
B0000000
A0000000
90000000
D0000000
A0000000
B4000000
7E400000
3FFE4000
1FFFF400
02FFFC00
0016FD00
00002D00
00000D00
00001C00
00017400
01FFE000
00FF4000
00A40000
ENDCHAR
STARTCHAR eta
ENCODING 951
SWIDTH 510 0
DWIDTH 16 0
BBX 16 24 -1 -8
BITMAP
07E01BD0
1FF47FF0
3FF4FFF8
60B9E078
007A803C
003B002C
003E001C
003D001D
007C001D
007C001D
00B8001D
00B8002D
00F8002D
00F8002D
01F8003C
01F8003C
0000007C
0000007C
0000007C
000000BC
000000FC
000000FC
000001F8
00000040
ENDCHAR
STARTCHAR theta
ENCODING 952
SWIDTH 514 0
DWIDTH 16 0
BBX 14 24 1 0
BITMAP
002FE000
00FFFC00
03FEFE00
0BD01F40
0F000780
1D0002C0
2C0001D0
380000E0
340000E0
740000A0
7FFFFFF0
7FFFFFF0
740000B0
740000B0
740000A0
780000E0
380000E0
3C0001D0
2D0003C0
1F000B80
0BD02F40
07FEFE00
01FFF800
006F9000
ENDCHAR
STARTCHAR iota
ENCODING 953
SWIDTH 259 0
DWIDTH 8 0
BBX 7 16 2 0
BITMAP
BC00
BC00
BC00
B800
B800
F800
F400
F400
F400
F000
F000
F000
F400
BD74
7FE0
2F80
ENDCHAR
STARTCHAR kappa
ENCODING 954
SWIDTH 495 0
DWIDTH 16 0
BBX 17 16 -1 0
BITMAP
07E0001A00
1FF800BE00
3FFC07FD00
60BC0FE400
007C2F4000
0078BD0000
0039F00000
0076D00000
007BA00000
007E700000
007D380000
007C2D0000
00BC1F4040
00B80BFB80
00F807FF00
00F801F800
ENDCHAR
STARTCHAR lambda
ENCODING 955
SWIDTH 506 0
DWIDTH 16 0
BBX 17 24 0 0
BITMAP
007E000000
01FF400000
03FF800000
0607C00000
0002D00000
0001D00000
0000E00000
0000A00000
0000F00000
0001F00000
0003F40000
0007B40000
000F340000
001E380000
003D280000
007C2C0000
00F82C0000
01F02D0000
03E01E0000
07D01F0000
0FC00F8140
2F800BFF40
3F4007FE00
7F0001F800
ENDCHAR
STARTCHAR mu
ENCODING 956
SWIDTH 552 0
DWIDTH 18 0
BBX 17 23 1 -7
BITMAP
2F4007E000
2F4007D000
2F0007D000
2F0007C000
2E0007C000
2E00078000
2E00078000
2D000B4000
2D000F4000
2D001F4000
2D002B4000
2E00778000
3F40E78040
3FEBD3E640
3DFF82FF00
7C7E01F800
7C00000000
7C00000000
7C00000000
BC00000000
BD00000000
BD00000000
A400000000
ENDCHAR
STARTCHAR nu
ENCODING 957
SWIDTH 453 0
DWIDTH 15 0
BBX 15 17 -1 -1
BITMAP
0BD00390
1FF402F0
3FF801F8
60BC00F8
007C00F8
003C00F8
002D01F4
001D02F4
001D03E0
001D07D0
001C0F80
001C2F00
001C7D00
001DF400
001FE000
001F8000
00150000
ENDCHAR
STARTCHAR xi
ENCODING 958
SWIDTH 390 0
DWIDTH 12 0
BBX 12 33 1 -8
BITMAP
014000
0B0000
0F0004
1F01BD
0B9BFD
01BFF8
01FE40
07E000
0F4000
1E0000
2D0000
1D0000
0E0000
075AF0
02FFF0
0B5A90
280000
700000
A00000
E00000
F00000
B90000
7FE500
2FFFE0
07FFF8
006BFD
00006E
00000A
00000A
00001D
00ABF4
00BFD0
007900
ENDCHAR
STARTCHAR omicron
ENCODING 959
SWIDTH 475 0
DWIDTH 15 0
BBX 13 16 1 0
BITMAP
00AFA000
07FFFC00
0FFBFE00
2F401F40
7C000780
740003C0
B00002C0
A00001C0
E00001C0
E00002C0
B0000380
B8000B40
7E006F00
2FFBFD00
0BFFF400
01BF9000
ENDCHAR
STARTCHAR pi
ENCODING 960
SWIDTH 591 0
DWIDTH 19 0
BBX 18 16 1 0
BITMAP
06FFFFFFD0
2FFFFFFFC0
BFBEABEA80
D01C01C000
4028028000
0028038000
0034038000
0074074000
00B0074000
00F00B4000
01E00B4000
03D00B8000
07D00BC040
0BC00BFB40
1F8007FE00
2F4001F800
ENDCHAR
STARTCHAR rho
ENCODING 961
SWIDTH 515 0
DWIDTH 16 0
BBX 14 23 2 -7
BITMAP
006FE000
02FFFD00
0BFEFF00
1F801B80
2D0003C0
380002C0
740001D0
B40001D0
B40001D0
F40001C0
F80002C0
FD000780
FB402F00
F7FBFE00
F5FFF800
F46F9000
F4000000
F4000000
F8000000
F8000000
F8000000
F8000000
A4000000
ENDCHAR
STARTCHAR uni03C2
ENCODING 962
SWIDTH 377 0
DWIDTH 12 0
BBX 11 23 1 -7
BITMAP
00AFE4
07FFF4
1FFAF0
3E0000
740000
A00000
A00000
D00000
A00000
B00000
7D0000
3F9000
2FF900
0BFFD0
01BFF4
001BF8
00007C
00001C
00001C
000078
00AFE0
00FF80
00B900
ENDCHAR
STARTCHAR sigma
ENCODING 963
SWIDTH 545 0
DWIDTH 17 0
BBX 17 16 1 0
BITMAP
006FFFFF40
03FFFFFF40
0FFEAEAA00
2F800A0000
3D00070000
7400038000
B00002C000
A00001D000
E00001D000
A00002D000
B00003D000
B8000BC000
7E002F8000
2FFBFF0000
0BFFF80000
01BF900000
ENDCHAR
STARTCHAR tau
ENCODING 964
SWIDTH 392 0
DWIDTH 13 0
BBX 13 16 0 0
BITMAP
06FFFF80
2FFFFF80
7FAFAA40
D00D0000
401D0000
001C0000
002C0000
002C0000
003C0000
00380000
007C0000
007C0000
007D0400
003FFC00
002FF400
001B9000
ENDCHAR
STARTCHAR upsilon
ENCODING 965
SWIDTH 491 0
DWIDTH 16 0
BBX 16 16 -1 0
BITMAP
07E00600
1FF402D0
3FF800F0
60F40074
00F4007C
00F0003C
00F0003D
00E0003D
01D0003D
01D0007C
01D000BC
01D001F8
00F007F0
00FFBFD0
007FFF40
001BF900
ENDCHAR
STARTCHAR phi
ENCODING 966
SWIDTH 603 0
DWIDTH 19 0
BBX 17 24 1 -7
BITMAP
0014000000
01BD07F400
07FC1FFE00
1FE47FBF40
2E00B80B80
7800F002C0
B001E002C0
A001D001C0
A002D001C0
A002C002C0
B002C003C0
7402C00780
3D02C02F00
2F97D6FD00
0BFFFFF400
02FFFF8000
001BE40000
0003D00000
0003D00000
0007D00000
0007D00000
0007E00000
0007D00000
0005000000
ENDCHAR
STARTCHAR chi
ENCODING 967
SWIDTH 462 0
DWIDTH 15 0
BBX 18 23 -2 -7
BITMAP
02F4000FD0
0BFD001FC0
0FBE003F40
181F407E00
000780FC00
000382F400
0002C3E000
0001DB8000
0000EF4000
0000BE0000
0000B80000
0001F40000
0003F80000
000BE80000
001F5C0000
002E1D0000
00BD0E0000
01F80B0000
02F40B4000
0BE007D040
1FC003FAC0
2F8001FF40
7F0000BE00
ENDCHAR
STARTCHAR psi
ENCODING 968
SWIDTH 620 0
DWIDTH 20 0
BBX 20 31 -1 -7
BITMAP
0000064000
00000FC000
00000BC000
00000B8000
00000B8000
00000B8000
00000B4000
00000B4000
07E00B4240
1FF80B41E0
2FF80B40B4
60F80B4078
00B40B403C
00B40B403D
00F00B002D
00E00B002D
00D00B003D
01D00F007C
01D00F00BC
00E00F02F4
00B90F1BF0
007FEFFFD0
001FFFFE00
0006FFA400
00001F0000
00001F0000
00001F0000
00001F4000
00002F4000
00002F4000
0000290000
ENDCHAR
STARTCHAR omega
ENCODING 969
SWIDTH 660 0
DWIDTH 21 0
BBX 19 16 1 0
BITMAP
0064001800
02F4000B40
0FF40003C0
2F800001E0
3D00B800F0
7400BD00B4
B000FC0078
A000FC007C
A000B8007C
A000B4007C
B000B0007C
7400B000F8
3D01F802F4
2FEF9FBFE0
0FFF0BFFC0
02F802FE00
ENDCHAR
STARTCHAR iotadieresis
ENCODING 970
SWIDTH 259 0
DWIDTH 8 0
BBX 12 22 -2 0
BITMAP
2E00B8
7F41FD
7F41FD
2E00B8
000000
000000
00BC00
00BC00
00BC00
00B800
00B800
00F800
00F400
00F400
00F400
00F000
00F000
00F000
00F400
00BD74
007FE0
002F80
ENDCHAR
STARTCHAR upsilondieresis
ENCODING 971
SWIDTH 491 0
DWIDTH 16 0
BBX 16 22 -1 0
BITMAP
01E00780
03F40FD0
03F40FD0
01E00780
00000000
00000000
07E00600
1FF402D0
3FF800F0
60F40074
00F4007C
00F0003C
00F0003D
00E0003D
01D0003D
01D0007C
01D000BC
01D001F8
00F007F0
00FFBFD0
007FFF40
001BF900
ENDCHAR
STARTCHAR omicrontonos
ENCODING 972
SWIDTH 475 0
DWIDTH 15 0
BBX 13 23 1 0
BITMAP
0003F000
0003E000
0003D000
0003C000
00078000
00070000
00000000
00AFA000
07FFFC00
0FFBFE00
2F401F40
7C000780
740003C0
B00002C0
A00001C0
E00001C0
E00002C0
B0000380
B8000B40
7E006F00
2FFBFD00
0BFFF400
01BF9000
ENDCHAR
STARTCHAR upsilontonos
ENCODING 973
SWIDTH 491 0
DWIDTH 16 0
BBX 16 23 -1 0
BITMAP
0000BD00
0000BC00
0000B800
0000F400
0000E000
0000D000
00000000
07E00600
1FF402D0
3FF800F0
60F40074
00F4007C
00F0003C
00F0003D
00E0003D
01D0003D
01D0007C
01D000BC
01D001F8
00F007F0
00FFBFD0
007FFF40
001BF900
ENDCHAR
STARTCHAR omegatonos
ENCODING 974
SWIDTH 660 0
DWIDTH 21 0
BBX 19 23 1 0
BITMAP
00002F0000
00003E0000
00003D0000
00003C0000
0000380000
0000700000
0000000000
0064001800
02F4000B40
0FF40003C0
2F800001E0
3D00B800F0
7400BD00B4
B000FC0078
A000FC007C
A000B8007C
A000B4007C
B000B0007C
7400B000F8
3D01F802F4
2FEF9FBFE0
0FFF0BFFC0
02F802FE00
ENDCHAR
STARTCHAR uni03D0
ENCODING 976
SWIDTH 438 0
DWIDTH 14 0
BBX 13 24 1 0
BITMAP
0006F400
002FFD00
00BFBF00
01F40740
03C00340
07400240
0F400300
1EE41B00
2DBFFD00
2C2FF800
3C069000
3C000000
786F9000
7EFFF800
7FFEFD00
7F801E00
3D000700
3D000300
2E000300
1F400700
0FD01E00
07FFFD00
02FFF800
006F9000
ENDCHAR
STARTCHAR uni03D1
ENCODING 977
SWIDTH 541 0
DWIDTH 17 0
BBX 17 24 0 0
BITMAP
0007F80000
002FFE0000
007FBF8000
00F407C000
01D002E000
01C000E000
01C000B000
01C0007400
00D0003400
0070003800
002D002E00
000FFABF40
0002FFFF00
06906FFD00
1FF4001C00
3FF4002C00
71F4002800
00B4003800
00B4007400
007400F400
007802F000
003FBFD000
002FFF8000
0006F90000
ENDCHAR
STARTCHAR uni03D2
ENCODING 978
SWIDTH 616 0
DWIDTH 20 0
BBX 20 22 0 0
BITMAP
0BF90006F8
7FFF402D7D
006F80707E
000FD0D07E
0007E1C03D
0002E28000
0001F34000
0001F70000
0000FA0000
0000FE0000
0000BE0000
0000BD0000
0000BD0000
0000BD0000
0000BD0000
0000BD0000
0000BD0000
0000BD0000
0000BD0000
0000BD0000
0001FF4000
003FFFF800
ENDCHAR
STARTCHAR uni03D5
ENCODING 981
SWIDTH 575 0
DWIDTH 18 0
BBX 17 30 1 -7
BITMAP
0001F80000
0001F80000
0001F40000
0001F40000
0001F40000
0001F00000
0001F00000
001BFA0000
01FFFFE000
0BFFFFF800
1FD2E1FD00
3E02E02E00
7802D00F00
B002D00740
A002D00740
E002D00740
A003D00700
B003C00B00
7803C01E00
3E03C0BC00
1FEBEBF400
07FFFFD000
01BFFE0000
0007C00000
0007C00000
000BC00000
000B800000
000F800000
000F800000
000F800000
ENDCHAR
STARTCHAR uni03D6
ENCODING 982
SWIDTH 821 0
DWIDTH 26 0
BBX 27 16 0 0
BITMAP
06FFFFFFFFFFF4
1FFFFFFFFFFFF0
7FAFFAAAAAFAA0
901F400000F000
402D0010007400
0078007D007800
007000BD003C00
00B000BD003C00
00B000BC003D00
00B000B8003D00
00740074007C00
0078007400BC00
003D01F802F800
001FEFCFEFF000
000BFF47FFD000
0002F901BE0000
ENDCHAR
STARTCHAR uni03D8
ENCODING 984
SWIDTH 627 0
DWIDTH 20 0
BBX 18 22 1 0
BITMAP
001BFE4000
01F956F800
0BD0007E00
2F40001F80
3F00000FD0
BE00000BE0
BE00000BE0
FE000007F0
FE000007F0
BE00000BE0
BE00000BE0
7F00000FD0
2F40001F80
0FD0003E00
02F956F800
006FFF9000
0002F40000
0001F40000
0002F40000
0002F80000
0007FD0000
00BFFFE000
ENDCHAR
STARTCHAR uni03D9
ENCODING 985
SWIDTH 475 0
DWIDTH 15 0
BBX 13 24 1 -8
BITMAP
00AF9000
07FFFC00
0FFFFE00
2F402F40
3C000780
740003C0
B00002C0
A00001C0
E00001C0
E00002C0
B0000380
B4000780
7D002F00
2FEBFD00
0BFFF400
01BF9000
002D0000
002D0000
003D0000
003D0000
003E0000
007E0000
007D0000
00100000
ENDCHAR
STARTCHAR uni03DA
ENCODING 986
SWIDTH 578 0
DWIDTH 19 0
BBX 16 22 1 0
BITMAP
001BFE47
01F956FF
0BD0007F
1F40002F
3F00000F
7E00000B
BD000007
BD000007
FD000000
BE000000
BE000000
7F000000
2F800000
0FE00000
02FD4000
006FFF00
00003F00
00003F00
00003F00
00003F40
0000BF80
000FFFFD
ENDCHAR
STARTCHAR uni03DB
ENCODING 987
SWIDTH 490 0
DWIDTH 16 0
BBX 15 23 1 -7
BITMAP
001BFFF8
01FFFFF8
0BFFAAB4
2E400000
74000000
A0000000
A0000000
D0000000
A0000000
B0000000
78000000
3F800000
2FF90000
0BFF8000
01FFE000
001BF400
0000B800
00003800
00002400
0000B000
02AFD000
01FF4000
00E40000
ENDCHAR
STARTCHAR uni03DC
ENCODING 988
SWIDTH 588 0
DWIDTH 19 0
BBX 18 22 1 0
BITMAP
FFFFFFFFD0
0BFAAAAFD0
03F40002D0
02F40001D0
02F40000D0
02F4000090
02F4000000
02F4002400
02F4002400
02F400B400
02FFFFF400
02F555B400
02F4003400
02F4002400
02F4002400
02F4000000
02F4000000
02F4000000
02F4000000
03F4000000
5BFD400000
FFFFE00000
ENDCHAR
STARTCHAR uni03DD
ENCODING 989
SWIDTH 386 0
DWIDTH 12 0
BBX 16 24 -4 -8
BITMAP
0007FFFF
0007FFFF
0007EAAA
00078000
00078000
00078000
00078000
00078000
00078000
00079AF0
0007FFF0
00079AA0
00074000
00074000
00074000
000B0000
000B0000
000A0000
000E0000
001D0000
407C0000
7BF40000
3FE00000
0B800000
ENDCHAR
STARTCHAR uni03DE
ENCODING 990
SWIDTH 525 0
DWIDTH 17 0
BBX 15 22 1 0
BITMAP
03FFF000
007F4000
003C0000
00740000
00E00000
02C00000
03800000
0B000000
1D000000
2C000000
7FFFFFFC
FFFFFFF8
AAAAAAF0
000001D0
000002C0
00000740
00000E00
00002C00
00007800
0000F000
0007F400
003FFF00
ENDCHAR
STARTCHAR uni03DF
ENCODING 991
SWIDTH 434 0
DWIDTH 14 0
BBX 15 22 -1 0
BITMAP
1B800000
3FE00000
BFF00000
81F00000
00F00000
00A00000
00A00000
00D00000
00C00140
01816F40
02AFFF00
03FFFE00
07FE4A00
0A500D00
00001C00
00002C00
00003800
00003800
00003C18
00003FB4
00003FE0
00001F80
ENDCHAR
STARTCHAR uni03E0
ENCODING 992
SWIDTH 697 0
DWIDTH 22 0
BBX 22 22 1 0
BITMAP
000BE0000000
0003F4000000
0002F8000000
0001FD000000
0000BE000000
00007F400000
0000FF800000
0001EFC00000
00038FE00000
000B47F00000
000E03F80000
002D03FC0000
007807FD0000
00B40EBF0000
01E02D3F4000
02C0782FC000
0780B40FD000
0F01E00BF000
1E03C007F400
3C078003FC00
B40F0007FE00
F02D007FFFD0
ENDCHAR
STARTCHAR uni03E1
ENCODING 993
SWIDTH 458 0
DWIDTH 15 0
BBX 15 31 -1 -8
BITMAP
14000000
BE400000
BFD00000
2FF80000
06FE0000
00BF8000
001FD000
0007F400
0001F800
00007D00
00007F00
006FDF40
07FF4B80
0FF803C0
078002D0
000001E0
000006E0
0001BFF0
001FF8B0
002FE0B4
001E40B4
00000074
00000074
00000074
00000074
000000B0
000000B0
000000A0
000000D0
000001C0
00000140
ENDCHAR
STARTCHAR uni03F0
ENCODING 1008
SWIDTH 504 0
DWIDTH 16 0
BBX 17 16 0 0
BITMAP
1B8000BF00
3FD000FD00
7FE002F800
81F007E000
00B00FC000
00702F4000
00707D0000
0071FC0000
0073F80000
006BD80000
00BF580000
00FE2C0000
01FC1E0040
03F40FEB40
0FE00BFF00
2FC001F800
ENDCHAR
STARTCHAR uni03F1
ENCODING 1009
SWIDTH 467 0
DWIDTH 15 0
BBX 13 24 1 -8
BITMAP
006FE400
01FFFD00
07FEFF00
0F401F40
1D000780
28000380
38000280
38000280
78000380
7D000B80
7F406F40
7BFFFE00
39FFF800
3C2A9000
2E000000
0FD00000
07FD0000
01FF8000
001BD000
0001E000
0001D000
03FF8000
02FE0000
01A00000
ENDCHAR
STARTCHAR uni03F4
ENCODING 1012
SWIDTH 737 0
DWIDTH 24 0
BBX 21 22 1 0
BITMAP
0006BFE40000
002F956F4000
01F80007E000
03E00001F800
0BC00000BD00
1F8000003F00
2F4000002F40
3F0000002F80
7F0000001F80
7FFFFFFFFFC0
7FFFFFFFFFC0
7F0000001FC0
7F0000002FC0
7F4000002F80
3F4000002F80
2F8000003F40
1FC000007E00
0BD00000BD00
07F00001F800
01FC0007E000
002F956F4000
0006BFE40000
ENDCHAR
STARTCHAR uni03F5
ENCODING 1013
SWIDTH 380 0
DWIDTH 12 0
BBX 11 16 1 0
BITMAP
00BF90
07FFF4
1FFBF0
2D0050
740000
A00000
A00100
BFFF40
B55500
B00000
B40000
780010
3E00B0
2FEFF4
0BFFE0
01BE40
ENDCHAR
STARTCHAR uni03F6
ENCODING 1014
SWIDTH 382 0
DWIDTH 12 0
BBX 10 16 1 0
BITMAP
6FE400
FFFE00
BEBF80
5006C0
0000D0
0000A0
040070
1FFFF0
0555B0
0000B0
0000E0
4002E0
E407D0
FFBF80
BFFE00
1BE400
ENDCHAR
STARTCHAR uni0400
ENCODING 1024
SWIDTH 626 0
DWIDTH 20 0
BBX 18 27 1 0
BITMAP
000FD00000
0006F40000
00007C0000
00000B0000
0000000000
FFFFFFFFC0
0BFAAAAFC0
03F40003C0
02F40001C0
02F40000C0
02F4000080
02F4000000
02F4002800
02F4002800
02F4007800
02FFFFF800
02F555B800
02F4002800
02F4002800
02F4001800
02F4000000
02F4000020
02F4000070
02F40000E0
03F40002E0
07F955AFD0
BFFFFFFFD0
ENDCHAR
STARTCHAR uni0401
ENCODING 1025
SWIDTH 626 0
DWIDTH 20 0
BBX 18 27 1 0
BITMAP
007801E000
00FD03F400
00FD03F400
007801E000
0000000000
FFFFFFFFC0
0BFAAAAFC0
03F40003C0
02F40001C0
02F40000C0
02F4000080
02F4000000
02F4002800
02F4002800
02F4007800
02FFFFF800
02F555B800
02F4002800
02F4002800
02F4001800
02F4000000
02F4000020
02F4000070
02F40000E0
03F40002E0
07F955AFD0
BFFFFFFFD0
ENDCHAR
STARTCHAR uni0402
ENCODING 1026
SWIDTH 731 0
DWIDTH 23 0
BBX 23 22 0 0
BITMAP
3FFFFFFFFC00
3E55FD55BC00
7800FC002C00
7400FC001C00
7000FC000C00
5000FC000800
0000FC000000
0000FC000000
0000FC000000
0000FDAFF900
0000FF957F80
0000FC000BD0
0000FC0007F0
0000FC0003F4
0000FC0002F4
0000FC0002F4
0000FC0002F4
0000FC0002F4
0000FC2D02F0
0000FC7E03D0
0016FC3F5B40
003FFC0BF900
ENDCHAR
STARTCHAR uni0403
ENCODING 1027
SWIDTH 548 0
DWIDTH 18 0
BBX 16 27 1 0
BITMAP
00007F40
0000FD00
0003E000
000B4000
00000000
BFFFFFFE
07FAAAFE
03F4001E
02F4000E
02F4000A
02F40007
02F40002
02F40000
02F40000
02F40000
02F40000
02F40000
02F40000
02F40000
02F40000
02F40000
02F40000
02F40000
02F40000
03F40000
1BFE4000
BFFFE000
ENDCHAR
STARTCHAR uni0404
ENCODING 1028
SWIDTH 668 0
DWIDTH 21 0
BBX 19 22 1 0
BITMAP
0006BFE834
002F956FF4
01F80007F4
07E00001F4
0FC00000B4
1F80000074
2F40000034
3F00000024
7F00000000
7F00000000
7FFFFFF400
7F55555000
7F00000000
7F00000000
3F40000000
2F40000000
1FC0000000
0FE000001C
07F40000B4
01FE501BD0
007FFFFE40
0006BFE400
ENDCHAR
STARTCHAR uni0405
ENCODING 1029
SWIDTH 504 0
DWIDTH 16 0
BBX 14 22 1 0
BITMAP
01BFE5C0
0BD5BFC0
2F000BC0
3D0003C0
7D0002C0
7E0001C0
7F4000C0
3FD00000
1FF80000
0BFF4000
01FFF400
002FFE00
0006FF80
00007FD0
00001FE0
D00007F0
A00003F0
B00003F0
B40003E0
BD000BC0
BF956F40
A5BFE400
ENDCHAR
STARTCHAR uni0406
ENCODING 1030
SWIDTH 357 0
DWIDTH 11 0
BBX 10 22 1 0
BITMAP
FFFFD0
5BFD40
03F400
02F400
02F400
02F400
02F400
02F400
02F400
02F400
02F400
02F400
02F400
02F400
02F400
02F400
02F400
02F400
02F400
03F400
5BFD40
FFFFD0
ENDCHAR
STARTCHAR uni0407
ENCODING 1031
SWIDTH 357 0
DWIDTH 11 0
BBX 11 27 0 0
BITMAP
2D00B4
BF01FC
BF01FC
2D00B4
000000
3FFFF4
16FF50
00FD00
00BD00
00BD00
00BD00
00BD00
00BD00
00BD00
00BD00
00BD00
00BD00
00BD00
00BD00
00BD00
00BD00
00BD00
00BD00
00BD00
00FD00
16FF50
3FFFF4
ENDCHAR
STARTCHAR uni0408
ENCODING 1032
SWIDTH 396 0
DWIDTH 13 0
BBX 12 22 0 0
BITMAP
03FFFF
016FF5
000FD0
000FC0
000FC0
000FC0
000FC0
000FC0
000FC0
000FC0
000FC0
000FC0
000FC0
000FC0
000FC0
000FC0
000FC0
100FC0
B80FC0
FD0F80
BF6F00
2FE800
ENDCHAR
STARTCHAR uni0409
ENCODING 1033
SWIDTH 924 0
DWIDTH 30 0
BBX 30 22 -1 0
BITMAP
002FFFFFFFD00000
0001F956FD000000
00007402F4000000
00007002F4000000
00007002F4000000
0000B002F4000000
0000B002F4000000
0000A002F4000000
0000E002F4000000
0000E002FFFFA000
0000D002F956FD00
0001D002F4007F40
0001C002F4001FC0
00028002F4000FD0
00038002F4000BE0
00074002F4000BE0
000B0002F4000BD0
000E0002F4000FD0
292D0002F4001F80
BFF80002F4007F40
7FF00007F956F900
2F80007FFFFE9000
ENDCHAR
STARTCHAR uni040A
ENCODING 1034
SWIDTH 1013 0
DWIDTH 32 0
BBX 31 22 1 0
BITMAP
FFFFD02FFFF40000
5BFD4016FF500000
03F40000FD000000
02F40000BD000000
02F40000BD000000
02F40000BD000000
02F40000BD000000
02F40000BD000000
02F40000BD000000
02F40000BD000000
02FFFFFFFFFFE800
02F55555BD55BF40
02F40000BD001FD0
02F40000BD0007F0
02F40000BD0003F4
02F40000BD0003F4
02F40000BD0003F4
02F40000BD0003F4
02F40000BD0007F0
03F40000FD001FD0
5BFD4006FD55BE40
FFFFD02FFFFFA400
ENDCHAR
STARTCHAR uni040B
ENCODING 1035
SWIDTH 761 0
DWIDTH 24 0
BBX 24 22 0 0
BITMAP
3FFFFFFFFC00
3E55FD55BC00
3800FC002C00
7400FC001C00
7000FC000C00
6000FC000D00
0000FC000000
0000FC000000
0000FC000000
0000FC000000
0000FDAFF900
0000FF95BF40
0000FC000FC0
0000FC000BD0
0000FC000BD0
0000FC000BD0
0000FC000BD0
0000FC000BD0
0000FC000BD0
0000FD000BE0
0016FF505FF5
003FFFF0FFFF
ENDCHAR
STARTCHAR uni040C
ENCODING 1036
SWIDTH 658 0
DWIDTH 21 0
BBX 21 27 1 0
BITMAP
000007F00000
00001F800000
00007D000000
0000E0000000
000000000000
BFFFD002F800
1BFD400BFE00
03F4001FFE00
02F4002C2800
02F400340000
02F400700000
02F400A00000
02F400D00000
02F402C00000
02F407400000
02FFFE000000
02F56F800000
02F40FD00000
02F407E00000
02F403F40000
02F401FC0000
02F400BE0000
02F4007F0000
02F4002F8000
03F4001FD000
1BFD400BF500
BFFFD007FF80
ENDCHAR
STARTCHAR uni040D
ENCODING 1037
SWIDTH 780 0
DWIDTH 25 0
BBX 23 27 1 0
BITMAP
000FE0000000
0002F4000000
00007D000000
00000B000000
000000000000
FFFFD01FFFF8
5BFD4005FF94
03F400007F00
02F400007E00
02F40000FE00
02F40002FE00
02F4000B7E00
02F4001D7E00
02F400747E00
02F400E07E00
02F402807E00
02F40B007E00
02F42D007E00
02F474007E00
02F5E0007E00
02F780007E00
02FF00007E00
02FC00007E00
02F400007E00
03F400007F00
5BFD4005FF94
FFFFD01FFFF8
ENDCHAR
STARTCHAR uni040E
ENCODING 1038
SWIDTH 625 0
DWIDTH 20 0
BBX 21 30 0 0
BITMAP
000500140000
001F807E0000
002F403F0000
001F002F0000
000F807D0000
0002FFE40000
000004000000
000000000000
FFFF001FFF80
6FF90006FD40
07F00001F400
03F40001D000
01F80002C000
00BD00034000
007E000B0000
002F400E0000
001F801C0000
000BD0380000
0007E0700000
0002F4E00000
0000F9D00000
0000BF800000
00003F400000
00002F000000
00001D000000
000028000000
0290B4000000
07FFE0000000
07FF80000000
01FD00000000
ENDCHAR
STARTCHAR uni040F
ENCODING 1039
SWIDTH 759 0
DWIDTH 24 0
BBX 23 29 1 -7
BITMAP
FFFFC02FFFF4
5BFD4016FE50
03F40000FD00
02F40000FC00
02F40000FC00
02F40000FC00
02F40000FC00
02F40000FC00
02F40000FC00
02F40000FC00
02F40000FC00
02F40000FC00
02F40000FC00
02F40000FC00
02F40000FC00
02F40000FC00
02F40000FC00
02F40000FC00
02F40000FC00
03F40000FC00
07F55555FE00
BFFFFFFFFFF0
000006000000
00000B000000
00000F400000
00001F800000
00001F800000
00001F800000
00000F400000
ENDCHAR
STARTCHAR uni0410
ENCODING 1040
SWIDTH 718 0
DWIDTH 23 0
BBX 23 22 0 0
BITMAP
00000B400000
00000F800000
00001FC00000
00002FD00000
00007BF00000
0000B3F40000
0000E2F80000
0001D1FC0000
0003C0BE0000
0007807F0000
000B403F4000
000F002FC000
001D001FD000
003C000FE000
007FFFFFF000
00B55557F800
00F00002FC00
02D00001FD00
03C00000FF00
0B800000BF40
6FD40005FFE4
FFF8000BFFFC
ENDCHAR
STARTCHAR uni0411
ENCODING 1041
SWIDTH 617 0
DWIDTH 20 0
BBX 18 22 1 0
BITMAP
BFFFFFFF00
07FAAABF00
03F4001F00
02F4000B00
02F4000700
02F4000300
02F4000100
02F4000000
02F4000000
02F4000000
02FFFF9000
02F556FD00
02F4007F40
02F4001FC0
02F4000FD0
02F4000FD0
02F4000FD0
02F4000FD0
02F4001F80
03F4007F40
07F556F900
BFFFFE9000
ENDCHAR
STARTCHAR uni0412
ENCODING 1042
SWIDTH 618 0
DWIDTH 20 0
BBX 18 22 1 0
BITMAP
FFFFFE9000
07F95BF800
03F400BE00
02F4003F40
02F4002F80
02F4002F80
02F4002F40
02F4002F00
02F4007D00
02F406E400
02FFFF9000
02F556F900
02F4007F40
02F4001FC0
02F4000FD0
02F4000BE0
02F4000BE0
02F4000FD0
02F4001FC0
03F4002F80
0BF556FE00
FFFFFFA000
ENDCHAR
STARTCHAR uni0413
ENCODING 1043
SWIDTH 548 0
DWIDTH 18 0
BBX 16 22 1 0
BITMAP
BFFFFFFE
07FAAAFE
03F4001E
02F4000E
02F4000A
02F40007
02F40002
02F40000
02F40000
02F40000
02F40000
02F40000
02F40000
02F40000
02F40000
02F40000
02F40000
02F40000
02F40000
03F40000
1BFE4000
BFFFE000
ENDCHAR
STARTCHAR uni0414
ENCODING 1044
SWIDTH 663 0
DWIDTH 21 0
BBX 20 29 0 -7
BITMAP
01FFFFFFFF
001F955FE0
000B000FC0
000B000FC0
000B000FC0
000B000FC0
000B000FC0
000E000FC0
000E000FC0
001D000FC0
001D000FC0
002C000FC0
002C000FC0
0038000FC0
0074000FC0
00B0000FC0
00E0000FC0
01D0000FC0
03C0000FC0
0B40000FC0
6F55555FE5
FFFFFFFFFF
FD0000007F
F40000002F
F00000000F
E00000000E
D00000000A
D00000000A
8000000006
ENDCHAR
STARTCHAR uni0415
ENCODING 1045
SWIDTH 626 0
DWIDTH 20 0
BBX 18 22 1 0
BITMAP
FFFFFFFFC0
0BFAAAAFC0
03F40003C0
02F40001C0
02F40000C0
02F4000080
02F4000000
02F4002800
02F4002800
02F4007800
02FFFFF800
02F555B800
02F4002800
02F4002800
02F4001800
02F4000000
02F4000020
02F4000070
02F40000E0
03F40002E0
07F955AFD0
BFFFFFFFD0
ENDCHAR
ENDFONT
